<svg width="42" height="42" viewBox="0 0 42 42" fill="none" xmlns="http://www.w3.org/2000/svg">
<path d="M21 0C9.4206 0 0 9.4206 0 21V29.7003C0 31.8507 1.8837 33.6 4.2 33.6H6.3C6.85695 33.6 7.3911 33.3787 7.78492 32.9849C8.17875 32.5911 8.4 32.057 8.4 31.5V20.6997C8.4 20.1427 8.17875 19.6086 7.78492 19.2148C7.3911 18.8209 6.85695 18.5997 6.3 18.5997H4.3932C5.5608 10.4727 12.5538 4.2 21 4.2C29.4462 4.2 36.4392 10.4727 37.6068 18.5997H35.7C35.143 18.5997 34.6089 18.8209 34.2151 19.2148C33.8212 19.6086 33.6 20.1427 33.6 20.6997V33.6C33.6 35.9163 31.7163 37.8 29.4 37.8H25.2V35.7H16.8V42H29.4C34.0326 42 37.8 38.2326 37.8 33.6C40.1163 33.6 42 31.8507 42 29.7003V21C42 9.4206 32.5794 0 21 0Z" fill="white" fill-opacity="0.8"/>
</svg>
