<svg viewBox="0 0 584 604" xmlns="http://www.w3.org/2000/svg"><style><![CDATA[:root>svg{display:none}:root>svg:target{display:block}]]></style><svg fill="none" viewBox="0 0 32 32" id="close-button" xmlns="http://www.w3.org/2000/svg"><circle cx="16" cy="16" r="16" fill="#EDEDED"/><path d="M8 24 24 8m0 16L8 8" stroke="#fff" stroke-width="4" stroke-linejoin="round"/></svg><svg fill="none" viewBox="0 0 101 62" id="logo" xmlns="http://www.w3.org/2000/svg"><path d="M40.023 45.817c-18.22 9.718-30.874 1.88-34.923-3.253-1.519-2.242-3.384-8.2 1.301-14.1 4.686-5.9 11.786-4.338 14.75-2.82L40.457 45.6l-.434.217z" fill="url(#bpaint0_linear)"/><path d="M95.552 11.545c-9.544-20.39-41.43-10.412-52.276 4.121l16.486 18.872c15.4 15.835 45.985 6.507 35.79-22.993z" fill="url(#bpaint1_linear)"/><path d="M21.802 27.163C13.015 19.088-.974 31.067 5.1 42.563c-10.065-14.75-2.566-27.434 0-29.933C21.802-3.64 40.457 9.376 54.99 28.465 67.1 44.37 78.995 42.492 82.755 40.828c16.051-7.1 16.025-20.39 12.58-29.717 21.041 36.876-24.294 64.64-46.852 42.95l-26.68-26.898z" fill="url(#bpaint2_linear)"/><defs><linearGradient id="bpaint0_linear" x1="3.47" y1="33.622" x2="40.346" y2="45.986" gradientUnits="userSpaceOnUse"><stop stop-color="#FEF7FE"/><stop offset="1" stop-color="#8969C8"/></linearGradient><linearGradient id="bpaint1_linear" x1="46.202" y1="18.004" x2="95.441" y2="27.982" gradientUnits="userSpaceOnUse"><stop stop-color="#6F4CA6"/><stop offset="1" stop-color="#FEFDF9"/></linearGradient><linearGradient id="bpaint2_linear" x1="0" y1="25.379" x2="100.648" y2="27.331" gradientUnits="userSpaceOnUse"><stop stop-color="#543286"/><stop offset=".056" stop-color="#4A287F"/><stop offset=".134" stop-color="#5A319B"/><stop offset=".268" stop-color="#6D45B8"/><stop offset=".41" stop-color="#8960E2"/><stop offset=".528" stop-color="#6F47BB"/><stop offset=".746" stop-color="#4A2380"/><stop offset="1" stop-color="#411E71"/></linearGradient></defs></svg><svg fill="none" viewBox="0 0 15 15" id="profile" xmlns="http://www.w3.org/2000/svg"><path d="M1 7.5h6m-6 0L2.5 5M1 7.5 2.5 10" stroke="#0E0E0E" stroke-opacity=".7" stroke-linejoin="round"/><path d="M3.063 3.435a6.457 6.457 0 1 1 0 8.217" stroke="#0E0E0E" stroke-opacity=".7"/></svg><svg fill="none" viewBox="0 0 96 98" id="status-expert" xmlns="http://www.w3.org/2000/svg"><ellipse cx="48" cy="49" rx="48" ry="49" fill="url(#dpaint0_linear)"/><path d="M53.697 33.33v12.542c0 1.005-.828 1.818-1.85 1.818-1.024 0-1.852-.813-1.852-1.818V33.33c-6.264.891-11.108 6.148-11.108 12.542V56.78c0 1.005.828 1.818 1.851 1.818h4.148l1.413 16.758c.08.94.883 1.665 1.844 1.665h7.406c.962 0 1.764-.724 1.844-1.665l1.414-16.758h4.147c1.023 0 1.851-.813 1.851-1.818V45.872c0-6.394-4.844-11.65-11.108-12.542zm-2.188-1.552c3.266 0 5.913-2.636 5.913-5.889 0-3.252-2.647-5.889-5.913-5.889-3.266 0-5.913 2.637-5.913 5.89 0 3.252 2.647 5.888 5.913 5.888z" fill="#fff"/><path d="m31.724 57.05.025 3.296a4.445 4.445 0 0 0-4.249 4.437v9.707a4.446 4.446 0 0 0 4.45 4.442h16.375a4.446 4.446 0 0 0 4.45-4.442v-9.707a4.445 4.445 0 0 0-4.25-4.437l.025-3.295a4.446 4.446 0 0 0-4.449-4.475h-7.928a4.446 4.446 0 0 0-4.45 4.474z" fill="#fff" stroke="url(#dpaint1_linear)" stroke-width="5"/><defs><linearGradient id="dpaint0_linear" x1="0" y1="49" x2="96" y2="49" gradientUnits="userSpaceOnUse"><stop stop-color="#A18CD1"/><stop offset="1" stop-color="#FBC2EB"/></linearGradient><linearGradient id="dpaint1_linear" x1="0" y1="45" x2="93.5" y2="55" gradientUnits="userSpaceOnUse"><stop stop-color="#A48DD1"/><stop offset="1" stop-color="#F4BDE9"/></linearGradient></defs></svg><svg fill="none" viewBox="0 0 96 98" id="status-investor" xmlns="http://www.w3.org/2000/svg"><ellipse cx="48" cy="49" rx="48" ry="49" fill="url(#epaint0_linear)"/><path d="M19 35a3 3 0 0 1 3-3h52.305a3 3 0 0 1 3 3v30.89c0 .604-.49 1.093-1.093 1.093-.604 0-1.087-.492-1.156-1.091-.544-4.708-4.563-8.383-9.412-8.383-2.956 0-5.563 1.38-7.293 3.517-.854 1.056-2.28 1.584-3.64 1.584a6.482 6.482 0 0 0-5.138 2.525c-.778 1.002-1.86 1.848-3.128 1.848H22a3 3 0 0 1-3-3V35zm24.4 6.066a4.473 4.473 0 0 0-.32 1.37c-.03.467-.03.963.03 1.458l.057.233c.03.175.059.409.146.671.058.291.175.583.292.904.087.32.262.641.437.962.204.35.437.641.67.904.234.262.525.495.904.67.35.175.73.262 1.166.262a2.5 2.5 0 0 0 1.137-.262c.35-.175.642-.408.875-.641.262-.263.466-.583.641-.933.204-.35.35-.67.467-.962.116-.292.204-.583.262-.904.087-.32.117-.525.146-.641l.002-.008c.04-.166.044-.34.065-.509a5.47 5.47 0 0 0-.155-2.136 3.927 3.927 0 0 0-1.195-1.924c-.612-.525-1.37-.788-2.303-.788-.554 0-1.05.088-1.516.292-.437.204-.816.466-1.108.816-.262.321-.495.73-.7 1.166zM55.908 58.85c.34-.085.554-.405.554-.756v-2.742c0-.962-.291-1.924-.845-2.857a6.784 6.784 0 0 0-2.245-2.303 5.388 5.388 0 0 0-2.058-.826c-.59-.102-1.181.102-1.678.439l-1.216.824a3 3 0 0 1-3.301.042l-1.327-.85c-.483-.31-1.048-.495-1.615-.408a5.664 5.664 0 0 0-2.157.808 6.614 6.614 0 0 0-2.157 2.245c-.525.933-.787 1.895-.787 2.886v2.779c0 .322.214.604.524.69.35.117.846.234 1.487.408.67.146 1.37.292 2.157.438.758.146 1.662.262 2.653.379a32.97 32.97 0 0 0 2.886.145c.875 0 1.837-.058 2.857-.145.991-.117 1.866-.233 2.595-.38.729-.116 1.457-.29 2.215-.466l1.458-.35zm9.737.117a8.012 8.012 0 0 1 8.017 8.017A8.012 8.012 0 0 1 65.644 75a7.632 7.632 0 0 1-3.415-.805c-1.298-.646-1.373-2.318-1.085-3.738a6.514 6.514 0 0 0-.979-4.933c-.816-1.213-1.383-2.802-.412-3.895 1.448-1.629 3.533-2.663 5.891-2.663zM49.61 69.17c0-2.798 2.303-5.101 5.102-5.101 2.798 0 5.102 2.303 5.102 5.102 0 2.798-2.303 5.101-5.102 5.101-2.799 0-5.102-2.303-5.102-5.102z" fill="#fff"/><path d="M43.4 41.066a4.473 4.473 0 0 0-.32 1.37c-.03.467-.03.963.03 1.458l.057.233c.03.175.059.409.146.671.058.291.175.583.292.904.087.32.262.641.437.962.204.35.437.641.67.904.234.262.525.495.904.67.35.175.73.262 1.166.262a2.5 2.5 0 0 0 1.137-.262c.35-.175.642-.408.875-.641.262-.263.466-.583.641-.933.204-.35.35-.67.467-.962.116-.292.204-.583.262-.904.087-.32.117-.525.146-.641l.002-.008c.04-.166.044-.34.065-.509a5.47 5.47 0 0 0-.155-2.136 3.927 3.927 0 0 0-1.195-1.924c-.612-.525-1.37-.788-2.303-.788-.554 0-1.05.088-1.516.292-.437.204-.816.466-1.108.816-.262.321-.495.73-.7 1.166zM55.907 58.85c.34-.086.554-.406.554-.757v-2.742c0-.962-.291-1.924-.845-2.857a6.784 6.784 0 0 0-2.245-2.303 5.388 5.388 0 0 0-2.058-.826c-.59-.102-1.181.102-1.678.439l-1.216.824a3 3 0 0 1-3.301.042l-1.327-.85c-.483-.31-1.048-.495-1.615-.408a5.664 5.664 0 0 0-2.157.808 6.614 6.614 0 0 0-2.157 2.245c-.525.933-.787 1.895-.787 2.886v2.779c0 .322.214.604.524.69.35.117.846.234 1.487.408.67.146 1.37.292 2.157.438.758.146 1.662.262 2.653.379a32.97 32.97 0 0 0 2.886.145c.875 0 1.837-.058 2.857-.145.991-.117 1.866-.233 2.595-.38.729-.116 1.457-.29 2.215-.466l1.458-.35z" fill="#fff"/><path d="M46.774 50.088c-.143 0-.287.01-.428.033-3.08.523-5.616 2.656-6.668 5.503-.574 1.554.82 2.939 2.477 2.939h11.276c1.657 0 3.051-1.385 2.477-2.939-1.052-2.847-3.587-4.98-6.668-5.503a2.57 2.57 0 0 0-.428-.033h-2.038z" fill="url(#epaint1_linear)"/><path d="M47.632 49.275c1.295 0 2.417-.466 3.333-1.386.916-.92 1.38-2.046 1.38-3.347 0-1.3-.464-2.425-1.38-3.346-.917-.92-2.038-1.386-3.333-1.386-1.295 0-2.416.466-3.332 1.386-.916.92-1.381 2.046-1.381 3.346 0 1.301.465 2.427 1.381 3.347.916.92 2.038 1.386 3.332 1.386z" fill="url(#epaint2_linear)"/><defs><linearGradient id="epaint0_linear" x1="0" y1="49" x2="96" y2="49" gradientUnits="userSpaceOnUse"><stop stop-color="#A18CD1"/><stop offset="1" stop-color="#FBC2EB"/></linearGradient><linearGradient id="epaint1_linear" x1="15.567" y1="42.3" x2="84.616" y2="63.282" gradientUnits="userSpaceOnUse"><stop stop-color="#A48DD1"/><stop offset="1" stop-color="#F5BEE9"/></linearGradient><linearGradient id="epaint2_linear" x1="16.33" y1="39.63" x2="84.998" y2="64.045" gradientUnits="userSpaceOnUse"><stop stop-color="#A48DD1"/><stop offset="1" stop-color="#F5BEE9"/></linearGradient></defs></svg><svg fill="none" viewBox="0 0 96 98" id="status-leader" xmlns="http://www.w3.org/2000/svg"><ellipse cx="48" cy="49" rx="48" ry="49" fill="url(#fpaint0_linear)"/><path d="M28.43 39.826c-3.835 0-6.953-2.931-6.953-6.536 0-3.605 3.118-6.536 6.953-6.536 3.834 0 6.953 2.931 6.953 6.536 0 3.605-3.119 6.536-6.953 6.536zm38.473 0c-3.834 0-6.953-2.931-6.953-6.536 0-3.605 3.119-6.536 6.953-6.536 3.835 0 6.953 2.931 6.953 6.536 0 3.605-3.118 6.536-6.953 6.536zM47.667 36.34c-4.792 0-8.691-3.665-8.691-8.17S42.875 20 47.667 20c4.792 0 8.691 3.665 8.691 8.17s-3.899 8.17-8.691 8.17zm1.738 1.412v11.273c0 .903-.777 1.634-1.738 1.634-.96 0-1.738-.73-1.738-1.634V37.752c-5.882.801-10.43 5.526-10.43 11.273v9.804c0 .903.777 1.634 1.738 1.634h3.895l1.327 15.062c.075.845.828 1.496 1.731 1.496h6.954c.903 0 1.656-.65 1.731-1.496l1.327-15.062h3.895c.96 0 1.738-.73 1.738-1.634v-9.804c0-5.747-4.549-10.472-10.43-11.273zM31.906 59.047v-9.804c0-2.45.701-4.726 1.833-6.759-1.561-.876-3.363-1.411-5.31-1.411C22.68 41.073 18 45.47 18 50.877v8.17c0 .903.777 1.634 1.738 1.634h1.903l1.582 14.87c.089.834.837 1.47 1.73 1.47h6.953c.893 0 1.642-.636 1.73-1.47l1.285-12.076c-1.775-.782-3.015-2.466-3.015-4.428zm45.427-8.17c0-5.406-4.678-9.804-10.43-9.804-1.946 0-3.748.535-5.309 1.411 1.132 2.033 1.833 4.31 1.833 6.759v9.804c0 1.962-1.24 3.646-3.015 4.428l1.285 12.075c.088.835.837 1.471 1.73 1.471h6.953c.893 0 1.641-.636 1.73-1.47l1.582-14.87h1.903c.96 0 1.738-.73 1.738-1.634v-8.17z" fill="#fff"/><defs><linearGradient id="fpaint0_linear" x1="0" y1="49" x2="96" y2="49" gradientUnits="userSpaceOnUse"><stop stop-color="#A18CD1"/><stop offset="1" stop-color="#FBC2EB"/></linearGradient></defs></svg><svg fill="none" viewBox="0 0 96 98" id="status-master" xmlns="http://www.w3.org/2000/svg"><ellipse cx="48" cy="49" rx="48" ry="49" fill="url(#gpaint0_linear)"/><path d="M54.625 64.463c-1.069 0-1.781-.357-2.85-.713L47.5 61.969l-4.275 1.781c-.712.356-1.781.713-2.85.713-.712 0-1.069 0-1.781-.357L36.812 78 47.5 70.875 58.188 78 56.05 64.106c-.356.357-1.069.357-1.425.357zm10.332-22.444c-.357-.713-.357-1.782 0-2.494l2.137-4.275c.713-1.425 0-3.206-1.781-3.919L60.68 29.55c-.712-.356-1.424-1.069-1.78-1.781l-1.782-4.631C56.763 21.712 55.694 21 54.625 21c-.356 0-1.069 0-1.425.356l-4.631 2.138H47.5c-.356 0-.712 0-1.069-.357l-4.63-1.78C41.443 21 40.73 21 40.374 21c-1.069 0-2.137.712-2.85 1.781l-1.781 4.988c0 .712-.712 1.425-1.425 1.781l-4.988 1.781c-1.424.357-2.137 2.138-1.424 3.919l2.137 4.631c.356.713.356 1.782 0 2.494l-2.137 4.275c-.713 1.425 0 3.206 1.78 3.919l4.632 1.781c.712.356 1.425 1.069 1.781 1.781l1.782 4.632c.356 1.425 1.425 2.137 2.493 2.137.356 0 .713 0 1.069-.356l4.631-2.138c.356 0 .713-.356 1.069-.356s.712 0 1.069.356l4.631 2.138c.356.356.712.356 1.069.356 1.069 0 2.137-.712 2.85-1.781l1.781-4.632c.356-.712 1.069-1.425 1.781-1.78l4.632-1.782c1.425-.712 2.493-2.494 1.78-3.919l-1.78-4.987zM47.5 55.2c-7.837 0-14.25-6.413-14.25-14.25 0-7.838 6.413-14.25 14.25-14.25 7.838 0 14.25 6.412 14.25 14.25 0 7.837-6.412 14.25-14.25 14.25z" fill="#fff"/><path d="M58.188 40.95a10.687 10.687 0 1 1-21.375 0 10.687 10.687 0 0 1 21.374 0z" fill="#fff"/><defs><linearGradient id="gpaint0_linear" x1="0" y1="49" x2="96" y2="49" gradientUnits="userSpaceOnUse"><stop stop-color="#A18CD1"/><stop offset="1" stop-color="#FBC2EB"/></linearGradient></defs></svg><svg fill="none" viewBox="0 0 96 98" id="status-mentor" xmlns="http://www.w3.org/2000/svg"><ellipse cx="48" cy="49" rx="48" ry="49" fill="url(#hpaint0_linear)"/><path d="M38.21 53.78c-.24 0-.479.017-.715.055-8.251 1.335-14.909 7.458-16.891 15.426-.667 2.68 1.635 4.952 4.396 4.952h31.652c2.761 0 5.063-2.272 4.396-4.952-1.983-7.968-8.64-14.091-16.892-15.426a4.473 4.473 0 0 0-.714-.055H38.21zm2.228-1.96c3.122 0 5.826-1.124 8.035-3.342 2.21-2.218 3.33-4.933 3.33-8.068 0-3.134-1.12-5.849-3.33-8.068C46.263 30.124 43.56 29 40.438 29c-3.123 0-5.825 1.124-8.035 3.343-2.209 2.218-3.329 4.932-3.329 8.067s1.12 5.85 3.33 8.068 4.913 3.343 8.034 3.343zM53 44.072l5.156-5.409.676 5.409H53z" fill="#fff"/><path d="M58.085 32.663a2 2 0 0 1 2-2h18.988a2 2 0 0 1 2 2v12.903a2 2 0 0 1-2 2H60.085a2 2 0 0 1-2-2V32.663z" fill="#fff"/><path fill="url(#hpaint1_linear)" d="M62.142 35.395H76.34v1.092H62.142z"/><path fill="url(#hpaint2_linear)" d="M62.142 38.672H76.34v1.092H62.142z"/><path fill="url(#hpaint3_linear)" d="M62.142 41.948H76.34v1.092H62.142z"/><defs><linearGradient id="hpaint0_linear" x1="0" y1="49" x2="96" y2="49" gradientUnits="userSpaceOnUse"><stop stop-color="#A18CD1"/><stop offset="1" stop-color="#FBC2EB"/></linearGradient><linearGradient id="hpaint1_linear" x1="8.421" y1="37.176" x2="96.104" y2="75.757" gradientUnits="userSpaceOnUse"><stop stop-color="#A38DD1"/><stop offset="1" stop-color="#F7BFE9"/></linearGradient><linearGradient id="hpaint2_linear" x1="8.922" y1="35.172" x2="95.603" y2="76.258" gradientUnits="userSpaceOnUse"><stop stop-color="#A38DD1"/><stop offset="1" stop-color="#F7BFE9"/></linearGradient><linearGradient id="hpaint3_linear" x1="8.922" y1="35.673" x2="96.104" y2="76.258" gradientUnits="userSpaceOnUse"><stop stop-color="#A38DD1"/><stop offset="1" stop-color="#F7BFE9"/></linearGradient></defs></svg><svg fill="none" viewBox="0 0 96 98" id="status-partner" xmlns="http://www.w3.org/2000/svg"><ellipse cx="48" cy="49" rx="48" ry="49" fill="url(#ipaint0_linear)"/><path d="m78.363 42.551-10.95-18.66a1.805 1.805 0 0 0-2.46-.649l-6.563 3.79-5.91-2.175a6.597 6.597 0 0 0-5.594.48l-9.773 5.642a4.512 4.512 0 1 0 4.513 7.816l10.723-6.191a3.61 3.61 0 0 1 3.61 0s21.604 12.477 21.673 12.52l.322-.266a1.805 1.805 0 0 0 .41-2.307z" fill="#fff"/><path d="M75.618 48.122 54.154 35.73l-10.722 6.191a8.075 8.075 0 0 1-6.164.812 8.07 8.07 0 0 1-4.932-3.785 8.07 8.07 0 0 1-.812-6.164 8.06 8.06 0 0 1 2.853-4.304l-4.426-2.555a1.805 1.805 0 0 0-2.493.71L17.215 45.732c-.461.86-.157 1.93.688 2.417l.938.541 1.647-2.852A7.696 7.696 0 0 1 27.135 42a7.7 7.7 0 0 1 5.614 2.443 7.649 7.649 0 0 1 6.456.563 7.621 7.621 0 0 1 3.718 5.314c.739.17 1.452.45 2.113.832a7.62 7.62 0 0 1 3.719 5.314c.738.17 1.45.45 2.112.831 3.663 2.115 4.923 6.816 2.808 10.48l-2.248 3.894 4.82 2.783a4.061 4.061 0 1 0 4.061-7.034l3.127 1.805a4.061 4.061 0 1 0 4.06-7.035l2.085 1.204a4.061 4.061 0 1 0 4.061-7.035l-2.084-1.203a4.061 4.061 0 0 0 4.061-7.035z" fill="#fff"/><path d="M49.062 60.425a4.061 4.061 0 0 0-5.548 1.486l1.203-2.084a4.061 4.061 0 0 0-7.034-4.061l1.203-2.085a4.061 4.061 0 0 0-7.034-4.061l-1.204 2.084a4.061 4.061 0 0 0-7.034-4.061l-4.362 7.555a4.061 4.061 0 0 0 7.034 4.061 4.061 4.061 0 1 0 7.035 4.062 4.061 4.061 0 1 0 7.034 4.06 4.061 4.061 0 1 0 7.034 4.062l3.16-5.471a4.06 4.06 0 0 0-1.487-5.547z" fill="#fff"/><defs><linearGradient id="ipaint0_linear" x1="0" y1="49" x2="96" y2="49" gradientUnits="userSpaceOnUse"><stop stop-color="#A18CD1"/><stop offset="1" stop-color="#FBC2EB"/></linearGradient></defs></svg><svg fill="none" viewBox="0 0 96 98" id="status-professional" xmlns="http://www.w3.org/2000/svg"><ellipse cx="48" cy="49" rx="48" ry="49" fill="url(#jpaint0_linear)"/><path d="M47.646 36.894a7.947 7.947 0 1 0 0-15.894 7.947 7.947 0 0 0 0 15.894zm8.464 30.848 5.039-5.82a1.464 1.464 0 0 0-.775-2.384l-7.497-1.746-3.977-6.59a1.464 1.464 0 0 0-2.507 0l-3.977 6.59-7.497 1.746a1.464 1.464 0 0 0-.775 2.385l5.039 5.819-.656 7.669a1.464 1.464 0 0 0 2.028 1.474l7.092-2.994 7.09 2.993a1.461 1.461 0 0 0 1.43-.164c.416-.301.643-.798.599-1.31l-.656-7.668zm15.65-1.306-4.117-3.386-.444-5.31a1.464 1.464 0 0 0-2.248-1.113l-1.552.992c.52.521.923 1.161 1.156 1.878a4.771 4.771 0 0 1-.926 4.574l-4.131 4.772.432 5.047 2.133 2.473a1.465 1.465 0 0 0 2.472-.421l1.948-4.96 4.913-2.065a1.464 1.464 0 0 0 .363-2.48zm-41.022-6.938a4.74 4.74 0 0 1 1.156-1.88l-1.552-.99a1.465 1.465 0 0 0-2.247 1.111l-.445 5.311-4.116 3.386a1.464 1.464 0 0 0 .363 2.481l4.914 2.064 1.948 4.96a1.465 1.465 0 0 0 2.472.422l2.133-2.472.431-5.048-4.13-4.772a4.771 4.771 0 0 1-.927-4.573z" fill="#fff"/><path d="m40.322 54.91 3.261-5.403a4.771 4.771 0 0 1 4.064-2.293c1.652 0 3.209.879 4.063 2.293l3.26 5.404 6.148 1.432c.219.05.431.118.638.199v-13.47a7.096 7.096 0 0 0-5.51-6.915 11.227 11.227 0 0 1-6.959 3.899v2.995a1.64 1.64 0 0 1-3.281 0v-2.996a11.228 11.228 0 0 1-6.96-3.898 7.096 7.096 0 0 0-5.509 6.915v13.47c.207-.08.42-.148.638-.2l6.147-1.431z" fill="#fff"/><defs><linearGradient id="jpaint0_linear" x1="0" y1="49" x2="96" y2="49" gradientUnits="userSpaceOnUse"><stop stop-color="#A18CD1"/><stop offset="1" stop-color="#FBC2EB"/></linearGradient></defs></svg><svg fill="none" viewBox="0 0 96 98" id="status-user" xmlns="http://www.w3.org/2000/svg"><ellipse cx="48" cy="49" rx="48" ry="49" fill="url(#kpaint0_linear)"/><path d="M44.807 50.163a4.61 4.61 0 0 0-.714.054C33.243 51.933 24.568 60.23 22.48 70.889c-.53 2.71 1.759 4.97 4.52 4.97h42.38c2.761 0 5.05-2.26 4.52-4.97-2.088-10.66-10.764-18.956-21.613-20.672a4.585 4.585 0 0 0-.715-.054h-6.765zm2.896-2.464c3.927 0 7.327-1.414 10.105-4.204 2.778-2.79 4.186-6.203 4.186-10.146 0-3.942-1.408-7.355-4.187-10.146C55.03 20.414 51.63 19 47.703 19c-3.927 0-7.326 1.414-10.104 4.204-2.778 2.79-4.187 6.203-4.187 10.145 0 3.943 1.409 7.357 4.187 10.146 2.779 2.79 6.179 4.204 10.104 4.204z" fill="#fff"/><defs><linearGradient id="kpaint0_linear" x1="0" y1="49" x2="96" y2="49" gradientUnits="userSpaceOnUse"><stop stop-color="#A18CD1"/><stop offset="1" stop-color="#FBC2EB"/></linearGradient></defs></svg><svg fill="none" viewBox="0 0 96 98" id="status-winner" xmlns="http://www.w3.org/2000/svg"><ellipse cx="48" cy="49" rx="48" ry="49" fill="url(#lpaint0_linear)"/><path fill-rule="evenodd" clip-rule="evenodd" d="M31.123 22.323c0-.73.592-1.323 1.323-1.323h30.722c.73 0 1.323.593 1.323 1.323 0 .731.593 1.324 1.324 1.324h6.746c.945 0 2.879.397 3.053 1.985.175 1.588.073 6.47 0 8.713-.098 2.843-2.03 8.616-8.696 11.098a4.041 4.041 0 0 0-2.56 3.222c-.58 4.3-3.055 10.337-9.815 13.24-1.59.683-2.594 2.4-2.08 4.052l.25.8a3 3 0 0 0 2.864 2.109h4.32c.155 0 .31.008.457.054.532.166 1.396.679 1.847 1.82.228.576.588 1.59.966 2.688.666 1.932-.78 3.93-2.823 3.93H35.206a3 3 0 0 1-2.863-3.896l.771-2.465c.054-.17.12-.337.212-.49.394-.659 1.167-1.641 1.94-1.641h6.98l.891-2.864c.52-1.668-.5-3.429-2.08-4.173-3.954-1.861-8.773-5.89-9.755-13.006-.208-1.513-1.343-2.791-2.774-3.325-3.41-1.273-7.713-4.491-8.528-11.153v-8.713c.145-.662.807-1.985 2.29-1.985h7.51c.73 0 1.323-.593 1.323-1.323zm-3.358 16.115c1.41 1.414 3.358.09 3.358-1.906v-4.04a3 3 0 0 0-3-3H25.56v4.853a7.973 7.973 0 0 0 2.204 4.093zm40.093.195c-1.457 1.323-3.367-.038-3.367-2.006v-4.135a3 3 0 0 1 3-3h2.67v4.853c-.253 1.884-1.202 3.29-2.303 4.288z" fill="#fff"/><path d="m53.79 44.237 3.532-4.124c.235-.275.311-.655.2-1a1.031 1.031 0 0 0-.743-.69l-5.256-1.238-2.788-4.67a1.024 1.024 0 0 0-.88-.502c-.359 0-.692.19-.878.501l-2.789 4.67-5.256 1.239a1.03 1.03 0 0 0-.743.69c-.111.345-.035.725.2 1l3.532 4.124-.46 5.435c-.03.363.13.715.42.928.291.214.672.258 1.003.117l4.972-2.122 4.971 2.122a1.016 1.016 0 0 0 1.003-.116c.29-.214.45-.566.42-.928l-.46-5.436z" fill="url(#lpaint1_linear)"/><defs><linearGradient id="lpaint0_linear" x1="0" y1="49" x2="96" y2="49" gradientUnits="userSpaceOnUse"><stop stop-color="#A18CD1"/><stop offset="1" stop-color="#FBC2EB"/></linearGradient><linearGradient id="lpaint1_linear" x1="8" y1="32" x2="93" y2="65.5" gradientUnits="userSpaceOnUse"><stop stop-color="#A38DD1"/><stop offset="1" stop-color="#F6BFE9"/></linearGradient></defs></svg><svg fill="none" viewBox="0 0 34 31" id="telegram" xmlns="http://www.w3.org/2000/svg"><path d="M33.126.61A2.506 2.506 0 0 0 30.57.174L1.593 11.562a2.513 2.513 0 0 0 .426 4.803l7.36 1.472v9.196a2.512 2.512 0 0 0 4.288 1.777l4.073-4.074 6.183 5.442a2.49 2.49 0 0 0 2.43.505 2.492 2.492 0 0 0 1.677-1.83l5.906-25.778a2.507 2.507 0 0 0-.81-2.465zM10.344 15.467 2.512 13.9l21.93-8.619-14.098 10.186zm1.547 11.564v-7.445l3.96 3.485-3.96 3.96zm13.69 1.26L12.647 16.903 31.273 3.447 25.582 28.29z" fill="#0E0E0E" fill-opacity=".5"/></svg><svg fill="none" viewBox="0 0 584 604" id="title-img" xmlns="http://www.w3.org/2000/svg"><path d="M473.982 441.779 274.525 326.624c-17.49-10.022-45.787-10.022-63.08 0L13.363 441.779C4.716 446.692 0 453.373 0 460.644c0 7.271 4.716 13.952 13.56 18.865l199.457 115.155c8.646 5.109 20.24 7.664 31.638 7.467 11.398 0 22.795-2.555 31.442-7.467l95.307-55.416.393.196.393-.786 101.792-59.149c8.647-4.913 13.363-11.594 13.363-18.865 0-7.075-4.716-13.756-13.363-18.865zM275.114 592.895c-16.9 9.825-44.215 9.825-61.115 0L14.542 477.74c-8.057-4.716-12.577-10.808-12.577-17.293 0-6.485 4.323-12.576 12.38-17.096l95.897-55.809-.196.393 259.393 149.937-94.325 55.023zM473.196 477.74l-101.792 59.15-259.59-150.134 100.613-58.56c8.45-4.913 19.455-7.271 30.459-7.271 11.005 0 22.206 2.358 30.656 7.271L473 443.351c8.057 4.716 12.576 10.808 12.576 17.293 0 6.485-4.52 12.576-12.38 17.096z" fill="#A3A3A3"/><path d="m93.146 172.953.196 100.81 126.553-73.102-.197-100.81-126.552 73.102z" fill="url(#npaint0_linear)"/><path d="M141.88 183.958v5.503l54.63-33.407v-5.502l-54.63 33.406zm16.311 9.04v5.502l38.32-23.581v-5.306l-38.32 23.385zm-39.302 44.411v5.502l77.621-47.555v-5.502l-77.621 47.555zm0-20.438v5.503l26.725-16.311v-5.502l-26.725 16.31zm0-19.06v5.502l11.004-6.681v-5.503l-11.004 6.682zm0-21.224 77.425-47.555.196 5.502-77.621 47.556v-5.503z" fill="#fff"/><path d="m583.438 374.367-.393 99.041-99.041-56.792.197-99.237 99.237 56.988z" fill="url(#npaint1_linear)"/><path d="M571.648 406.202v5.109l-73.102-44.608v-5.109l73.102 44.608zm-.197 17.882v4.913l-72.905-44.411v-5.109l72.905 44.607zm-21.223 6.092v4.913l-38.713-23.778v-5.109l38.713 23.778v.196zm21.223-38.909-72.905-44.608v-5.109l72.905 44.608v5.109z" fill="#fff"/><path d="M556.517 289.474c4.323 2.555 7.86 8.647 7.86 13.756v33.014c0 6.092-4.323 8.45-9.432 5.502l-35.962-20.83c-5.306-2.948-9.432-10.415-9.432-16.31v-33.014c0-5.109 3.537-7.074 7.86-4.52l39.106 22.402z" fill="url(#npaint2_linear)"/><path d="M573.81 297.335v-2.752c0-.196 0-.196-.197-.393v-.393c0-.196 0-.196-.196-.393 0-.196 0-.196-.197-.393v-.196c0-.197-.196-.197-.196-.393 0 0 0-.197-.197-.197 0-.196-.196-.196-.196-.393 0-.196-.197-.196-.197-.393 0-.196-.196-.196-.196-.393 0-.196-.197-.196-.197-.393v-.196c0-.197-.196-.197-.196-.393-.197-.197-.197-.393-.393-.59a2.706 2.706 0 0 1-.59-.786c-.196-.196-.197-.393-.393-.393 0-.196-.197-.196-.393-.393l-.393-.393-.393-.393-.197-.196-.393-.393-.196-.197-.197-.196-.393-.393s-.196-.001-.196-.197h-.197c-.196 0-.196-.197-.393-.197l-.196-.196c-.197 0-.197-.197-.393-.197-.197 0-.197-.196-.393-.196l-39.106-22.599s-.196 0-.196-.196c-.197 0-.197-.197-.393-.197 0 0-.197 0-.197-.196-.196 0-.196 0-.393-.197-.196 0-.196 0-.393-.196h-2.947c-.197 0-.393 0-.393.196-.197 0-.393.197-.59.197l-9.433 5.502c.197-.196.394-.196.59-.196.197 0 .393-.197.393-.197h1.376c.196 0 .393 0 .589.197.197 0 .393.196.786.196.197 0 .59.197.786.393.197.197.59.197.786.393l39.106 22.599c.196.196.589.393.786.589.196.197.393.393.786.59l.589.589.59.59c.196.196.393.589.59.786.393.589.785.982 1.179 1.572.196.197.196.393.393.59 0 .196.196.196.196.393v.196c.197.197.197.59.393.786.197.393.393.59.393.983.197.393.197.589.393.982.197.393.197.59.393.983 0 .393.197.589.197.982s.196.59.196.983 0 .589.197.982v34.979c0 .393 0 .59-.197.786v.197c0 .196-.196.589-.196.786v.196c0 .197-.197.393-.197.59-.196.196-.196.393-.393.589-.196.393-.393.59-.589.786l-.197.197c-.196.196-.59.393-.786.589l9.433-5.502c.196-.196.589-.393.786-.589l.196-.197c.197-.196.393-.589.59-.786.196-.196.196-.393.393-.589 0-.197.196-.197.196-.394v-.589c0-.197 0-.393.197-.393v-35.175c.786-.983.786-1.179.786-1.179z" fill="url(#npaint3_linear)"/><path d="m532.346 255.871-3.537 2.162c-.197 0-.196.196-.393.393v.196l-.197.197s0 .196-.196.196v12.38l4.52-2.751v-12.773h-.197z" fill="url(#npaint4_linear)"/><path d="M546.299 259.998c5.109 2.947 9.432 10.218 9.236 16.114v11.004l-6.092-3.537v-11.005c0-2.161-1.572-4.716-3.341-5.698l-15.131-8.843c-1.769-.983-3.341-.197-3.341 1.965v11.004l-6.092-3.537v-11.004c0-5.896 4.127-8.254 9.433-5.306l15.328 8.843z" fill="url(#npaint5_linear)"/><path d="M560.644 273.361v11.004l-4.913 2.948v-11.987c0-.393 0-.786-.196-1.179 0-.393-.197-.786-.197-1.179v-.197a1.5 1.5 0 0 0-.393-.983c-.196-.393-.196-.786-.393-1.179-.196-.393-.196-.786-.393-.982-.197-.393-.393-.786-.59-.983v-.196c-.196-.393-.393-.59-.393-.786 0 0 0-.197-.196-.197a.423.423 0 0 0-.393-.393c-.197-.196-.197-.393-.393-.589-.197-.393-.393-.59-.59-.983-.196-.393-.589-.589-.786-.982-.196-.393-.589-.59-.786-.983l-.786-.786c-.196-.197-.589-.393-.786-.786-.196-.197-.589-.393-.786-.59-.393-.196-.589-.393-.982-.589l-15.132-8.843c-.393-.197-.589-.393-.982-.393-.393-.197-.59-.197-.983-.393-.196 0-.589-.197-.786-.197-.196 0-.589 0-.786-.196h-1.965c-.196 0-.393 0-.393.196l4.127-2.358c.196-.196.393-.196.786-.393.196 0 .393-.196.589-.196h2.751c.197 0 .197 0 .394.196h.196c.197 0 .197 0 .393.197.197 0 .197.196.393.196 0 0 .197 0 .197.197.196 0 .196.196.393.196 0 0 .196.197.393.197l15.131 8.843h.196c.197 0 .197.196.393.196.197 0 .197.197.393.197 0 0 .197.196.393.196l.393.393.197.197.196.196.394.393.196.197.196.196.393.393.197.197.393.393.393.393.393.393c.197.196.197.393.393.589.197.197.393.59.59.787v.196c.196.197.196.393.393.59 0 .196.196.196.196.393 0 0 0 .196.197.196 0 .197.196.393.196.393 0 .197.197.197.197.393 0 .197.196.393.196.393 0 .197.197.393.197.393 0 .197 0 .197.196.393 0 .197.197.393.197.393s0 .197.196.393c0 .197.197.393.197.393 0 .197.196.393.196.393 0 .197 0 .197.197.393 0 .197 0 .393.196.59v2.751c.59 1.179.59 1.376.59 1.376z" fill="#B8B8B8"/><path d="M560.644 273.361v11.004l-4.913 2.948v-11.987c0-.393 0-.786-.196-1.179 0-.393-.197-.786-.197-1.179v-.197a1.5 1.5 0 0 0-.393-.983c-.196-.393-.196-.786-.393-1.179-.196-.393-.196-.786-.393-.982-.197-.393-.393-.786-.59-.983v-.196c-.196-.393-.393-.59-.393-.786 0 0 0-.197-.196-.197a.423.423 0 0 0-.393-.393c-.197-.196-.197-.393-.393-.589-.197-.393-.393-.59-.59-.983-.196-.393-.589-.589-.786-.982-.196-.393-.589-.59-.786-.983l-.786-.786c-.196-.197-.589-.393-.786-.786-.196-.197-.589-.393-.786-.59-.393-.196-.589-.393-.982-.589l-15.132-8.843c-.393-.197-.589-.393-.982-.393-.393-.197-.59-.197-.983-.393-.196 0-.589-.197-.786-.197-.196 0-.589 0-.786-.196h-1.965c-.196 0-.393 0-.393.196l4.127-2.358c.196-.196.393-.196.786-.393.196 0 .393-.196.589-.196h2.751c.197 0 .197 0 .394.196h.196c.197 0 .197 0 .393.197.197 0 .197.196.393.196 0 0 .197 0 .197.197.196 0 .196.196.393.196 0 0 .196.197.393.197l15.131 8.843h.196c.197 0 .197.196.393.196.197 0 .197.197.393.197 0 0 .197.196.393.196l.393.393.197.197.196.196.394.393.196.197.196.196.393.393.197.197.393.393.393.393.393.393c.197.196.197.393.393.589.197.197.393.59.59.787v.196c.196.197.196.393.393.59 0 .196.196.196.196.393 0 0 0 .196.197.196 0 .197.196.393.196.393 0 .197.197.197.197.393 0 .197.196.393.196.393 0 .197.197.393.197.393 0 .197 0 .197.196.393 0 .197.197.393.197.393s0 .197.196.393c0 .197.197.393.197.393 0 .197.196.393.196.393 0 .197 0 .197.197.393 0 .197 0 .393.196.59v2.751c.59 1.179.59 1.376.59 1.376z" fill="url(#npaint6_linear)"/><path d="M532.542 292.225c2.752 1.572 5.11 5.502 5.11 8.647 0 1.965-.983 3.34-2.358 3.537l1.179 12.969-7.664-4.519 1.179-11.594c-1.376-1.769-2.358-4.127-2.358-6.289-.197-2.947 2.161-4.323 4.912-2.751z" fill="#430772"/><path d="m529.399 313.449 1.572-12.184c-1.376-1.769-2.358-4.127-2.358-6.288 0-1.965.786-3.145 1.965-3.538-1.769-.196-3.144 1.18-3.144 3.538 0 1.965.982 4.323 2.358 6.288l-1.179 11.594.786.59zm6.485 3.93.393.196v-.196h-.393z" fill="#6821AD"/><path d="m81.945 210.093-30.263 28.691.197 38.123c0 10.808 9.432 15.327 17.686 16.9 6.485 1.375 12.576.982 12.773.982 0 0 30.262-33.603 30.262-53.058l-.196-38.123-30.459 6.485z" fill="url(#npaint7_linear)"/><path d="M79.587 289.286c-2.162 0-5.503-.196-9.04-.982-13.166-2.751-13.166-9.236-13.166-11.398l-.196-35.568 27.314-25.939 22.01-4.52v31.048c.393 13.363-18.276 37.534-26.922 47.359z" fill="url(#npaint8_linear)"/><path d="m112.404 203.805-11.398-6.681-30.459 6.288-30.263 28.691.197 38.123v2.947c0 .197.197.59.197.786 0 .197.196.59.196.786 0 .393.197.59.393.983.197.197.197.59.393.786v.393c.197.59.59.983.786 1.376.197.393.393.589.59.982l.59.59c.196.393.589.589.785.786l.59.589c.393.393.786.59.982.786.197.197.393.197.59.393l1.768 1.179 11.398 6.682-1.769-1.179c-.196-.197-.393-.197-.59-.393-.392-.197-.785-.59-.982-.786l-.59-.59-.785-.786-.59-.589c-.196-.393-.393-.59-.59-.983-.392-.59-.589-.983-.982-1.572v-.197c-.59-1.179-.982-2.554-1.179-3.93v-.196c-.197-.786-.197-1.572-.197-2.358l-.196-38.123 30.263-28.691 30.852-6.092z" fill="url(#npaint9_linear)"/><path d="m93.342 233.282-12.576 22.009-6.878-2.947-3.93 6.485 10.611 6.288 17.293-29.673-4.52-2.162z" fill="#fff"/><path d="M409.724 192.801c43.428 25.153 43.625 65.83.589 90.984-43.232 25.153-113.386 25.153-157.011 0-43.429-25.154-43.626-65.831-.59-90.984 43.232-25.154 113.386-25.154 157.012 0z" fill="url(#npaint10_linear)"/><path d="M410.117 280.641c-43.232 25.153-113.386 25.153-157.011 0-21.223-12.184-32.031-28.101-32.621-44.215-.59 17.096 10.218 34.193 32.621 47.162 43.428 25.153 113.779 25.153 157.011 0 22.206-12.969 32.817-29.869 32.228-46.769-.59 15.917-11.398 31.638-32.228 43.822z" fill="url(#npaint11_linear)"/><path d="M387.911 205.377c31.442 18.079 31.638 47.556.393 65.831-31.245 18.079-82.141 18.079-113.582 0-31.442-18.079-31.638-47.555-.393-65.831 31.441-18.275 82.141-18.275 113.582 0z" fill="url(#npaint12_linear)"/><path d="M274.525 212.255c31.245-18.079 82.141-18.079 113.583 0 14.345 8.253 22.009 18.865 23.385 29.476 1.768-13.166-6.092-26.529-23.385-36.551-31.442-18.079-82.338-18.079-113.583 0-17.096 10.022-24.76 23.188-22.992 36.355 1.179-10.612 8.843-21.027 22.992-29.28z" fill="url(#npaint13_linear)"/><path d="m442.345 238.391-.197 74.085c1.769 17.685-8.843 35.568-32.031 49.127-43.232 25.153-113.386 25.153-157.012 0-21.812-12.577-32.817-29.28-32.817-45.787h-.196l.196-78.014c0 16.507 11.005 33.013 32.817 45.59 43.429 25.153 113.78 25.153 157.012 0 21.42-12.184 32.228-28.494 32.228-45.001z" fill="url(#npaint14_linear)"/><path d="M442.345 287.715c-.786 15.721-11.594 31.245-32.228 43.232-43.232 25.154-113.386 25.154-157.011 0-21.813-12.576-32.817-29.28-32.817-45.786v-15.132c0 16.507 11.004 33.014 32.817 45.591 43.428 25.153 113.779 25.153 157.011 0 20.044-11.594 30.656-26.529 32.031-41.857v7.86c0 .59.197 1.376.197 1.965v4.127z" fill="url(#npaint15_linear)"/><path d="M411.492 234.854V.811H251.337v233.846c-1.769 13.167 6.091 26.529 23.384 36.551 31.442 18.079 82.338 18.079 113.583 0 17.096-10.022 24.76-23.384 23.188-36.354z" fill="url(#npaint16_linear)"/><path d="M368.064 153.695v-1.769c0-.393 0-.982-.197-1.375v-.197c0-.589-.196-.982-.196-1.572v-.393c0-.196 0-.393-.197-.786v-.589c0-.197 0-.393-.196-.786v-.59c0-.196 0-.589-.197-.786v-.393c0-.393-.196-.589-.196-.982v-.393c-.197-.59-.197-1.376-.393-1.966v-.196c-.197-.59-.393-1.179-.393-1.769v-.393c-.197-.589-.393-1.179-.393-1.572v-.196c-.197-.59-.393-.983-.393-1.572v-.197c-.197-.589-.393-.982-.59-1.572 0-.196 0-.196-.196-.393-.197-.393-.393-.983-.59-1.376v-.196c-.196-.393-.393-.983-.589-1.376 0-.196-.197-.196-.197-.393l-.59-1.179s.001-.196-.196-.196c-.197-.393-.393-.983-.59-1.376 0-.196-.196-.196-.196-.393l-.59-1.179c0-.196-.196-.196-.196-.393-.197-.393-.393-.982-.786-1.375v-.197l-.59-1.179c0-.197-.196-.197-.196-.393l-.59-1.179s0-.197-.196-.197c-.197-.393-.59-.982-.786-1.375 0-.197-.197-.197-.197-.393-.196-.393-.393-.786-.786-1.179l-.196-.197c-.197-.393-.59-.982-.786-1.375l-.197-.197c-.196-.393-.589-.786-.786-1.179l-.196-.196c-.393-.393-.59-.983-.983-1.376l-.197-.196c-.393-.59-.786-.983-.982-1.573-.393-.393-.786-.982-1.179-1.375l-.197-.197c-.393-.589-.786-1.179-1.375-1.572l-.197-.196c-.393-.59-.786-.983-1.375-1.572 0-.197-.197-.197-.197-.393-.196-.197-.393-.393-.589-.786l-.393-.393c-.197-.393-.59-.59-.786-.983l-.983-.983-.196-.196-.59-.59-.197-.196c-.393-.393-.785-.786-1.375-1.179l-.197-.197-1.179-1.179-.196-.196c-.393-.393-.786-.786-1.376-1.18l-.196-.196c-.393-.393-.786-.786-1.376-.982l-.196-.197c-.393-.393-.786-.59-1.376-.982h-.196c-.393-.393-.983-.59-1.376-.983l-.196-.196c-.393-.394-.983-.59-1.376-.983l-.197-.197c-.393-.392-.982-.589-1.375-.785l-1.179-.59c-.197 0-.197-.197-.393-.197-.393-.196-.59-.393-.983-.393-.196 0-.196-.196-.393-.196l-1.179-.59h-.196c-.393-.196-.59-.196-.983-.393-.196 0-.196-.196-.393-.196-.196 0-.393-.197-.589-.197-.197 0-.197 0-.393-.196-.197 0-.394-.197-.787-.197 0 0-.196 0-.196-.196-.393-.197-.59-.197-.983-.393h-.196c-.197 0-.59-.197-.786-.197-.197 0-.393 0-.393-.196h-.393c-.197 0-.393 0-.59-.197h-.393c-.196 0-.393 0-.589-.196h-.197c-.196 0-.589 0-.786-.197-.393 0-.786-.196-1.179-.196h-4.913c-.393 0-.589 0-.982.196h-.197c-.196 0-.589 0-.786.197h-.196c-.393 0-.59.196-.983.196-.196 0-.589.197-.786.197h-.196c-.197 0-.393.196-.786.196h-.197c-.196.197-.589.197-.786.393 0 0-.196 0-.196.197-.197.196-.393.196-.59.393-.196 0-.196.196-.393.196l14.542-8.45s.196 0 .196-.196h.197c.196-.197.393-.197.589-.393 0 0 .197 0 .197-.197.196-.196.589-.196.786-.393h.196c.197 0 .393-.196.786-.196h.197c.196 0 .59-.197.786-.197.393 0 .59-.196.983-.196h.196c.197 0 .59-.197.786-.197h.197c.393 0 .589-.196.982-.196h4.913c.393 0 .786 0 1.179.196.197 0 .589 0 .786.197h.197c.196 0 .393 0 .589.196h.393c.197 0 .393 0 .59.197h.982c.197 0 .59.196.786.196h.197c.393.197.589.197.982.393 0 0 .197 0 .197.197.196 0 .393.196.786.196.196 0 .196 0 .393.197.196 0 .393.196.589.196h.393c.393.197.59.197.983.393h.196l1.18.59c.196 0 .196.197.392.197.393.196.59.392.983.392.197 0 .197.197.393.197l1.179.59c.393.196.983.59 1.376.786l.196.196c.393.197.983.59 1.376.983l.196.196c.393.393.983.59 1.376.983h.196c.393.393.983.59 1.376.982l.196.197c.393.393.983.786 1.376.982l.197.197c.393.393.786.786 1.375 1.179l.197.196 1.179 1.18.196.196c.393.393.786.786 1.376 1.179l.196.197s0 .196.197.196l.589.59.197.196.982.983c.197.393.59.59.786.982l.393.393c.197.197.393.393.59.786l.197.197.196.196c.393.59.983.983 1.376 1.572l.196.197c.393.589.786.982 1.376 1.572 0 0 0 .196.196.196.393.393.786.983 1.179 1.376.393.59.786.983.983 1.572 0 0 0 .197.196.197v.196c.393.393.59.983.983 1.376l.196.196c.197.393.59.786.786 1.179 0 0 0 .197.197.197v.196c.196.393.589.983.786 1.376l.196.196c.197.393.393.786.786 1.179 0 0 .001.197.197.197v.196c.197.393.589.983.786 1.376 0 0 0 .196.197.196l.589 1.18s0 .196.197.196v.197l.589 1.179v.196c.197.393.393.983.59 1.376v.196s0 .197.196.197l.59 1.179c0 .196.196.196.196.393.197.393.393.982.59 1.375v.197l.589 1.179c0 .196.197.196.197.393.196.393.393.983.589 1.376v.196c.197.393.393.983.59 1.376 0 .196 0 .196.196.393.197.589.393.982.59 1.572v.196c.196.59.393.983.393 1.572v.197c.196.589.393 1.179.393 1.572v.393c.196.589.393 1.179.393 1.769v.196c.196.59.393 1.376.393 1.965v.197c0 .393.196.589.196.982v.393c0 .197.001.59.197.786v.393c0 .197 0 .393.196.786v.59c0 .196 0 .393.197.786v.393c0 .589.197.982.197 1.572v.196c0 .394-.001.983.196 1.376v3.734c0 11.594-4.127 19.651-10.808 23.581l-14.542 8.45c6.682-3.734 10.612-11.987 10.808-23.581v-1.572c-.196 0-.196 0-.196-.197z" fill="url(#npaint17_linear)"/><path d="M331.513 92.187c-20.241-11.79-36.747-2.358-36.747 21.027s16.31 51.682 36.55 63.473c20.241 11.79 36.748 2.358 36.748-21.027s-16.31-51.682-36.551-63.473z" fill="url(#npaint18_linear)"/><path d="M331.513 102.209c-15.524-8.843-28.101-1.768-28.101 16.114 0 17.883 12.38 39.499 27.904 48.342 15.525 9.039 28.101 1.768 28.101-16.114 0-17.686-12.38-39.499-27.904-48.342z" fill="url(#npaint19_linear)"/><path opacity=".25" d="M305.574 122.253c0-17.882 12.577-24.956 28.101-16.113 7.074 4.126 13.363 10.808 18.275 18.471-5.109-9.432-12.576-17.685-20.633-22.402-15.525-8.843-28.101-1.768-28.101 16.114 0 9.629 3.734 20.634 9.629 29.87-4.52-8.45-7.271-17.686-7.271-25.94z" fill="#60042E"/><path d="M258.411 93.563c.394 0 .787-.196 1.18-.196h.196c.393 0 .786-.197.983-.197h.196c.393 0 .786-.196 1.179-.196h.393c.197 0 .393 0 .59-.197.196 0 .196 0 .393-.196.196 0 .393-.197.589-.197.197 0 .197 0 .393-.196.197 0 .393-.197.59-.197.196 0 .196 0 .393-.196.196 0 .393-.197.589-.197h.197c.393-.197.982-.393 1.375-.59h.197a9.682 9.682 0 0 1 1.376-.589h.196l1.179-.59h.197c.393-.196.786-.393.982-.59h.197c.393-.196.786-.392.982-.589 0 0 .197 0 .197-.196.393-.197.589-.393.982-.59h.197c.393-.196.589-.393.982-.59l.197-.196c.196-.196.589-.393.786-.59 0 0 .196 0 .196-.196.393-.196.59-.393.983-.59 0 0 .196 0 .196-.196.197-.196.59-.393.787-.59l.196-.196c.393-.196.59-.393.983-.59h.196c.197-.196.59-.392.786-.589l.197-.196c.196-.197.589-.393.786-.59l.196-.196c.393-.197.59-.393.983-.787l.196-.196c.197-.197.59-.393.786-.59l.197-.196c.393-.197.589-.59.982-.786l.197-.197c.196-.196.589-.393.786-.786 0 0 .196 0 .196-.196.393-.197.59-.59.983-.786l.196-.197.983-.982.983-.983.196-.196c.393-.393.786-.786.983-1.18l.196-.196c.393-.393.59-.786.983-1.179l.196-.196c.197-.197.197-.393.393-.59l.197-.196c.196-.197.393-.394.589-.787.197-.196.393-.589.59-.785l.196-.197c.197-.197.197-.393.393-.59l.197-.196c.196-.393.589-.786.786-.983v-.196c.196-.393.393-.59.786-.983v-.196c.196-.393.393-.786.589-.983 0 0 0-.196.197-.196.196-.393.393-.786.589-.983v-.196c.197-.393.393-.786.59-.983l.59-1.179s0-.197.196-.197l.59-1.178v-.197c.196-.393.393-.786.393-1.18.196-.392.196-.589.393-.982v-.196c0-.197.196-.393.196-.59v-.196c0-.197.197-.59.197-.786v-.197c0-.196.196-.393.196-.786v-.196c0-.197 0-.393.197-.59v-.196c0-.197 0-.393.196-.59v-.196c0-.197 0-.59.197-.786V47.58c0-.197 0-.59-.197-.786v-.197c0-.196 0-.393-.196-.59v-.196c0-.196-.197-.393-.197-.59v-.196c0-.196-.196-.393-.196-.59v-.196c0-.196-.197-.393-.197-.59 0-.196-.196-.392-.196-.589v-.197c0-.196-.197-.392-.197-.392v-.197c-.196-.197-.196-.393-.393-.59v-.196l-.393-.393-.196-.197 7.663 9.63.197.196.393.393v.197c.196.196.196.392.393.589 0 .197.196.393.196.393v.197c0 .196.197.393.197.59 0 .196.197.392.197.589v.196c0 .197.196.393.196.59v.196c0 .197.197.393.197.59v.196c0 .197-.001.393.196.59v.196c0 .197 0 .59.197.786v5.896c0 .196 0 .59-.197.786v.196c0 .197 0 .393-.196.59v.196c0 .197 0 .393-.197.59v.393c0 .196-.196.393-.196.786v.196c0 .197-.197.59-.197.786v.197c0 .196-.197.393-.197.59v.196c-.196.393-.196.59-.392.982-.197.393-.394.786-.394 1.18v.196l-.589 1.179s0 .197-.197.197l-.589 1.179c-.197.393-.393.786-.59.982v.197c-.196.393-.393.786-.589.982 0 0 0 .197-.197.197-.196.393-.393.786-.589.982v.197c-.197.393-.393.59-.786.982v.197c-.197.393-.59.786-.786.982v.393c-.197.197-.197.393-.393.59l-.197.196c-.196.197-.393.59-.589.787a2.713 2.713 0 0 0-.59.785l-.196.197c-.197.197-.197.393-.393.59l-.197.196c-.393.393-.589.786-.982 1.18l-.197.196c-.393.393-.59.786-.983 1.179l-.196.196-.983.983-.982.982-.197.197c-.196.196-.589.59-.982.786 0 0-.197 0-.197.196-.196.197-.589.393-.786.786l-.196.197c-.197.196-.59.59-.983.786l-.196.197c-.197.196-.59.392-.786.589l-.197.197c-.393.196-.589.392-.982.786l-.197.196c-.196.197-.589.393-.786.59h-.393c-.196.196-.59.393-.786.59h-.197c-.393.196-.589.392-.982.589h-.197s-.196 0-.196.196c-.197.197-.59.393-.786.59 0 0-.197 0-.197.196-.393.197-.589.393-.982.59h-.197c-.196.196-.589.393-.786.59l-.196.196c-.393.196-.59.393-.983.59h-.196c-.393.196-.59.392-.983.589 0 0-.196 0-.196.196-.393.197-.786.393-.983.59h-.196c-.393.196-.786.393-.983.59h-.197l-1.179.589h-.393a9.488 9.488 0 0 1-1.375.589h-.197c-.393.197-.982.393-1.375.59h-.197c-.196 0-.393.197-.589.197-.197 0-.197 0-.393.196-.197 0-.393.197-.59.197-.196 0-.196 0-.393.196-.196 0-.393.197-.589.197-.197 0-.197 0-.393.196-.197 0-.393 0-.59.197h-.393c-.393.196-.786.196-1.179.196h-.197c-.393 0-.786.197-.982.197h-.197c-.393 0-.786.196-1.179.196h-.196c-.393 0-.786.197-1.179.197-8.254 1.179-14.542-.983-18.079-5.306l-7.664-9.63c3.341 4.324 9.629 6.486 18.079 5.307.393 0 .786-.197 1.179-.197.393.393.589.393.589.393z" fill="url(#npaint20_linear)"/><path d="M298.892 60.942c6.288-15.72-2.162-26.725-18.865-24.367-16.703 2.358-35.568 17.096-41.857 32.817-6.288 15.721 2.162 26.726 18.865 24.368 16.704-2.359 35.569-17.097 41.857-32.818z" fill="url(#npaint21_linear)"/><path d="M291.621 61.925c4.913-11.987-1.572-20.437-14.345-18.668-12.773 1.768-27.118 12.97-32.031 25.153-4.913 11.987 1.572 20.437 14.345 18.668 12.97-1.768 27.315-13.166 32.031-25.153z" fill="url(#npaint22_linear)"/><path opacity=".25" d="M274.721 45.418c12.773-1.768 19.258 6.485 14.345 18.669-2.161 5.502-6.288 10.808-11.397 15.13 6.288-4.715 11.398-10.807 13.952-17.292 4.913-11.987-1.572-20.437-14.345-18.668-7.074.982-14.345 4.716-20.437 10.022 5.502-4.127 11.79-7.075 17.882-7.86z" fill="#60042E"/><path d="M388.108 46.204c-.393.197-.59.393-.983.393h-.196c-.197.197-.59.197-.786.393h-.197c-.393.197-.589.393-.982.393 0 0-.197 0-.197.197-.196 0-.197.196-.393.196-.197 0-.196 0-.393.197-.196 0-.393.196-.393.196-.196 0-.197 0-.393.197-.197 0-.393.196-.393.196s-.197 0-.197.197c-.196 0-.393.196-.589.196h-.197c-.393.197-.786.197-1.179.393h-.196c-.393.197-.786.197-1.179.393h-.197c-.393.197-.786.197-.982.197h-.197c-.393 0-.589.196-.982.196h-.197c-.393 0-.589.197-.982.197h-.197c-.393 0-.589.196-.983.196h-.196c-.393 0-.59.197-.983.197h-.196c-.196 0-.59 0-.786.196h-.197c-.393 0-.589 0-.982.197h-11.791c-.393 0-.786 0-1.179-.197h-.196c-.393 0-.983-.196-1.376-.196h-.196c-.393 0-.786-.197-1.376-.197h-.197c-.196 0-.393 0-.589-.196h-.196c-.197 0-.59-.197-.787-.197-.196 0-.589-.196-.786-.196h-.196c-.197 0-.393 0-.59-.197h-.196c-.393 0-.786-.196-1.179-.393h-.197c-.393-.196-.786-.196-.982-.393h-.197c-.393-.196-.786-.196-.982-.393h-.197c-.393-.196-.786-.196-.982-.393h-.197c-.393-.196-.589-.196-.982-.393s-.59-.197-.983-.393h-.197c-.393-.197-.589-.393-.982-.393h-.197c-.393-.197-.589-.393-.982-.59-.197-.196-.59-.196-.786-.392 0 0-.197 0-.197-.197-.196-.197-.393-.197-.589-.393 0 0-.197 0-.197-.197-.196-.196-.393-.393-.786-.393h-.196c-.197-.196-.393-.196-.59-.393l-.196-.196c-.197 0-.197-.197-.393-.197l-.197-.196-.393-.393s-.196 0-.196-.197c-.197-.196-.393-.393-.59-.393l-.393-.393-.196-.196-.197-.197-.196-.196-.197-.197-.196-.196-.197-.197-.393-.393-.589-.59v-.196c-.197-.196-.394-.393-.394-.59v-.196c-.196-.196-.196-.393-.393-.59v-.196c-.196-.196-.196-.393-.393-.59v-.196c0-.197-.196-.393-.196-.393v-.197c0-.196-.197-.392-.197-.589v-.197c0-.196-.196-.392-.196-.392v-.197c0-.197-.197-.393-.197-.59 0-.196 0-.393-.196-.59v-2.161l.196 11.005v1.965c0 .196 0 .393.197.59 0 .196.196.392.196.589v.197c0 .196.197.393.197.393 0 .196.196.393.196.59v.196c0 .196.197.393.197.393.196.196.196.393.393.59v.196c.197.196.196.393.393.59.196.196.196.392.393.589v.196l.589.59.394.393.196.196.197.197.196.196.197.197.196.196.197.197.393.393c.196.196.393.393.589.393 0 0 .197 0 .197.196l.393.393.196.197c.197 0 .197.196.393.196h.197c.196.197.393.197.589.393h.197c.196.197.393.393.786.393 0 0 .196 0 .196.197.197.197.393.197.59.393 0 0 .196 0 .196.197.197.196.59.196.786.392.393.197.59.394.983.59h.197c.393.197.589.393.982.393h.197c.393.197.589.393.982.393.393.197.59.197.983.393h.196c.393.197.786.197.983.393h.196c.393.197.786.197.983.393h.196c.393.197.786.197.983.393h.196c.393.197.786.197 1.179.393h.393c.197 0 .393 0 .59.197h.196c.197 0 .59.196.786.196.197 0 .59.197.787.197h.196c.197 0 .393 0 .59.196h.393c.393 0 .786.197 1.375.197h.197c.393 0 .982.196 1.375.196h.197c.393 0 .786 0 1.179.197h12.576c.393 0 .59 0 .983-.197h.197c.196 0 .589 0 .785-.196h.197c.393 0 .59-.197.983-.197h.196c.393 0 .59-.196.983-.196h.196c.393 0 .786-.197.983-.197.393 0 .589-.196.982-.196h.197c.393 0 .786-.197.982-.197h.393c.393-.196.786-.196 1.179-.393h.197c.393-.196.786-.196 1.179-.393h.196c.197 0 .394-.196.59-.196 0 0 .197 0 .197-.197.196 0 .393-.196.393-.196.196 0 .196 0 .393-.197.196 0 .393-.196.393-.196.196 0 .196 0 .393-.197.196 0 .196-.196.393-.196h.393c.393-.197.589-.197.982-.393h.197c.196-.197.589-.197.786-.394h.196c.393-.196.59-.392.983-.392 0 0 .196 0 .196-.197.393-.197.59-.393.983-.59 6.485-3.93 9.629-9.039 9.629-13.952l-.197-11.004c.197 4.912-3.144 10.022-9.629 13.952-1.768 1.179-1.965 1.376-2.554 1.572.196 0 .196 0 0 0z" fill="url(#npaint23_linear)"/><path d="M341.338 46.794c-13.559-7.271-13.755-19.848-.786-27.708 12.97-8.057 34.586-8.45 47.949-1.18 13.559 7.272 13.755 19.848.786 27.709-12.97 8.057-34.586 8.45-47.949 1.179z" fill="url(#npaint24_linear)"/><path d="M346.84 43.257c-10.218-5.7-10.611-15.132-.589-21.223 10.022-6.092 26.332-6.485 36.551-.787 10.218 5.7 10.611 15.132.589 21.224-9.825 6.091-26.136 6.484-36.551.786z" fill="url(#npaint25_linear)"/><path opacity=".25" d="M349.198 22.034c-10.022 6.092-9.629 15.524.59 21.223 4.716 2.555 10.612 3.93 16.703 3.93-7.074.393-14.148-.982-19.651-3.93-10.218-5.699-10.611-15.131-.589-21.223 5.502-3.34 12.773-4.913 20.044-4.913-6.288.393-12.38 1.965-17.097 4.913z" fill="#60042E"/><g opacity=".68"><path opacity=".68" d="M291.425 45.025v233.258c-5.896-1.965-11.398-4.52-16.507-7.271-.393-.197-.786-.393-1.179-.786v-225.2h17.686z" fill="url(#npaint26_linear)"/><path opacity=".68" d="M345.268 45.025v238.957c-9.629.982-19.258.982-28.887-.197V45.025h28.887z" fill="url(#npaint27_linear)"/><path opacity=".68" d="M396.361 70.769v194.937a90.664 90.664 0 0 1-7.86 5.306c-2.751 1.572-5.503 2.948-8.45 4.324V70.965h16.31v-.196z" fill="url(#npaint28_linear)"/></g><path d="m445.489 507.61-77.032 44.804-77.621-44.804 77.032-44.804 77.621 44.804z" fill="url(#npaint29_linear)"/><path d="m445.489 507.61-77.032 44.804-77.621-44.804 2.162-1.376 75.459 43.626 74.871-43.626 2.161 1.376z" fill="#fff"/><path d="m417.782 507.61-49.521 28.69-49.717-28.69 49.324-28.887 49.914 28.887z" fill="url(#npaint30_linear)"/><path d="m368.457 552.415-77.621-44.805-.197 42.25 77.622 44.804 77.032-44.804.196-42.25-77.032 44.805z" fill="url(#npaint31_linear)"/><path d="m445.293 524.706-77.032 44.804-77.425-44.804-.197 7.271 77.622 44.804 77.032-44.804v-7.271z" fill="url(#npaint32_linear)"/><path d="m318.544 507.61 6.485 3.733 42.839-24.956v-7.664l-49.324 28.887zm49.324-28.887v7.664l43.429 24.956 6.485-3.733-49.914-28.887z" fill="#7626D3"/><path d="M319.133 394.813V508.2l49.913 28.69 49.521-28.69V394.813h-99.434z" fill="url(#npaint33_linear)"/><path d="m187.864 350.402-77.228 44.804-77.425-44.804 77.032-44.804 77.621 44.804z" fill="url(#npaint34_linear)"/><path d="m187.864 350.402-77.228 44.804-77.425-44.804 2.161-1.179 75.264 43.428 74.87-43.428 2.358 1.179z" fill="#fff"/><path d="m160.156 350.402-49.521 28.887-49.913-28.887 49.52-28.69 49.914 28.69z" fill="url(#npaint35_linear)"/><path d="M110.635 395.207 33.21 350.402l-.196 42.25 77.621 44.804 77.032-44.804.197-42.25-77.229 44.805z" fill="url(#npaint36_linear)"/><path d="m187.667 367.694-77.032 44.805-77.621-44.805v7.075l77.621 44.804 77.032-44.804v-7.075z" fill="url(#npaint37_linear)"/><path d="m60.722 350.402 6.681 3.931 42.839-24.957v-7.664l-49.52 28.69z" fill="#7626D3"/><path d="M110.242 321.712v7.664l43.232 24.957 6.682-3.931-49.914-28.69z" fill="#7626D3"/><path d="M62.294 238.391v113.386l49.914 28.69 49.52-28.69V238.391H62.294z" fill="url(#npaint38_linear)"/><path d="m198.083 516.846-77.032 44.805-77.621-44.805 77.032-44.804 77.621 44.804z" fill="url(#npaint39_linear)"/><path d="m198.083 516.846-77.032 44.805-77.621-44.805 2.161-1.375 75.46 43.625 74.87-43.625 2.162 1.375z" fill="#fff"/><path d="m170.375 516.846-49.52 28.69-49.717-28.69 49.52-28.887 49.717 28.887z" fill="url(#npaint40_linear)"/><path d="M121.051 561.651 43.43 516.847v42.249l77.425 44.805 77.228-44.805v-42.249l-77.032 44.804z" fill="url(#npaint41_linear)"/><path d="m198.083 533.942-77.228 44.805-77.425-44.805v7.271l77.425 44.805 77.228-44.805v-7.271z" fill="url(#npaint42_linear)"/><path d="m71.138 516.846 6.484 3.734 43.036-24.957v-7.664l-49.52 28.887zm49.52-28.887v7.664l43.232 24.957 6.485-3.734-49.717-28.887z" fill="#7626D3"/><path d="M71.138 403.46v113.386l49.717 28.691 49.52-28.691V403.46H71.138z" fill="url(#npaint43_linear)"/><defs><linearGradient id="npaint0_linear" x1="172.11" y1="221.888" x2="123.674" y2="112.828" gradientUnits="userSpaceOnUse"><stop stop-color="#454545" stop-opacity="0"/><stop offset="1" stop-color="#fff"/></linearGradient><linearGradient id="npaint1_linear" x1="518.872" y1="428.809" x2="564.946" y2="325.069" gradientUnits="userSpaceOnUse"><stop stop-color="#3C3C3C" stop-opacity="0"/><stop offset="1" stop-color="#fff"/></linearGradient><linearGradient id="npaint2_linear" x1="566.215" y1="338.289" x2="489.43" y2="249.429" gradientUnits="userSpaceOnUse"><stop stop-color="#FEAB2A"/><stop offset="1" stop-color="#FFFF15"/></linearGradient><linearGradient id="npaint3_linear" x1="602.387" y1="362.722" x2="502.27" y2="231.916" gradientUnits="userSpaceOnUse"><stop stop-color="#A827C7"/><stop offset="1" stop-color="#FFD215"/></linearGradient><linearGradient id="npaint4_linear" x1="530.083" y1="278.296" x2="530.083" y2="257.333" gradientUnits="userSpaceOnUse"><stop stop-color="#A827C7"/><stop offset="1" stop-color="#F91C76"/></linearGradient><linearGradient id="npaint5_linear" x1="553.366" y1="291.226" x2="519.973" y2="241.23" gradientUnits="userSpaceOnUse"><stop stop-color="#FEAB2A"/><stop offset="1" stop-color="#FFFF15"/></linearGradient><linearGradient id="npaint6_linear" x1="554.439" y1="291.235" x2="534.944" y2="238.913" gradientUnits="userSpaceOnUse"><stop stop-color="#A827C7"/><stop offset="1" stop-color="#FFD215"/></linearGradient><linearGradient id="npaint7_linear" x1="125.547" y1="288.586" x2="52.477" y2="212.678" gradientUnits="userSpaceOnUse"><stop stop-color="#FEAB2A"/><stop offset="1" stop-color="#FFFF15"/></linearGradient><linearGradient id="npaint8_linear" x1="119.908" y1="285.053" x2="60.518" y2="223.356" gradientUnits="userSpaceOnUse"><stop stop-color="#A827C7"/><stop offset="1" stop-color="#FFD215"/></linearGradient><linearGradient id="npaint9_linear" x1="28.977" y1="307.197" x2="89.1" y2="193.868" gradientUnits="userSpaceOnUse"><stop stop-color="#A827C7"/><stop offset="1" stop-color="#FFD215"/></linearGradient><linearGradient id="npaint10_linear" x1="448.528" y1="316.917" x2="231.275" y2="170.865" gradientUnits="userSpaceOnUse"><stop stop-color="#430772"/><stop offset="1" stop-color="#914DF4"/></linearGradient><linearGradient id="npaint11_linear" x1="220.46" y1="269.476" x2="442.365" y2="269.476" gradientUnits="userSpaceOnUse"><stop offset=".017" stop-color="#C21EF7"/><stop offset="1" stop-color="#FFFDFE"/></linearGradient><linearGradient id="npaint12_linear" x1="407.84" y1="288.407" x2="226.986" y2="169.561" gradientUnits="userSpaceOnUse"><stop stop-color="#A827C7"/><stop offset="1" stop-color="#FFD215"/></linearGradient><linearGradient id="npaint13_linear" x1="328.588" y1="261.444" x2="349.747" y2="87.136" gradientUnits="userSpaceOnUse"><stop stop-color="#430772"/><stop offset=".965" stop-color="#914DF4"/></linearGradient><linearGradient id="npaint14_linear" x1="497.36" y1="434.141" x2="263.132" y2="226.33" gradientUnits="userSpaceOnUse"><stop stop-color="#430772"/><stop offset=".965" stop-color="#914DF4"/></linearGradient><linearGradient id="npaint15_linear" x1="466.009" y1="408.628" x2="274.556" y2="238.768" gradientUnits="userSpaceOnUse"><stop stop-color="#A827C7"/><stop offset="1" stop-color="#FFD215"/></linearGradient><linearGradient id="npaint16_linear" x1="331.41" y1="263.109" x2="331.41" y2="-5.296" gradientUnits="userSpaceOnUse"><stop stop-color="#FFD215"/><stop offset=".042" stop-color="#FFD527" stop-opacity=".958"/><stop offset=".188" stop-color="#FFE05F" stop-opacity=".813"/><stop offset=".333" stop-color="#FFEA90" stop-opacity=".667"/><stop offset=".477" stop-color="#FFF1B8" stop-opacity=".523"/><stop offset=".617" stop-color="#FFF7D7" stop-opacity=".383"/><stop offset=".752" stop-color="#FFFCED" stop-opacity=".247"/><stop offset=".882" stop-color="#FFFEFA" stop-opacity=".118"/><stop offset="1" stop-color="#fff" stop-opacity="0"/></linearGradient><linearGradient id="npaint17_linear" x1="310.816" y1="181.339" x2="362.225" y2="91.46" gradientUnits="userSpaceOnUse"><stop stop-color="#A827C7"/><stop offset="1" stop-color="#FFD215"/></linearGradient><linearGradient id="npaint18_linear" x1="312.399" y1="165.186" x2="343.874" y2="114.127" gradientUnits="userSpaceOnUse"><stop stop-color="#FEAB2A"/><stop offset="1" stop-color="#FFFF15"/></linearGradient><linearGradient id="npaint19_linear" x1="307.064" y1="158.714" x2="349.031" y2="116.748" gradientUnits="userSpaceOnUse"><stop stop-color="#A827C7"/><stop offset="1" stop-color="#FFD215"/></linearGradient><linearGradient id="npaint20_linear" x1="232.581" y1="55.214" x2="302.587" y2="82.947" gradientUnits="userSpaceOnUse"><stop stop-color="#A827C7"/><stop offset="1" stop-color="#FFD215"/></linearGradient><linearGradient id="npaint21_linear" x1="244.372" y1="54.687" x2="284.376" y2="72.076" gradientUnits="userSpaceOnUse"><stop stop-color="#FEAB2A"/><stop offset="1" stop-color="#FFFF15"/></linearGradient><linearGradient id="npaint22_linear" x1="248.48" y1="50.179" x2="283.021" y2="76.059" gradientUnits="userSpaceOnUse"><stop stop-color="#A827C7"/><stop offset="1" stop-color="#FFD215"/></linearGradient><linearGradient id="npaint23_linear" x1="384.167" y1="4.765" x2="351.364" y2="64.177" gradientUnits="userSpaceOnUse"><stop stop-color="#A827C7"/><stop offset="1" stop-color="#FFD215"/></linearGradient><linearGradient id="npaint24_linear" x1="375.662" y1="11.156" x2="357.8" y2="46.178" gradientUnits="userSpaceOnUse"><stop stop-color="#FEAB2A"/><stop offset="1" stop-color="#FFFF15"/></linearGradient><linearGradient id="npaint25_linear" x1="370.221" y1="10.375" x2="361.025" y2="48.172" gradientUnits="userSpaceOnUse"><stop stop-color="#A827C7"/><stop offset="1" stop-color="#FFD215"/></linearGradient><linearGradient id="npaint26_linear" x1="282.469" y1="351.612" x2="282.469" y2="66.923" gradientUnits="userSpaceOnUse"><stop stop-color="#FFD215"/><stop offset=".042" stop-color="#FFD527" stop-opacity=".958"/><stop offset=".188" stop-color="#FFE05F" stop-opacity=".813"/><stop offset=".333" stop-color="#FFEA90" stop-opacity=".667"/><stop offset=".477" stop-color="#FFF1B8" stop-opacity=".523"/><stop offset=".617" stop-color="#FFF7D7" stop-opacity=".383"/><stop offset=".752" stop-color="#FFFCED" stop-opacity=".247"/><stop offset=".882" stop-color="#FFFEFA" stop-opacity=".118"/><stop offset="1" stop-color="#fff" stop-opacity="0"/></linearGradient><linearGradient id="npaint27_linear" x1="330.837" y1="351.612" x2="330.837" y2="66.921" gradientUnits="userSpaceOnUse"><stop stop-color="#FFD215"/><stop offset=".042" stop-color="#FFD527" stop-opacity=".958"/><stop offset=".188" stop-color="#FFE05F" stop-opacity=".813"/><stop offset=".333" stop-color="#FFEA90" stop-opacity=".667"/><stop offset=".477" stop-color="#FFF1B8" stop-opacity=".523"/><stop offset=".617" stop-color="#FFF7D7" stop-opacity=".383"/><stop offset=".752" stop-color="#FFFCED" stop-opacity=".247"/><stop offset=".882" stop-color="#FFFEFA" stop-opacity=".118"/><stop offset="1" stop-color="#fff" stop-opacity="0"/></linearGradient><linearGradient id="npaint28_linear" x1="388.133" y1="351.612" x2="388.133" y2="66.921" gradientUnits="userSpaceOnUse"><stop stop-color="#FFD215"/><stop offset=".042" stop-color="#FFD527" stop-opacity=".958"/><stop offset=".188" stop-color="#FFE05F" stop-opacity=".813"/><stop offset=".333" stop-color="#FFEA90" stop-opacity=".667"/><stop offset=".477" stop-color="#FFF1B8" stop-opacity=".523"/><stop offset=".617" stop-color="#FFF7D7" stop-opacity=".383"/><stop offset=".752" stop-color="#FFFCED" stop-opacity=".247"/><stop offset=".882" stop-color="#FFFEFA" stop-opacity=".118"/><stop offset="1" stop-color="#fff" stop-opacity="0"/></linearGradient><linearGradient id="npaint29_linear" x1="463.615" y1="586.148" x2="354.733" y2="496.537" gradientUnits="userSpaceOnUse"><stop stop-color="#430772"/><stop offset=".965" stop-color="#914DF4"/></linearGradient><linearGradient id="npaint30_linear" x1="318.446" y1="507.556" x2="417.796" y2="507.556" gradientUnits="userSpaceOnUse"><stop stop-color="#F91C76"/><stop offset="1" stop-color="#FFD215"/></linearGradient><linearGradient id="npaint31_linear" x1="422.515" y1="602.589" x2="325.517" y2="470.903" gradientUnits="userSpaceOnUse"><stop stop-color="#430772"/><stop offset=".984" stop-color="#914DF4"/></linearGradient><linearGradient id="npaint32_linear" x1="467.842" y1="591.76" x2="313.668" y2="493.754" gradientUnits="userSpaceOnUse"><stop stop-color="#F91C76"/><stop offset="1" stop-color="#FFD215"/></linearGradient><linearGradient id="npaint33_linear" x1="368.795" y1="528.621" x2="368.795" y2="382.616" gradientUnits="userSpaceOnUse"><stop stop-color="#FFD215"/><stop offset=".042" stop-color="#FFD527" stop-opacity=".958"/><stop offset=".188" stop-color="#FFE05F" stop-opacity=".813"/><stop offset=".333" stop-color="#FFEA90" stop-opacity=".667"/><stop offset=".477" stop-color="#FFF1B8" stop-opacity=".523"/><stop offset=".617" stop-color="#FFF7D7" stop-opacity=".383"/><stop offset=".752" stop-color="#FFFCED" stop-opacity=".247"/><stop offset=".882" stop-color="#FFFEFA" stop-opacity=".118"/><stop offset="1" stop-color="#fff" stop-opacity="0"/></linearGradient><linearGradient id="npaint34_linear" x1="205.959" y1="429.041" x2="97.077" y2="339.431" gradientUnits="userSpaceOnUse"><stop stop-color="#430772"/><stop offset=".965" stop-color="#914DF4"/></linearGradient><linearGradient id="npaint35_linear" x1="60.791" y1="350.45" x2="160.14" y2="350.45" gradientUnits="userSpaceOnUse"><stop stop-color="#F91C76"/><stop offset="1" stop-color="#FFD215"/></linearGradient><linearGradient id="npaint36_linear" x1="164.859" y1="445.482" x2="67.862" y2="313.797" gradientUnits="userSpaceOnUse"><stop stop-color="#430772"/><stop offset=".984" stop-color="#914DF4"/></linearGradient><linearGradient id="npaint37_linear" x1="210.187" y1="434.653" x2="56.013" y2="336.647" gradientUnits="userSpaceOnUse"><stop stop-color="#F91C76"/><stop offset="1" stop-color="#FFD215"/></linearGradient><linearGradient id="npaint38_linear" x1="112.067" y1="372.223" x2="112.067" y2="226.218" gradientUnits="userSpaceOnUse"><stop stop-color="#FFD215"/><stop offset=".042" stop-color="#FFD527" stop-opacity=".958"/><stop offset=".188" stop-color="#FFE05F" stop-opacity=".813"/><stop offset=".333" stop-color="#FFEA90" stop-opacity=".667"/><stop offset=".477" stop-color="#FFF1B8" stop-opacity=".523"/><stop offset=".617" stop-color="#FFF7D7" stop-opacity=".383"/><stop offset=".752" stop-color="#FFFCED" stop-opacity=".247"/><stop offset=".882" stop-color="#FFFEFA" stop-opacity=".118"/><stop offset="1" stop-color="#fff" stop-opacity="0"/></linearGradient><linearGradient id="npaint39_linear" x1="216.229" y1="595.412" x2="107.347" y2="505.801" gradientUnits="userSpaceOnUse"><stop stop-color="#430772"/><stop offset=".965" stop-color="#914DF4"/></linearGradient><linearGradient id="npaint40_linear" x1="71.061" y1="516.82" x2="170.411" y2="516.82" gradientUnits="userSpaceOnUse"><stop stop-color="#F91C76"/><stop offset="1" stop-color="#FFD215"/></linearGradient><linearGradient id="npaint41_linear" x1="175.13" y1="611.853" x2="78.133" y2="480.168" gradientUnits="userSpaceOnUse"><stop stop-color="#430772"/><stop offset=".984" stop-color="#914DF4"/></linearGradient><linearGradient id="npaint42_linear" x1="220.457" y1="601.024" x2="66.283" y2="503.018" gradientUnits="userSpaceOnUse"><stop stop-color="#F91C76"/><stop offset="1" stop-color="#FFD215"/></linearGradient><linearGradient id="npaint43_linear" x1="120.736" y1="537.29" x2="120.736" y2="391.284" gradientUnits="userSpaceOnUse"><stop stop-color="#FFD215"/><stop offset=".042" stop-color="#FFD527" stop-opacity=".958"/><stop offset=".188" stop-color="#FFE05F" stop-opacity=".813"/><stop offset=".333" stop-color="#FFEA90" stop-opacity=".667"/><stop offset=".477" stop-color="#FFF1B8" stop-opacity=".523"/><stop offset=".617" stop-color="#FFF7D7" stop-opacity=".383"/><stop offset=".752" stop-color="#FFFCED" stop-opacity=".247"/><stop offset=".882" stop-color="#FFFEFA" stop-opacity=".118"/><stop offset="1" stop-color="#fff" stop-opacity="0"/></linearGradient></defs></svg></svg>