<svg width="0" height="0" class="hidden">
  <symbol fill="none" xmlns="http://www.w3.org/2000/svg" viewBox="0 0 30 30" id="menu-status">
    <path
      d="M8.20898 17.4127C8.20898 17.3114 8.21659 17.218 8.22811 17.1194H21.4694C21.4811 17.2174 21.489 17.3099 21.489 17.4127C21.489 19.1737 20.7894 20.8626 19.5442 22.1079C18.2989 23.3531 16.61 24.0527 14.849 24.0527C13.0879 24.0527 11.399 23.3531 10.1538 22.1079C8.90855 20.8626 8.20898 19.1737 8.20898 17.4127ZM11.1756 8.68603V11.8594C11.1756 12.1476 11.0612 12.424 10.8574 12.6278C10.6536 12.8315 10.3772 12.946 10.089 12.946C9.80078 12.946 9.52438 12.8315 9.32059 12.6278C9.1168 12.424 9.00232 12.1476 9.00232 11.8594V8.68603C9.00232 8.39783 9.1168 8.12143 9.32059 7.91764C9.52438 7.71385 9.80078 7.59937 10.089 7.59937C10.3772 7.59937 10.6536 7.71385 10.8574 7.91764C11.0612 8.12143 11.1756 8.39783 11.1756 8.68603ZM20.6956 8.68603V11.8594C20.6956 12.1476 20.5812 12.424 20.3774 12.6278C20.1736 12.8315 19.8972 12.946 19.609 12.946C19.3208 12.946 19.0444 12.8315 18.8406 12.6278C18.6368 12.424 18.5223 12.1476 18.5223 11.8594V8.68603C18.5223 8.39783 18.6368 8.12143 18.8406 7.91764L18.487 7.56409L18.8406 7.91764C19.0444 7.71385 19.3208 7.59937 19.609 7.59937C19.8972 7.59937 20.1736 7.71385 20.3774 7.91764C20.5812 8.12143 20.6956 8.39783 20.6956 8.68603Z"
      stroke="inherit"></path>
    <circle cx="14.8219" cy="15.0502" r="14.1461" stroke="inherit"></circle>
  </symbol>
  <symbol fill="none" xmlns="http://www.w3.org/2000/svg" viewBox="0 0 28 27" id="menu-tarif">
    <path
      d="M9.85554 7.20854L12.3394 2.33521C13.0813 0.879483 15.1612 0.87948 15.9032 2.33521L18.3854 7.2054C18.6763 7.77616 19.2231 8.17303 19.8559 8.27279L25.5103 9.16429C27.1339 9.42026 27.7727 11.4166 26.5995 12.5676L22.6309 16.4607C22.1575 16.9252 21.9451 17.5941 22.0639 18.2466L23.0343 23.5781C23.3321 25.2137 21.6202 26.4774 20.1449 25.7111L15.0523 23.0663C14.4693 22.7635 13.7748 22.7663 13.1943 23.0739L8.30881 25.6619C6.83307 26.4436 5.10584 25.1794 5.40492 23.5364L6.36781 18.2466C6.48658 17.5941 6.27417 16.9252 5.80073 16.4607L1.82234 12.5579C0.650892 11.4087 1.28566 9.4156 2.90594 9.1555L8.39064 8.27505C9.02121 8.17383 9.56553 7.77754 9.85554 7.20854Z"
      stroke="inherit"></path>
  </symbol>
  <symbol fill="none" xmlns="http://www.w3.org/2000/svg" viewBox="0 0 39 27" id="menu-team">
    <path
      d="M8.90894 22.2175C10.4631 18.7107 13.7204 16.1137 17.6326 15.4324C17.833 15.3975 18.0427 15.3833 18.2606 15.3833H21.0341C21.252 15.3833 21.4618 15.3975 21.6622 15.4324C25.5743 16.1137 28.8316 18.7107 30.3858 22.2175C30.8573 23.2813 30.6097 24.2908 29.9342 25.0605C29.2465 25.8443 28.1131 26.3723 26.867 26.3723H12.4277C11.1816 26.3723 10.0482 25.8443 9.3605 25.0605C8.68503 24.2908 8.43747 23.2813 8.90894 22.2175Z"
      stroke="inherit"></path>
    <path
      d="M23.782 11.419L23.7821 11.419C24.9847 10.2114 25.5896 8.74584 25.5896 7.03809C25.5896 5.33104 24.9848 3.86529 23.7819 2.65722C22.579 1.44981 21.1202 0.843262 19.4217 0.843262C17.7228 0.843262 16.2643 1.44981 15.0616 2.65737C13.8589 3.86503 13.2539 5.3308 13.2539 7.03809C13.2539 8.7458 13.8589 10.2115 15.0618 11.4192L23.782 11.419ZM23.782 11.419C22.5794 12.6268 21.1205 13.2333 19.4217 13.2333M23.782 11.419L19.4217 13.2333M19.4217 13.2333C17.7235 13.2333 16.2647 12.6266 15.0618 11.4192L19.4217 13.2333Z"
      stroke="inherit"></path>
    <path
      d="M2.64553 18.478C3.76033 16.7431 5.56893 15.4882 7.67871 15.0891C7.87306 15.0523 8.07909 15.0388 8.29878 15.0388H10.0664C10.1776 15.0388 10.2883 15.0469 10.3877 15.0638C10.7538 15.1261 11.0023 15.2809 11.1702 15.4772C11.3423 15.6784 11.454 15.9522 11.4904 16.283C11.5644 16.9549 11.3161 17.7867 10.7801 18.4301C10.4819 18.7881 10.192 19.1706 9.92349 19.5734C8.99882 20.9603 7.63738 22.0317 6.13709 22.0317H5.52485C4.39962 22.0317 3.37902 21.5381 2.80145 20.8453C2.24299 20.1755 2.09634 19.3326 2.64553 18.478Z"
      stroke="inherit"></path>
    <path
      d="M11.74 12.1117L11.7401 12.1116C12.5107 11.3378 12.8965 10.4031 12.8965 9.30855C12.8965 8.21451 12.5108 7.27963 11.74 6.50551L11.74 12.1117ZM11.74 12.1117C10.9695 12.8855 10.0393 13.2722 8.9512 13.2722M11.74 12.1117L8.9512 13.2722M8.9512 13.2722C7.86349 13.2722 6.93334 12.8854 6.16256 12.1117C5.3918 11.3379 5.00586 10.403 5.00586 9.30855C5.00586 8.21434 5.3918 7.27944 6.16248 6.5056C6.93306 5.73185 7.86301 5.34521 8.9512 5.34521C10.0391 5.34521 10.9692 5.73182 11.7399 6.50543L8.9512 13.2722Z"
      stroke="inherit"></path>
    <path
      d="M36.3761 18.478C35.2613 16.7432 33.4527 15.4882 31.343 15.0891C31.1486 15.0523 30.9426 15.0388 30.7229 15.0388H28.9553C28.8441 15.0388 28.7335 15.0469 28.6341 15.0638C28.2679 15.1261 28.0195 15.2809 27.8516 15.4772C27.6795 15.6784 27.5677 15.9522 27.5313 16.283C27.4574 16.9549 27.7057 17.7866 28.2416 18.4301C28.5398 18.7881 28.8298 19.1706 29.0982 19.5733C30.0229 20.9603 31.3844 22.0317 32.8847 22.0317H33.4968C34.622 22.0317 35.6425 21.5381 36.2201 20.8454C36.7785 20.1756 36.9252 19.3327 36.3761 18.478Z"
      stroke="inherit"></path>
    <path
      d="M27.2817 12.1117L27.2817 12.1116C26.511 11.3378 26.1252 10.4031 26.1252 9.30854C26.1252 8.2145 26.511 7.27962 27.2817 6.50551L27.2817 12.1117ZM27.2817 12.1117C28.0522 12.8855 28.9824 13.2722 30.0704 13.2722M27.2817 12.1117L30.0704 13.2722M30.0704 13.2722C31.1581 13.2722 32.0882 12.8854 32.859 12.1117C33.6297 11.3379 34.0156 10.403 34.0156 9.30854C34.0156 8.21433 33.6297 7.27943 32.859 6.50559C32.0885 5.73185 31.1586 5.34521 30.0704 5.34521C28.9826 5.34521 28.0525 5.73182 27.2818 6.50542L30.0704 13.2722Z"
      stroke="inherit"></path>
  </symbol>
  <symbol fill="none" xmlns="http://www.w3.org/2000/svg" viewBox="0 0 29 23" id="menu-wallet">
    <path
      d="M0.746094 2.88013C0.746094 1.77556 1.64152 0.880127 2.74609 0.880127H25.5513C26.6559 0.880127 27.5513 1.77556 27.5513 2.88013V4.60156C27.5513 5.55492 26.8769 6.37724 25.9738 6.68257C23.9927 7.35232 20.85 8.84873 20.85 11.6022C20.85 14.3557 23.9927 15.8521 25.9738 16.5219C26.8769 16.8272 27.5513 17.6495 27.5513 18.6029V20.3243C27.5513 21.4289 26.6559 22.3243 25.5513 22.3243H2.74609C1.64152 22.3243 0.746094 21.4289 0.746094 20.3243V2.88013Z"
      stroke="inherit" stroke-linejoin="round"></path>
    <path d="M27.5492 11.6021H26.209" stroke="inherit" stroke-linecap="round" stroke-linejoin="round"></path>
  </symbol>
  <symbol fill="none" xmlns="http://www.w3.org/2000/svg" viewBox="0 0 37 23" id="menu-about">
    <path
      d="M2.7714 15.8258C0.661815 11.8326 5.52055 7.67187 8.57278 10.4765L14.9839 16.9397M2.7714 15.8258C-0.724493 10.7025 1.88002 6.29675 2.7714 5.42853C7.10329 1.20915 11.8133 2.66088 16.023 6.42738M2.7714 15.8258C4.13052 17.5795 8.47578 20.2575 14.9839 16.9397M34.1139 4.90113C41.4221 17.7094 25.6755 27.3532 17.8399 19.8189L14.9839 16.9397M34.1139 4.90113C35.3103 8.14086 35.3194 12.757 29.744 15.2231C28.4381 15.8007 24.3064 16.4531 20.1002 10.9285C18.8215 9.24912 17.4511 7.70507 16.023 6.42738M34.1139 4.90113C30.1915 -2.24129 19.6629 1.7329 16.023 6.42738"
      stroke="inherit"></path>
  </symbol>
  <symbol fill="none" xmlns="http://www.w3.org/2000/svg" viewBox="0 0 29 32" id="menu-profile">
    <path
      d="M1.90547 26.8297C3.58653 22.3413 7.59792 18.9775 12.4692 18.1496C12.6713 18.1152 12.882 18.1008 13.0995 18.1008H16.4436C16.661 18.1008 16.8717 18.1152 17.0739 18.1496C21.9451 18.9775 25.9565 22.3413 27.6376 26.8297C28.0496 27.9297 27.7684 28.9607 27.0731 29.7383C26.3678 30.527 25.2346 31.0493 23.9883 31.0493H5.55469C4.3084 31.0493 3.17521 30.527 2.46994 29.7383C1.77463 28.9607 1.49347 27.9297 1.90547 26.8297Z"
      stroke="inherit"></path>
    <path
      d="M19.6385 13.6282L19.6385 13.6283C18.224 15.0488 16.5058 15.7632 14.5076 15.7632C12.5101 15.7632 10.792 15.0486 9.37721 13.6284C7.96245 12.2081 7.25 10.482 7.25 8.47361C7.25 6.4657 7.96245 4.73962 9.37702 3.31924C10.7915 1.89895 12.5093 1.18457 14.5076 1.18457C16.5055 1.18457 18.2235 1.89892 19.6382 3.31896C21.0531 4.73984 21.7653 6.46593 21.7653 8.47361C21.7653 10.4821 21.053 12.2079 19.6385 13.6282Z"
      stroke="inherit"></path>
  </symbol>
  <symbol fill="none" xmlns="http://www.w3.org/2000/svg" viewBox="0 0 22 32" id="menu-learn">
    <path
      d="M21.0865 10.9723C21.0865 13.5699 19.5859 15.6828 17.8493 17.7267C17.5849 18.0378 17.3133 18.3494 17.042 18.6607C16.4409 19.3503 15.8409 20.0386 15.3228 20.7183C14.5663 21.7109 13.9318 22.749 13.6678 23.8664C13.5781 24.246 13.2934 24.4719 13.0361 24.4719H8.99575C8.73842 24.4719 8.45374 24.246 8.36405 23.8664C8.10008 22.749 7.46556 21.7109 6.70902 20.7183C6.19094 20.0386 5.59095 19.3503 4.98986 18.6607C4.71851 18.3494 4.44694 18.0378 4.18258 17.7267C2.44591 15.6828 0.945312 13.5699 0.945312 10.9723C0.945312 5.42092 5.46303 0.904053 11.0159 0.904053C16.5688 0.904053 21.0865 5.42092 21.0865 10.9723ZM13.0361 26.566C13.3122 26.566 13.5361 26.7898 13.5361 27.066V30.6931C13.5361 30.9692 13.3122 31.1931 13.0361 31.1931H8.99575C8.71961 31.1931 8.49575 30.9692 8.49575 30.6931V27.066C8.49575 26.7898 8.71961 26.566 8.99575 26.566H13.0361Z"
      stroke="inherit" />
  </symbol>
</svg>