<svg width="21" height="22" fill="none" xmlns="http://www.w3.org/2000/svg"><path d="M19.25 9.688h-1.86V3.561a3.5 3.5 0 0 0-3.5-3.5H7.11a3.5 3.5 0 0 0-3.5 3.5v6.126H1.75a.874.874 0 0 0-.875.874v10.5c0 .485.391.875.875.875h17.5a.874.874 0 0 0 .875-.875v-10.5a.874.874 0 0 0-.875-.874ZM5.578 3.561c0-.844.686-1.53 1.531-1.53h6.782c.845 0 1.53.686 1.53 1.53v6.126H5.579V3.561ZM18.156 19.97H2.844v-8.313h15.312v8.313Zm-8.422-3.801v1.45c0 .12.099.218.22.218h1.093a.22.22 0 0 0 .219-.219v-1.449a1.313 1.313 0 1 0-1.532 0Z" fill="#0E0E0E" fill-opacity=".7"/></svg>