<svg width="37" height="14" fill="none" xmlns="http://www.w3.org/2000/svg"><path d="M4.07 2.071v9.912H2.768V4.801H.276v-.896c.803 0 1.438-.13 1.904-.392.476-.26.794-.742.952-1.442h.938Zm6.184 8.358v1.554H8.7V10.43h1.554Zm9.09-1.848V9.59H18v2.394h-1.12V9.59h-4.354V8.47l4.508-6.412H18v6.524h1.344Zm-2.464 0V3.807l-3.304 4.774h3.304Zm10.552 2.324v1.078h-6.468a5.32 5.32 0 0 1 .252-1.442c.14-.41.354-.779.644-1.106.298-.336.588-.61.868-.826.28-.214.676-.48 1.19-.798.802-.504 1.33-.882 1.582-1.134.522-.513.784-1.082.784-1.708 0-.55-.178-.998-.532-1.344-.355-.354-.817-.532-1.386-.532-.682 0-1.172.238-1.47.714-.29.467-.444 1.06-.462 1.778H21.23V5.32c0-.98.289-1.768.868-2.366.588-.597 1.362-.896 2.324-.896.942 0 1.694.262 2.254.784.56.523.84 1.223.84 2.1 0 .374-.066.728-.196 1.064a3.594 3.594 0 0 1-.42.826c-.15.224-.383.462-.7.714-.308.252-.565.448-.77.588-.206.131-.5.313-.882.546-.766.458-1.274.812-1.526 1.064-.355.346-.584.733-.686 1.162h5.096ZM33.265.951v.966c1.876.028 2.828.924 2.856 2.688h-1.176v-.084c0-.998-.56-1.54-1.68-1.624V6.37c.42.122.737.22.952.294.224.075.495.192.812.35.326.16.57.332.728.518.159.178.299.416.42.714.121.3.182.644.182 1.036 0 .86-.27 1.545-.812 2.058-.541.514-1.302.803-2.282.868v1.162h-.658v-1.162c-.943-.046-1.694-.326-2.254-.84-.55-.522-.826-1.264-.826-2.226v-.14h1.19c-.01.056-.014.117-.014.182 0 1.242.634 1.918 1.904 2.03v-3.85c-.915-.177-1.624-.47-2.128-.882-.504-.42-.756-1.022-.756-1.806 0-.83.266-1.474.798-1.932.532-.466 1.227-.742 2.086-.826V.951h.658Zm-.658 5.292V2.925c-.532.047-.952.22-1.26.518-.308.29-.462.668-.462 1.134 0 .486.154.854.462 1.106.308.252.728.44 1.26.56Zm.658 1.274v3.71c.56-.018 1.017-.205 1.372-.56.355-.354.532-.807.532-1.358 0-.924-.635-1.52-1.904-1.792Z" fill="#000"/></svg>