<svg width="21" height="21" fill="none" xmlns="http://www.w3.org/2000/svg"><g clip-path="url(#a)" fill="#FDFDFD" fill-opacity=".8"><path d="M14.236 1.528a1.27 1.27 0 0 1 1.27 1.27v15.25a1.27 1.27 0 0 1-1.27 1.271H6.61a1.27 1.27 0 0 1-1.271-1.27V2.799a1.27 1.27 0 0 1 1.27-1.271h7.625ZM6.61.257a2.542 2.542 0 0 0-2.542 2.542v15.25A2.542 2.542 0 0 0 6.61 20.59h7.625a2.541 2.541 0 0 0 2.541-2.541V2.799A2.542 2.542 0 0 0 14.235.257H6.612Z"/><path d="M10.423 18.049a1.27 1.27 0 1 0 0-2.542 1.27 1.27 0 0 0 0 2.542Z"/></g><defs><clipPath id="a"><path fill="#fff" transform="translate(.256 .257)" d="M0 0h20.333v20.333H0z"/></clipPath></defs></svg>