<svg width="17" height="13" fill="none" xmlns="http://www.w3.org/2000/svg"><path d="M8.699.677c4.573 0 8.28 2.022 8.28 4.517v3.01c0 2.496-3.707 4.518-8.28 4.518-4.492 0-8.149-1.95-8.277-4.384l-.004-.133V5.194c0-2.495 3.708-4.517 8.28-4.517Zm0 9.034c-2.8 0-5.277-.759-6.775-1.92v.414c0 1.417 2.923 3.011 6.775 3.011 3.771 0 6.653-1.528 6.771-2.922l.004-.09.001-.413C13.977 8.95 11.5 9.71 8.699 9.71Zm0-7.529c-3.852 0-6.775 1.595-6.775 3.012 0 1.416 2.923 3.01 6.775 3.01 3.852 0 6.775-1.594 6.775-3.01 0-1.417-2.923-3.012-6.775-3.012Z" fill="#FDFDFD"/></svg>