<svg width="872" height="595" fill="none" xmlns="http://www.w3.org/2000/svg"><path fill="#E5E5E5" d="M0 0h872v595H0z"/><path d="M88.506 0v52.562l.426 52.562m-1.917 447.772 1.491-111.374m0 0H2.99h345.55m-260.033 0H1m87.506 0 .214-169.044L1 272.147m87.506 169.375V1.5m782.086 440.022h-86.014m0 0v111.374-447.772m0 336.398H610.063M784.578 1.705v103.419m0 0h86.511-348.035m-519.07 0h84.948m85.092 0V0v273.147m0-168.023H88.932m85.092 0h87.506m-87.506 447.772V273.147m0 0L87 272.472m784.089-.325-174.017 1m0 0v279.749m0-279.749H261.53M88.932 105.124H1.497M87 272.472l-84.011-.325 258.541 1M87 272.472l174.53.675m0 279.749V105.124M261.53 0v105.124m0 0h87.009m0 0V0v441.522m0-336.398h87.009m-87.009 447.772V441.522m0 0h87.009m0 0v111.374-447.772m0 336.398h87.506M435.548 0v105.124m0 0h87.506m0 0V0v441.522m0 111.374V441.522m0 0h87.009m0 0v111.374V1.705m86.999 551.192V1.705" stroke="#F3F3F3"/><path d="M547.628 187.798c68.22-92.286 191.991-88.66 243.157-76.507.162 137.673.39 415.768 0 426.766-.39 10.998-8.934 14.545-13.157 14.943H35c75.855-44.828 237.894-159.111 285.064-216.969 58.962-72.323 142.288-32.874 227.564-148.233Z" fill="url(#a)"/><text fill="#8F8F8F" xml:space="preserve" style="white-space:pre" font-family="Roboto" font-size="14" letter-spacing=".05em"><tspan x="12" y="96.285">15 млрд</tspan></text><text fill="#8F8F8F" xml:space="preserve" style="white-space:pre" font-family="Roboto" font-size="14" letter-spacing=".05em"><tspan x="12" y="263.285">10 млрд</tspan></text><text fill="#8F8F8F" xml:space="preserve" style="white-space:pre" font-family="Roboto" font-size="14" letter-spacing=".05em"><tspan x="12" y="431.285">5 млрд</tspan></text><text fill="#8F8F8F" xml:space="preserve" style="white-space:pre" font-family="HelveticaNeueCyr" font-size="14" letter-spacing=".05em"><tspan x="0" y="585.246">0</tspan></text><text fill="#8F8F8F" xml:space="preserve" style="white-space:pre" font-family="HelveticaNeueCyr" font-size="14" letter-spacing=".05em"><tspan x="83.529" y="585.246">1г</tspan></text><text fill="#8F8F8F" xml:space="preserve" style="white-space:pre" font-family="HelveticaNeueCyr" font-size="14" letter-spacing=".05em"><tspan x="169.046" y="585.246">2г</tspan></text><text fill="#8F8F8F" xml:space="preserve" style="white-space:pre" font-family="HelveticaNeueCyr" font-size="14" letter-spacing=".05em"><tspan x="257.547" y="585.246">3г</tspan></text><text fill="#8F8F8F" xml:space="preserve" style="white-space:pre" font-family="HelveticaNeueCyr" font-size="14" letter-spacing=".05em"><tspan x="343.064" y="585.246">4г</tspan></text><text fill="#8F8F8F" xml:space="preserve" style="white-space:pre" font-family="HelveticaNeueCyr" font-size="14" letter-spacing=".05em"><tspan x="602.599" y="585.246">7г</tspan></text><text fill="#8F8F8F" xml:space="preserve" style="white-space:pre" font-family="HelveticaNeueCyr" font-size="14" letter-spacing=".05em"><tspan x="688.116" y="585.246">8г</tspan></text><text fill="#8F8F8F" xml:space="preserve" style="white-space:pre" font-family="HelveticaNeueCyr" font-size="14" letter-spacing=".05em"><tspan x="776.616" y="585.246">9г</tspan></text><text fill="#8F8F8F" xml:space="preserve" style="white-space:pre" font-family="HelveticaNeueCyr" font-size="14" letter-spacing=".05em"><tspan x="428.582" y="585.246">5г</tspan></text><text fill="#8F8F8F" xml:space="preserve" style="white-space:pre" font-family="HelveticaNeueCyr" font-size="14" letter-spacing=".05em"><tspan x="517.082" y="585.246">6г</tspan></text><defs><linearGradient id="a" x1="413" y1="105.001" x2="413" y2="553.001" gradientUnits="userSpaceOnUse"><stop stop-color="#451F79"/><stop offset="1" stop-color="#76579B"/></linearGradient></defs></svg>