<svg width="584" height="604" fill="none" xmlns="http://www.w3.org/2000/svg"><path d="M473.982 441.779 274.525 326.624c-17.49-10.022-45.787-10.022-63.08 0L13.363 441.779C4.716 446.692 0 453.373 0 460.644c0 7.271 4.716 13.952 13.56 18.865l199.457 115.155c8.646 5.109 20.24 7.664 31.638 7.467 11.398 0 22.795-2.555 31.442-7.467l95.307-55.416.393.196.393-.786 101.792-59.149c8.647-4.913 13.363-11.594 13.363-18.865 0-7.075-4.716-13.756-13.363-18.865ZM275.114 592.895c-16.9 9.825-44.215 9.825-61.115 0L14.542 477.74c-8.057-4.716-12.577-10.808-12.577-17.293 0-6.485 4.323-12.576 12.38-17.096l95.897-55.809-.196.393 259.393 149.937-94.325 55.023ZM473.196 477.74l-101.792 59.15-259.59-150.134 100.613-58.56c8.45-4.913 19.455-7.271 30.459-7.271 11.005 0 22.206 2.358 30.656 7.271L473 443.351c8.057 4.716 12.576 10.808 12.576 17.293 0 6.485-4.52 12.576-12.38 17.096Z" fill="#A3A3A3"/><path d="m93.146 172.953.196 100.81 126.553-73.102-.197-100.81-126.552 73.102Z" fill="url(#a)"/><path d="M141.88 183.958v5.503l54.63-33.407v-5.502l-54.63 33.406Zm16.311 9.04v5.502l38.32-23.581v-5.306l-38.32 23.385Zm-39.302 44.411v5.502l77.621-47.555v-5.502l-77.621 47.555Zm0-20.438v5.503l26.725-16.311v-5.502l-26.725 16.31Zm0-19.06v5.502l11.004-6.681v-5.503l-11.004 6.682Zm0-21.224 77.425-47.555.196 5.502-77.621 47.556v-5.503Z" fill="#fff"/><path d="m583.438 374.367-.393 99.041-99.041-56.792.197-99.237 99.237 56.988Z" fill="url(#b)"/><path d="M571.648 406.202v5.109l-73.102-44.608v-5.109l73.102 44.608Zm-.197 17.882v4.913l-72.905-44.411v-5.109l72.905 44.607Zm-21.223 6.092v4.913l-38.713-23.778v-5.109l38.713 23.778v.196Zm21.223-38.909-72.905-44.608v-5.109l72.905 44.608v5.109Z" fill="#fff"/><path d="M556.517 289.474c4.323 2.555 7.86 8.647 7.86 13.756v33.014c0 6.092-4.323 8.45-9.432 5.502l-35.962-20.83c-5.306-2.948-9.432-10.415-9.432-16.31v-33.014c0-5.109 3.537-7.074 7.86-4.52l39.106 22.402Z" fill="url(#c)"/><path d="M573.81 297.335v-2.752c0-.196 0-.196-.197-.393v-.393c0-.196 0-.196-.196-.393 0-.196 0-.196-.197-.393v-.196c0-.197-.196-.197-.196-.393 0 0 0-.197-.197-.197 0-.196-.196-.196-.196-.393 0-.196-.197-.196-.197-.393 0-.196-.196-.196-.196-.393 0-.196-.197-.196-.197-.393v-.196c0-.197-.196-.197-.196-.393-.197-.197-.197-.393-.393-.59a2.706 2.706 0 0 1-.59-.786c-.196-.196-.197-.393-.393-.393 0-.196-.197-.196-.393-.393l-.393-.393-.393-.393-.197-.196-.393-.393-.196-.197-.197-.196-.393-.393s-.196-.001-.196-.197h-.197c-.196 0-.196-.197-.393-.197l-.196-.196c-.197 0-.197-.197-.393-.197-.197 0-.197-.196-.393-.196l-39.106-22.599s-.196 0-.196-.196c-.197 0-.197-.197-.393-.197 0 0-.197 0-.197-.196-.196 0-.196 0-.393-.197-.196 0-.196 0-.393-.196h-2.947c-.197 0-.393 0-.393.196-.197 0-.393.197-.59.197l-9.433 5.502c.197-.196.394-.196.59-.196.197 0 .393-.197.393-.197h1.376c.196 0 .393 0 .589.197.197 0 .393.196.786.196.197 0 .59.197.786.393.197.197.59.197.786.393l39.106 22.599c.196.196.589.393.786.589.196.197.393.393.786.59l.589.589.59.59c.196.196.393.589.59.786.393.589.785.982 1.179 1.572.196.197.196.393.393.59 0 .196.196.196.196.393v.196c.197.197.197.59.393.786.197.393.393.59.393.983.197.393.197.589.393.982.197.393.197.59.393.983 0 .393.197.589.197.982s.196.59.196.983 0 .589.197.982v34.979c0 .393 0 .59-.197.786v.197c0 .196-.196.589-.196.786v.196c0 .197-.197.393-.197.59-.196.196-.196.393-.393.589-.196.393-.393.59-.589.786l-.197.197c-.196.196-.59.393-.786.589l9.433-5.502c.196-.196.589-.393.786-.589l.196-.197c.197-.196.393-.589.59-.786.196-.196.196-.393.393-.589 0-.197.196-.197.196-.394v-.589c0-.197 0-.393.197-.393v-35.175c.786-.983.786-1.179.786-1.179Z" fill="url(#d)"/><path d="m532.346 255.871-3.537 2.162c-.197 0-.196.196-.393.393v.196l-.197.197s0 .196-.196.196v12.38l4.52-2.751v-12.773h-.197Z" fill="url(#e)"/><path d="M546.299 259.998c5.109 2.947 9.432 10.218 9.236 16.114v11.004l-6.092-3.537v-11.005c0-2.161-1.572-4.716-3.341-5.698l-15.131-8.843c-1.769-.983-3.341-.197-3.341 1.965v11.004l-6.092-3.537v-11.004c0-5.896 4.127-8.254 9.433-5.306l15.328 8.843Z" fill="url(#f)"/><path d="M560.644 273.361v11.004l-4.913 2.948v-11.987c0-.393 0-.786-.196-1.179 0-.393-.197-.786-.197-1.179v-.197a1.5 1.5 0 0 0-.393-.983c-.196-.393-.196-.786-.393-1.179-.196-.393-.196-.786-.393-.982-.197-.393-.393-.786-.59-.983v-.196c-.196-.393-.393-.59-.393-.786 0 0 0-.197-.196-.197a.423.423 0 0 0-.393-.393c-.197-.196-.197-.393-.393-.589-.197-.393-.393-.59-.59-.983-.196-.393-.589-.589-.786-.982-.196-.393-.589-.59-.786-.983l-.786-.786c-.196-.197-.589-.393-.786-.786-.196-.197-.589-.393-.786-.59-.393-.196-.589-.393-.982-.589l-15.132-8.843c-.393-.197-.589-.393-.982-.393-.393-.197-.59-.197-.983-.393-.196 0-.589-.197-.786-.197-.196 0-.589 0-.786-.196h-1.965c-.196 0-.393 0-.393.196l4.127-2.358c.196-.196.393-.196.786-.393.196 0 .393-.196.589-.196h2.751c.197 0 .197 0 .394.196h.196c.197 0 .197 0 .393.197.197 0 .197.196.393.196 0 0 .197 0 .197.197.196 0 .196.196.393.196 0 0 .196.197.393.197l15.131 8.843h.196c.197 0 .197.196.393.196.197 0 .197.197.393.197 0 0 .197.196.393.196l.393.393.197.197.196.196.394.393.196.197.196.196.393.393.197.197.393.393.393.393.393.393c.197.196.197.393.393.589.197.197.393.59.59.787v.196c.196.197.196.393.393.59 0 .196.196.196.196.393 0 0 0 .196.197.196 0 .197.196.393.196.393 0 .197.197.197.197.393 0 .197.196.393.196.393 0 .197.197.393.197.393 0 .197 0 .197.196.393 0 .197.197.393.197.393s0 .197.196.393c0 .197.197.393.197.393 0 .197.196.393.196.393 0 .197 0 .197.197.393 0 .197 0 .393.196.59v2.751c.59 1.179.59 1.376.59 1.376Z" fill="#B8B8B8"/><path d="M560.644 273.361v11.004l-4.913 2.948v-11.987c0-.393 0-.786-.196-1.179 0-.393-.197-.786-.197-1.179v-.197a1.5 1.5 0 0 0-.393-.983c-.196-.393-.196-.786-.393-1.179-.196-.393-.196-.786-.393-.982-.197-.393-.393-.786-.59-.983v-.196c-.196-.393-.393-.59-.393-.786 0 0 0-.197-.196-.197a.423.423 0 0 0-.393-.393c-.197-.196-.197-.393-.393-.589-.197-.393-.393-.59-.59-.983-.196-.393-.589-.589-.786-.982-.196-.393-.589-.59-.786-.983l-.786-.786c-.196-.197-.589-.393-.786-.786-.196-.197-.589-.393-.786-.59-.393-.196-.589-.393-.982-.589l-15.132-8.843c-.393-.197-.589-.393-.982-.393-.393-.197-.59-.197-.983-.393-.196 0-.589-.197-.786-.197-.196 0-.589 0-.786-.196h-1.965c-.196 0-.393 0-.393.196l4.127-2.358c.196-.196.393-.196.786-.393.196 0 .393-.196.589-.196h2.751c.197 0 .197 0 .394.196h.196c.197 0 .197 0 .393.197.197 0 .197.196.393.196 0 0 .197 0 .197.197.196 0 .196.196.393.196 0 0 .196.197.393.197l15.131 8.843h.196c.197 0 .197.196.393.196.197 0 .197.197.393.197 0 0 .197.196.393.196l.393.393.197.197.196.196.394.393.196.197.196.196.393.393.197.197.393.393.393.393.393.393c.197.196.197.393.393.589.197.197.393.59.59.787v.196c.196.197.196.393.393.59 0 .196.196.196.196.393 0 0 0 .196.197.196 0 .197.196.393.196.393 0 .197.197.197.197.393 0 .197.196.393.196.393 0 .197.197.393.197.393 0 .197 0 .197.196.393 0 .197.197.393.197.393s0 .197.196.393c0 .197.197.393.197.393 0 .197.196.393.196.393 0 .197 0 .197.197.393 0 .197 0 .393.196.59v2.751c.59 1.179.59 1.376.59 1.376Z" fill="url(#g)"/><path d="M532.542 292.225c2.752 1.572 5.11 5.502 5.11 8.647 0 1.965-.983 3.34-2.358 3.537l1.179 12.969-7.664-4.519 1.179-11.594c-1.376-1.769-2.358-4.127-2.358-6.289-.197-2.947 2.161-4.323 4.912-2.751Z" fill="#430772"/><path d="m529.399 313.449 1.572-12.184c-1.376-1.769-2.358-4.127-2.358-6.288 0-1.965.786-3.145 1.965-3.538-1.769-.196-3.144 1.18-3.144 3.538 0 1.965.982 4.323 2.358 6.288l-1.179 11.594.786.59Zm6.485 3.93.393.196v-.196h-.393Z" fill="#6821AD"/><path d="m81.945 210.093-30.263 28.691.197 38.123c0 10.808 9.432 15.327 17.686 16.9 6.485 1.375 12.576.982 12.773.982 0 0 30.262-33.603 30.262-53.058l-.196-38.123-30.459 6.485Z" fill="url(#h)"/><path d="M79.587 289.286c-2.162 0-5.503-.196-9.04-.982-13.166-2.751-13.166-9.236-13.166-11.398l-.196-35.568 27.314-25.939 22.01-4.52v31.048c.393 13.363-18.276 37.534-26.922 47.359Z" fill="url(#i)"/><path d="m112.404 203.805-11.398-6.681-30.459 6.288-30.263 28.691.197 38.123v2.947c0 .197.197.59.197.786 0 .197.196.59.196.786 0 .393.197.59.393.983.197.197.197.59.393.786v.393c.197.59.59.983.786 1.376.197.393.393.589.59.982l.59.59c.196.393.589.589.785.786l.59.589c.393.393.786.59.982.786.197.197.393.197.59.393l1.768 1.179 11.398 6.682-1.769-1.179c-.196-.197-.393-.197-.59-.393-.392-.197-.785-.59-.982-.786l-.59-.59-.785-.786-.59-.589c-.196-.393-.393-.59-.59-.983-.392-.59-.589-.983-.982-1.572v-.197c-.59-1.179-.982-2.554-1.179-3.93v-.196c-.197-.786-.197-1.572-.197-2.358l-.196-38.123 30.263-28.691 30.852-6.092Z" fill="url(#j)"/><path d="m93.342 233.282-12.576 22.009-6.878-2.947-3.93 6.485 10.611 6.288 17.293-29.673-4.52-2.162Z" fill="#fff"/><path d="M409.724 192.801c43.428 25.153 43.625 65.83.589 90.984-43.232 25.153-113.386 25.153-157.011 0-43.429-25.154-43.626-65.831-.59-90.984 43.232-25.154 113.386-25.154 157.012 0Z" fill="url(#k)"/><path d="M410.117 280.641c-43.232 25.153-113.386 25.153-157.011 0-21.223-12.184-32.031-28.101-32.621-44.215-.59 17.096 10.218 34.193 32.621 47.162 43.428 25.153 113.779 25.153 157.011 0 22.206-12.969 32.817-29.869 32.228-46.769-.59 15.917-11.398 31.638-32.228 43.822Z" fill="url(#l)"/><path d="M387.911 205.377c31.442 18.079 31.638 47.556.393 65.831-31.245 18.079-82.141 18.079-113.582 0-31.442-18.079-31.638-47.555-.393-65.831 31.441-18.275 82.141-18.275 113.582 0Z" fill="url(#m)"/><path d="M274.525 212.255c31.245-18.079 82.141-18.079 113.583 0 14.345 8.253 22.009 18.865 23.385 29.476 1.768-13.166-6.092-26.529-23.385-36.551-31.442-18.079-82.338-18.079-113.583 0-17.096 10.022-24.76 23.188-22.992 36.355 1.179-10.612 8.843-21.027 22.992-29.28Z" fill="url(#n)"/><path d="m442.345 238.391-.197 74.085c1.769 17.685-8.843 35.568-32.031 49.127-43.232 25.153-113.386 25.153-157.012 0-21.812-12.577-32.817-29.28-32.817-45.787h-.196l.196-78.014c0 16.507 11.005 33.013 32.817 45.59 43.429 25.153 113.78 25.153 157.012 0 21.42-12.184 32.228-28.494 32.228-45.001Z" fill="url(#o)"/><path d="M442.345 287.715c-.786 15.721-11.594 31.245-32.228 43.232-43.232 25.154-113.386 25.154-157.011 0-21.813-12.576-32.817-29.28-32.817-45.786v-15.132c0 16.507 11.004 33.014 32.817 45.591 43.428 25.153 113.779 25.153 157.011 0 20.044-11.594 30.656-26.529 32.031-41.857v7.86c0 .59.197 1.376.197 1.965v4.127Z" fill="url(#p)"/><path d="M411.492 234.854V.811H251.337v233.846c-1.769 13.167 6.091 26.529 23.384 36.551 31.442 18.079 82.338 18.079 113.583 0 17.096-10.022 24.76-23.384 23.188-36.354Z" fill="url(#q)"/><path d="M368.064 153.695v-1.769c0-.393 0-.982-.197-1.375v-.197c0-.589-.196-.982-.196-1.572v-.393c0-.196 0-.393-.197-.786v-.589c0-.197 0-.393-.196-.786v-.59c0-.196 0-.589-.197-.786v-.393c0-.393-.196-.589-.196-.982v-.393c-.197-.59-.197-1.376-.393-1.966v-.196c-.197-.59-.393-1.179-.393-1.769v-.393c-.197-.589-.393-1.179-.393-1.572v-.196c-.197-.59-.393-.983-.393-1.572v-.197c-.197-.589-.393-.982-.59-1.572 0-.196 0-.196-.196-.393-.197-.393-.393-.983-.59-1.376v-.196c-.196-.393-.393-.983-.589-1.376 0-.196-.197-.196-.197-.393l-.59-1.179s.001-.196-.196-.196c-.197-.393-.393-.983-.59-1.376 0-.196-.196-.196-.196-.393l-.59-1.179c0-.196-.196-.196-.196-.393-.197-.393-.393-.982-.786-1.375v-.197l-.59-1.179c0-.197-.196-.197-.196-.393l-.59-1.179s0-.197-.196-.197c-.197-.393-.59-.982-.786-1.375 0-.197-.197-.197-.197-.393-.196-.393-.393-.786-.786-1.179l-.196-.197c-.197-.393-.59-.982-.786-1.375l-.197-.197c-.196-.393-.589-.786-.786-1.179l-.196-.196c-.393-.393-.59-.983-.983-1.376l-.197-.196c-.393-.59-.786-.983-.982-1.573-.393-.393-.786-.982-1.179-1.375l-.197-.197c-.393-.589-.786-1.179-1.375-1.572l-.197-.196c-.393-.59-.786-.983-1.375-1.572 0-.197-.197-.197-.197-.393-.196-.197-.393-.393-.589-.786l-.393-.393c-.197-.393-.59-.59-.786-.983l-.983-.983-.196-.196-.59-.59-.197-.196c-.393-.393-.785-.786-1.375-1.179l-.197-.197-1.179-1.179-.196-.196c-.393-.393-.786-.786-1.376-1.18l-.196-.196c-.393-.393-.786-.786-1.376-.982l-.196-.197c-.393-.393-.786-.59-1.376-.982h-.196c-.393-.393-.983-.59-1.376-.983l-.196-.196c-.393-.394-.983-.59-1.376-.983l-.197-.197c-.393-.392-.982-.589-1.375-.785l-1.179-.59c-.197 0-.197-.197-.393-.197-.393-.196-.59-.393-.983-.393-.196 0-.196-.196-.393-.196l-1.179-.59h-.196c-.393-.196-.59-.196-.983-.393-.196 0-.196-.196-.393-.196-.196 0-.393-.197-.589-.197-.197 0-.197 0-.393-.196-.197 0-.394-.197-.787-.197 0 0-.196 0-.196-.196-.393-.197-.59-.197-.983-.393h-.196c-.197 0-.59-.197-.786-.197-.197 0-.393 0-.393-.196h-.393c-.197 0-.393 0-.59-.197h-.393c-.196 0-.393 0-.589-.196h-.197c-.196 0-.589 0-.786-.197-.393 0-.786-.196-1.179-.196h-4.913c-.393 0-.589 0-.982.196h-.197c-.196 0-.589 0-.786.197h-.196c-.393 0-.59.196-.983.196-.196 0-.589.197-.786.197h-.196c-.197 0-.393.196-.786.196h-.197c-.196.197-.589.197-.786.393 0 0-.196 0-.196.197-.197.196-.393.196-.59.393-.196 0-.196.196-.393.196l14.542-8.45s.196 0 .196-.196h.197c.196-.197.393-.197.589-.393 0 0 .197 0 .197-.197.196-.196.589-.196.786-.393h.196c.197 0 .393-.196.786-.196h.197c.196 0 .59-.197.786-.197.393 0 .59-.196.983-.196h.196c.197 0 .59-.197.786-.197h.197c.393 0 .589-.196.982-.196h4.913c.393 0 .786 0 1.179.196.197 0 .589 0 .786.197h.197c.196 0 .393 0 .589.196h.393c.197 0 .393 0 .59.197h.982c.197 0 .59.196.786.196h.197c.393.197.589.197.982.393 0 0 .197 0 .197.197.196 0 .393.196.786.196.196 0 .196 0 .393.197.196 0 .393.196.589.196h.393c.393.197.59.197.983.393h.196l1.18.59c.196 0 .196.197.392.197.393.196.59.392.983.392.197 0 .197.197.393.197l1.179.59c.393.196.983.59 1.376.786l.196.196c.393.197.983.59 1.376.983l.196.196c.393.393.983.59 1.376.983h.196c.393.393.983.59 1.376.982l.196.197c.393.393.983.786 1.376.982l.197.197c.393.393.786.786 1.375 1.179l.197.196 1.179 1.18.196.196c.393.393.786.786 1.376 1.179l.196.197s0 .196.197.196l.589.59.197.196.982.983c.197.393.59.59.786.982l.393.393c.197.197.393.393.59.786l.197.197.196.196c.393.59.983.983 1.376 1.572l.196.197c.393.589.786.982 1.376 1.572 0 0 0 .196.196.196.393.393.786.983 1.179 1.376.393.59.786.983.983 1.572 0 0 0 .197.196.197v.196c.393.393.59.983.983 1.376l.196.196c.197.393.59.786.786 1.179 0 0 0 .197.197.197v.196c.196.393.589.983.786 1.376l.196.196c.197.393.393.786.786 1.179 0 0 .001.197.197.197v.196c.197.393.589.983.786 1.376 0 0 0 .196.197.196l.589 1.18s0 .196.197.196v.197l.589 1.179v.196c.197.393.393.983.59 1.376v.196s0 .197.196.197l.59 1.179c0 .196.196.196.196.393.197.393.393.982.59 1.375v.197l.589 1.179c0 .196.197.196.197.393.196.393.393.983.589 1.376v.196c.197.393.393.983.59 1.376 0 .196 0 .196.196.393.197.589.393.982.59 1.572v.196c.196.59.393.983.393 1.572v.197c.196.589.393 1.179.393 1.572v.393c.196.589.393 1.179.393 1.769v.196c.196.59.393 1.376.393 1.965v.197c0 .393.196.589.196.982v.393c0 .197.001.59.197.786v.393c0 .197 0 .393.196.786v.59c0 .196 0 .393.197.786v.393c0 .589.197.982.197 1.572v.196c0 .394-.001.983.196 1.376v3.734c0 11.594-4.127 19.651-10.808 23.581l-14.542 8.45c6.682-3.734 10.612-11.987 10.808-23.581v-1.572c-.196 0-.196 0-.196-.197Z" fill="url(#r)"/><path d="M331.513 92.187c-20.241-11.79-36.747-2.358-36.747 21.027s16.31 51.682 36.55 63.473c20.241 11.79 36.748 2.358 36.748-21.027s-16.31-51.682-36.551-63.473Z" fill="url(#s)"/><path d="M331.513 102.209c-15.524-8.843-28.101-1.768-28.101 16.114 0 17.883 12.38 39.499 27.904 48.342 15.525 9.039 28.101 1.768 28.101-16.114 0-17.686-12.38-39.499-27.904-48.342Z" fill="url(#t)"/><path opacity=".25" d="M305.574 122.253c0-17.882 12.577-24.956 28.101-16.113 7.074 4.126 13.363 10.808 18.275 18.471-5.109-9.432-12.576-17.685-20.633-22.402-15.525-8.843-28.101-1.768-28.101 16.114 0 9.629 3.734 20.634 9.629 29.87-4.52-8.45-7.271-17.686-7.271-25.94Z" fill="#60042E"/><path d="M258.411 93.563c.394 0 .787-.196 1.18-.196h.196c.393 0 .786-.197.983-.197h.196c.393 0 .786-.196 1.179-.196h.393c.197 0 .393 0 .59-.197.196 0 .196 0 .393-.196.196 0 .393-.197.589-.197.197 0 .197 0 .393-.196.197 0 .393-.197.59-.197.196 0 .196 0 .393-.196.196 0 .393-.197.589-.197h.197c.393-.197.982-.393 1.375-.59h.197a9.682 9.682 0 0 1 1.376-.589h.196l1.179-.59h.197c.393-.196.786-.393.982-.59h.197c.393-.196.786-.392.982-.589 0 0 .197 0 .197-.196.393-.197.589-.393.982-.59h.197c.393-.196.589-.393.982-.59l.197-.196c.196-.196.589-.393.786-.59 0 0 .196 0 .196-.196.393-.196.59-.393.983-.59 0 0 .196 0 .196-.196.197-.196.59-.393.787-.59l.196-.196c.393-.196.59-.393.983-.59h.196c.197-.196.59-.392.786-.589l.197-.196c.196-.197.589-.393.786-.59l.196-.196c.393-.197.59-.393.983-.787l.196-.196c.197-.197.59-.393.786-.59l.197-.196c.393-.197.589-.59.982-.786l.197-.197c.196-.196.589-.393.786-.786 0 0 .196 0 .196-.196.393-.197.59-.59.983-.786l.196-.197.983-.982.983-.983.196-.196c.393-.393.786-.786.983-1.18l.196-.196c.393-.393.59-.786.983-1.179l.196-.196c.197-.197.197-.393.393-.59l.197-.196c.196-.197.393-.394.589-.787.197-.196.393-.589.59-.785l.196-.197c.197-.197.197-.393.393-.59l.197-.196c.196-.393.589-.786.786-.983v-.196c.196-.393.393-.59.786-.983v-.196c.196-.393.393-.786.589-.983 0 0 0-.196.197-.196.196-.393.393-.786.589-.983v-.196c.197-.393.393-.786.59-.983l.59-1.179s0-.197.196-.197l.59-1.178v-.197c.196-.393.393-.786.393-1.18.196-.392.196-.589.393-.982v-.196c0-.197.196-.393.196-.59v-.196c0-.197.197-.59.197-.786v-.197c0-.196.196-.393.196-.786v-.196c0-.197 0-.393.197-.59v-.196c0-.197 0-.393.196-.59v-.196c0-.197 0-.59.197-.786V47.58c0-.197 0-.59-.197-.786v-.197c0-.196 0-.393-.196-.59v-.196c0-.196-.197-.393-.197-.59v-.196c0-.196-.196-.393-.196-.59v-.196c0-.196-.197-.393-.197-.59 0-.196-.196-.392-.196-.589v-.197c0-.196-.197-.392-.197-.392v-.197c-.196-.197-.196-.393-.393-.59v-.196l-.393-.393-.196-.197 7.663 9.63.197.196.393.393v.197c.196.196.196.392.393.589 0 .197.196.393.196.393v.197c0 .196.197.393.197.59 0 .196.197.392.197.589v.196c0 .197.196.393.196.59v.196c0 .197.197.393.197.59v.196c0 .197-.001.393.196.59v.196c0 .197 0 .59.197.786v5.896c0 .196 0 .59-.197.786v.196c0 .197 0 .393-.196.59v.196c0 .197 0 .393-.197.59v.393c0 .196-.196.393-.196.786v.196c0 .197-.197.59-.197.786v.197c0 .196-.197.393-.197.59v.196c-.196.393-.196.59-.392.982-.197.393-.394.786-.394 1.18v.196l-.589 1.179s0 .197-.197.197l-.589 1.179c-.197.393-.393.786-.59.982v.197c-.196.393-.393.786-.589.982 0 0 0 .197-.197.197-.196.393-.393.786-.589.982v.197c-.197.393-.393.59-.786.982v.197c-.197.393-.59.786-.786.982v.393c-.197.197-.197.393-.393.59l-.197.196c-.196.197-.393.59-.589.787a2.713 2.713 0 0 0-.59.785l-.196.197c-.197.197-.197.393-.393.59l-.197.196c-.393.393-.589.786-.982 1.18l-.197.196c-.393.393-.59.786-.983 1.179l-.196.196-.983.983-.982.982-.197.197c-.196.196-.589.59-.982.786 0 0-.197 0-.197.196-.196.197-.589.393-.786.786l-.196.197c-.197.196-.59.59-.983.786l-.196.197c-.197.196-.59.392-.786.589l-.197.197c-.393.196-.589.392-.982.786l-.197.196c-.196.197-.589.393-.786.59h-.393c-.196.196-.59.393-.786.59h-.197c-.393.196-.589.392-.982.589h-.197s-.196 0-.196.196c-.197.197-.59.393-.786.59 0 0-.197 0-.197.196-.393.197-.589.393-.982.59h-.197c-.196.196-.589.393-.786.59l-.196.196c-.393.196-.59.393-.983.59h-.196c-.393.196-.59.392-.983.589 0 0-.196 0-.196.196-.393.197-.786.393-.983.59h-.196c-.393.196-.786.393-.983.59h-.197l-1.179.589h-.393a9.488 9.488 0 0 1-1.375.589h-.197c-.393.197-.982.393-1.375.59h-.197c-.196 0-.393.197-.589.197-.197 0-.197 0-.393.196-.197 0-.393.197-.59.197-.196 0-.196 0-.393.196-.196 0-.393.197-.589.197-.197 0-.197 0-.393.196-.197 0-.393 0-.59.197h-.393c-.393.196-.786.196-1.179.196h-.197c-.393 0-.786.197-.982.197h-.197c-.393 0-.786.196-1.179.196h-.196c-.393 0-.786.197-1.179.197-8.254 1.179-14.542-.983-18.079-5.306l-7.664-9.63c3.341 4.324 9.629 6.486 18.079 5.307.393 0 .786-.197 1.179-.197.393.393.589.393.589.393Z" fill="url(#u)"/><path d="M298.892 60.942c6.288-15.72-2.162-26.725-18.865-24.367-16.703 2.358-35.568 17.096-41.857 32.817-6.288 15.721 2.162 26.726 18.865 24.368 16.704-2.359 35.569-17.097 41.857-32.818Z" fill="url(#v)"/><path d="M291.621 61.925c4.913-11.987-1.572-20.437-14.345-18.668-12.773 1.768-27.118 12.97-32.031 25.153-4.913 11.987 1.572 20.437 14.345 18.668 12.97-1.768 27.315-13.166 32.031-25.153Z" fill="url(#w)"/><path opacity=".25" d="M274.721 45.418c12.773-1.768 19.258 6.485 14.345 18.669-2.161 5.502-6.288 10.808-11.397 15.13 6.288-4.715 11.398-10.807 13.952-17.292 4.913-11.987-1.572-20.437-14.345-18.668-7.074.982-14.345 4.716-20.437 10.022 5.502-4.127 11.79-7.075 17.882-7.86Z" fill="#60042E"/><path d="M388.108 46.204c-.393.197-.59.393-.983.393h-.196c-.197.197-.59.197-.786.393h-.197c-.393.197-.589.393-.982.393 0 0-.197 0-.197.197-.196 0-.197.196-.393.196-.197 0-.196 0-.393.197-.196 0-.393.196-.393.196-.196 0-.197 0-.393.197-.197 0-.393.196-.393.196s-.197 0-.197.197c-.196 0-.393.196-.589.196h-.197c-.393.197-.786.197-1.179.393h-.196c-.393.197-.786.197-1.179.393h-.197c-.393.197-.786.197-.982.197h-.197c-.393 0-.589.196-.982.196h-.197c-.393 0-.589.197-.982.197h-.197c-.393 0-.589.196-.983.196h-.196c-.393 0-.59.197-.983.197h-.196c-.196 0-.59 0-.786.196h-.197c-.393 0-.589 0-.982.197h-11.791c-.393 0-.786 0-1.179-.197h-.196c-.393 0-.983-.196-1.376-.196h-.196c-.393 0-.786-.197-1.376-.197h-.197c-.196 0-.393 0-.589-.196h-.196c-.197 0-.59-.197-.787-.197-.196 0-.589-.196-.786-.196h-.196c-.197 0-.393 0-.59-.197h-.196c-.393 0-.786-.196-1.179-.393h-.197c-.393-.196-.786-.196-.982-.393h-.197c-.393-.196-.786-.196-.982-.393h-.197c-.393-.196-.786-.196-.982-.393h-.197c-.393-.196-.589-.196-.982-.393s-.59-.197-.983-.393h-.197c-.393-.197-.589-.393-.982-.393h-.197c-.393-.197-.589-.393-.982-.59-.197-.196-.59-.196-.786-.392 0 0-.197 0-.197-.197-.196-.197-.393-.197-.589-.393 0 0-.197 0-.197-.197-.196-.196-.393-.393-.786-.393h-.196c-.197-.196-.393-.196-.59-.393l-.196-.196c-.197 0-.197-.197-.393-.197l-.197-.196-.393-.393s-.196 0-.196-.197c-.197-.196-.393-.393-.59-.393l-.393-.393-.196-.196-.197-.197-.196-.196-.197-.197-.196-.196-.197-.197-.393-.393-.589-.59v-.196c-.197-.196-.394-.393-.394-.59v-.196c-.196-.196-.196-.393-.393-.59v-.196c-.196-.196-.196-.393-.393-.59v-.196c0-.197-.196-.393-.196-.393v-.197c0-.196-.197-.392-.197-.589v-.197c0-.196-.196-.392-.196-.392v-.197c0-.197-.197-.393-.197-.59 0-.196 0-.393-.196-.59v-2.161l.196 11.005v1.965c0 .196 0 .393.197.59 0 .196.196.392.196.589v.197c0 .196.197.393.197.393 0 .196.196.393.196.59v.196c0 .196.197.393.197.393.196.196.196.393.393.59v.196c.197.196.196.393.393.59.196.196.196.392.393.589v.196l.589.59.394.393.196.196.197.197.196.196.197.197.196.196.197.197.393.393c.196.196.393.393.589.393 0 0 .197 0 .197.196l.393.393.196.197c.197 0 .197.196.393.196h.197c.196.197.393.197.589.393h.197c.196.197.393.393.786.393 0 0 .196 0 .196.197.197.197.393.197.59.393 0 0 .196 0 .196.197.197.196.59.196.786.392.393.197.59.394.983.59h.197c.393.197.589.393.982.393h.197c.393.197.589.393.982.393.393.197.59.197.983.393h.196c.393.197.786.197.983.393h.196c.393.197.786.197.983.393h.196c.393.197.786.197.983.393h.196c.393.197.786.197 1.179.393h.393c.197 0 .393 0 .59.197h.196c.197 0 .59.196.786.196.197 0 .59.197.787.197h.196c.197 0 .393 0 .59.196h.393c.393 0 .786.197 1.375.197h.197c.393 0 .982.196 1.375.196h.197c.393 0 .786 0 1.179.197h12.576c.393 0 .59 0 .983-.197h.197c.196 0 .589 0 .785-.196h.197c.393 0 .59-.197.983-.197h.196c.393 0 .59-.196.983-.196h.196c.393 0 .786-.197.983-.197.393 0 .589-.196.982-.196h.197c.393 0 .786-.197.982-.197h.393c.393-.196.786-.196 1.179-.393h.197c.393-.196.786-.196 1.179-.393h.196c.197 0 .394-.196.59-.196 0 0 .197 0 .197-.197.196 0 .393-.196.393-.196.196 0 .196 0 .393-.197.196 0 .393-.196.393-.196.196 0 .196 0 .393-.197.196 0 .196-.196.393-.196h.393c.393-.197.589-.197.982-.393h.197c.196-.197.589-.197.786-.394h.196c.393-.196.59-.392.983-.392 0 0 .196 0 .196-.197.393-.197.59-.393.983-.59 6.485-3.93 9.629-9.039 9.629-13.952l-.197-11.004c.197 4.912-3.144 10.022-9.629 13.952-1.768 1.179-1.965 1.376-2.554 1.572.196 0 .196 0 0 0Z" fill="url(#x)"/><path d="M341.338 46.794c-13.559-7.271-13.755-19.848-.786-27.708 12.97-8.057 34.586-8.45 47.949-1.18 13.559 7.272 13.755 19.848.786 27.709-12.97 8.057-34.586 8.45-47.949 1.179Z" fill="url(#y)"/><path d="M346.84 43.257c-10.218-5.7-10.611-15.132-.589-21.223 10.022-6.092 26.332-6.485 36.551-.787 10.218 5.7 10.611 15.132.589 21.224-9.825 6.091-26.136 6.484-36.551.786Z" fill="url(#z)"/><path opacity=".25" d="M349.198 22.034c-10.022 6.092-9.629 15.524.59 21.223 4.716 2.555 10.612 3.93 16.703 3.93-7.074.393-14.148-.982-19.651-3.93-10.218-5.699-10.611-15.131-.589-21.223 5.502-3.34 12.773-4.913 20.044-4.913-6.288.393-12.38 1.965-17.097 4.913Z" fill="#60042E"/><g opacity=".68"><path opacity=".68" d="M291.425 45.025v233.258c-5.896-1.965-11.398-4.52-16.507-7.271-.393-.197-.786-.393-1.179-.786v-225.2h17.686Z" fill="url(#A)"/><path opacity=".68" d="M345.268 45.025v238.957c-9.629.982-19.258.982-28.887-.197V45.025h28.887Z" fill="url(#B)"/><path opacity=".68" d="M396.361 70.769v194.937a90.664 90.664 0 0 1-7.86 5.306c-2.751 1.572-5.503 2.948-8.45 4.324V70.965h16.31v-.196Z" fill="url(#C)"/></g><path d="m445.489 507.61-77.032 44.804-77.621-44.804 77.032-44.804 77.621 44.804Z" fill="url(#D)"/><path d="m445.489 507.61-77.032 44.804-77.621-44.804 2.162-1.376 75.459 43.626 74.871-43.626 2.161 1.376Z" fill="#fff"/><path d="m417.782 507.61-49.521 28.69-49.717-28.69 49.324-28.887 49.914 28.887Z" fill="url(#E)"/><path d="m368.457 552.415-77.621-44.805-.197 42.25 77.622 44.804 77.032-44.804.196-42.25-77.032 44.805Z" fill="url(#F)"/><path d="m445.293 524.706-77.032 44.804-77.425-44.804-.197 7.271 77.622 44.804 77.032-44.804v-7.271Z" fill="url(#G)"/><path d="m318.544 507.61 6.485 3.733 42.839-24.956v-7.664l-49.324 28.887Zm49.324-28.887v7.664l43.429 24.956 6.485-3.733-49.914-28.887Z" fill="#7626D3"/><path d="M319.133 394.813V508.2l49.913 28.69 49.521-28.69V394.813h-99.434Z" fill="url(#H)"/><path d="m187.864 350.402-77.228 44.804-77.425-44.804 77.032-44.804 77.621 44.804Z" fill="url(#I)"/><path d="m187.864 350.402-77.228 44.804-77.425-44.804 2.161-1.179 75.264 43.428 74.87-43.428 2.358 1.179Z" fill="#fff"/><path d="m160.156 350.402-49.521 28.887-49.913-28.887 49.52-28.69 49.914 28.69Z" fill="url(#J)"/><path d="M110.635 395.207 33.21 350.402l-.196 42.25 77.621 44.804 77.032-44.804.197-42.25-77.229 44.805Z" fill="url(#K)"/><path d="m187.667 367.694-77.032 44.805-77.621-44.805v7.075l77.621 44.804 77.032-44.804v-7.075Z" fill="url(#L)"/><path d="m60.722 350.402 6.681 3.931 42.839-24.957v-7.664l-49.52 28.69Z" fill="#7626D3"/><path d="M110.242 321.712v7.664l43.232 24.957 6.682-3.931-49.914-28.69Z" fill="#7626D3"/><path d="M62.294 238.391v113.386l49.914 28.69 49.52-28.69V238.391H62.294Z" fill="url(#M)"/><path d="m198.083 516.846-77.032 44.805-77.621-44.805 77.032-44.804 77.621 44.804Z" fill="url(#N)"/><path d="m198.083 516.846-77.032 44.805-77.621-44.805 2.161-1.375 75.46 43.625 74.87-43.625 2.162 1.375Z" fill="#fff"/><path d="m170.375 516.846-49.52 28.69-49.717-28.69 49.52-28.887 49.717 28.887Z" fill="url(#O)"/><path d="M121.051 561.651 43.43 516.847v42.249l77.425 44.805 77.228-44.805v-42.249l-77.032 44.804Z" fill="url(#P)"/><path d="m198.083 533.942-77.228 44.805-77.425-44.805v7.271l77.425 44.805 77.228-44.805v-7.271Z" fill="url(#Q)"/><path d="m71.138 516.846 6.484 3.734 43.036-24.957v-7.664l-49.52 28.887Zm49.52-28.887v7.664l43.232 24.957 6.485-3.734-49.717-28.887Z" fill="#7626D3"/><path d="M71.138 403.46v113.386l49.717 28.691 49.52-28.691V403.46H71.138Z" fill="url(#R)"/><defs><linearGradient id="a" x1="172.11" y1="221.888" x2="123.674" y2="112.828" gradientUnits="userSpaceOnUse"><stop stop-color="#454545" stop-opacity="0"/><stop offset="1" stop-color="#fff"/></linearGradient><linearGradient id="b" x1="518.872" y1="428.809" x2="564.946" y2="325.069" gradientUnits="userSpaceOnUse"><stop stop-color="#3C3C3C" stop-opacity="0"/><stop offset="1" stop-color="#fff"/></linearGradient><linearGradient id="c" x1="566.215" y1="338.289" x2="489.43" y2="249.429" gradientUnits="userSpaceOnUse"><stop stop-color="#FEAB2A"/><stop offset="1" stop-color="#FFFF15"/></linearGradient><linearGradient id="d" x1="602.387" y1="362.722" x2="502.27" y2="231.916" gradientUnits="userSpaceOnUse"><stop stop-color="#A827C7"/><stop offset="1" stop-color="#FFD215"/></linearGradient><linearGradient id="e" x1="530.083" y1="278.296" x2="530.083" y2="257.333" gradientUnits="userSpaceOnUse"><stop stop-color="#A827C7"/><stop offset="1" stop-color="#F91C76"/></linearGradient><linearGradient id="f" x1="553.366" y1="291.226" x2="519.973" y2="241.23" gradientUnits="userSpaceOnUse"><stop stop-color="#FEAB2A"/><stop offset="1" stop-color="#FFFF15"/></linearGradient><linearGradient id="g" x1="554.439" y1="291.235" x2="534.944" y2="238.913" gradientUnits="userSpaceOnUse"><stop stop-color="#A827C7"/><stop offset="1" stop-color="#FFD215"/></linearGradient><linearGradient id="h" x1="125.547" y1="288.586" x2="52.477" y2="212.678" gradientUnits="userSpaceOnUse"><stop stop-color="#FEAB2A"/><stop offset="1" stop-color="#FFFF15"/></linearGradient><linearGradient id="i" x1="119.908" y1="285.053" x2="60.518" y2="223.356" gradientUnits="userSpaceOnUse"><stop stop-color="#A827C7"/><stop offset="1" stop-color="#FFD215"/></linearGradient><linearGradient id="j" x1="28.977" y1="307.197" x2="89.1" y2="193.868" gradientUnits="userSpaceOnUse"><stop stop-color="#A827C7"/><stop offset="1" stop-color="#FFD215"/></linearGradient><linearGradient id="k" x1="448.528" y1="316.917" x2="231.275" y2="170.865" gradientUnits="userSpaceOnUse"><stop stop-color="#430772"/><stop offset="1" stop-color="#914DF4"/></linearGradient><linearGradient id="l" x1="220.46" y1="269.476" x2="442.365" y2="269.476" gradientUnits="userSpaceOnUse"><stop offset=".017" stop-color="#C21EF7"/><stop offset="1" stop-color="#FFFDFE"/></linearGradient><linearGradient id="m" x1="407.84" y1="288.407" x2="226.986" y2="169.561" gradientUnits="userSpaceOnUse"><stop stop-color="#A827C7"/><stop offset="1" stop-color="#FFD215"/></linearGradient><linearGradient id="n" x1="328.588" y1="261.444" x2="349.747" y2="87.136" gradientUnits="userSpaceOnUse"><stop stop-color="#430772"/><stop offset=".965" stop-color="#914DF4"/></linearGradient><linearGradient id="o" x1="497.36" y1="434.141" x2="263.132" y2="226.33" gradientUnits="userSpaceOnUse"><stop stop-color="#430772"/><stop offset=".965" stop-color="#914DF4"/></linearGradient><linearGradient id="p" x1="466.009" y1="408.628" x2="274.556" y2="238.768" gradientUnits="userSpaceOnUse"><stop stop-color="#A827C7"/><stop offset="1" stop-color="#FFD215"/></linearGradient><linearGradient id="q" x1="331.41" y1="263.109" x2="331.41" y2="-5.296" gradientUnits="userSpaceOnUse"><stop stop-color="#FFD215"/><stop offset=".042" stop-color="#FFD527" stop-opacity=".958"/><stop offset=".188" stop-color="#FFE05F" stop-opacity=".813"/><stop offset=".333" stop-color="#FFEA90" stop-opacity=".667"/><stop offset=".477" stop-color="#FFF1B8" stop-opacity=".523"/><stop offset=".617" stop-color="#FFF7D7" stop-opacity=".383"/><stop offset=".752" stop-color="#FFFCED" stop-opacity=".247"/><stop offset=".882" stop-color="#FFFEFA" stop-opacity=".118"/><stop offset="1" stop-color="#fff" stop-opacity="0"/></linearGradient><linearGradient id="r" x1="310.816" y1="181.339" x2="362.225" y2="91.46" gradientUnits="userSpaceOnUse"><stop stop-color="#A827C7"/><stop offset="1" stop-color="#FFD215"/></linearGradient><linearGradient id="s" x1="312.399" y1="165.186" x2="343.874" y2="114.127" gradientUnits="userSpaceOnUse"><stop stop-color="#FEAB2A"/><stop offset="1" stop-color="#FFFF15"/></linearGradient><linearGradient id="t" x1="307.064" y1="158.714" x2="349.031" y2="116.748" gradientUnits="userSpaceOnUse"><stop stop-color="#A827C7"/><stop offset="1" stop-color="#FFD215"/></linearGradient><linearGradient id="u" x1="232.581" y1="55.214" x2="302.587" y2="82.947" gradientUnits="userSpaceOnUse"><stop stop-color="#A827C7"/><stop offset="1" stop-color="#FFD215"/></linearGradient><linearGradient id="v" x1="244.372" y1="54.687" x2="284.376" y2="72.076" gradientUnits="userSpaceOnUse"><stop stop-color="#FEAB2A"/><stop offset="1" stop-color="#FFFF15"/></linearGradient><linearGradient id="w" x1="248.48" y1="50.179" x2="283.021" y2="76.059" gradientUnits="userSpaceOnUse"><stop stop-color="#A827C7"/><stop offset="1" stop-color="#FFD215"/></linearGradient><linearGradient id="x" x1="384.167" y1="4.765" x2="351.364" y2="64.177" gradientUnits="userSpaceOnUse"><stop stop-color="#A827C7"/><stop offset="1" stop-color="#FFD215"/></linearGradient><linearGradient id="y" x1="375.662" y1="11.156" x2="357.8" y2="46.178" gradientUnits="userSpaceOnUse"><stop stop-color="#FEAB2A"/><stop offset="1" stop-color="#FFFF15"/></linearGradient><linearGradient id="z" x1="370.221" y1="10.375" x2="361.025" y2="48.172" gradientUnits="userSpaceOnUse"><stop stop-color="#A827C7"/><stop offset="1" stop-color="#FFD215"/></linearGradient><linearGradient id="A" x1="282.469" y1="351.612" x2="282.469" y2="66.923" gradientUnits="userSpaceOnUse"><stop stop-color="#FFD215"/><stop offset=".042" stop-color="#FFD527" stop-opacity=".958"/><stop offset=".188" stop-color="#FFE05F" stop-opacity=".813"/><stop offset=".333" stop-color="#FFEA90" stop-opacity=".667"/><stop offset=".477" stop-color="#FFF1B8" stop-opacity=".523"/><stop offset=".617" stop-color="#FFF7D7" stop-opacity=".383"/><stop offset=".752" stop-color="#FFFCED" stop-opacity=".247"/><stop offset=".882" stop-color="#FFFEFA" stop-opacity=".118"/><stop offset="1" stop-color="#fff" stop-opacity="0"/></linearGradient><linearGradient id="B" x1="330.837" y1="351.612" x2="330.837" y2="66.921" gradientUnits="userSpaceOnUse"><stop stop-color="#FFD215"/><stop offset=".042" stop-color="#FFD527" stop-opacity=".958"/><stop offset=".188" stop-color="#FFE05F" stop-opacity=".813"/><stop offset=".333" stop-color="#FFEA90" stop-opacity=".667"/><stop offset=".477" stop-color="#FFF1B8" stop-opacity=".523"/><stop offset=".617" stop-color="#FFF7D7" stop-opacity=".383"/><stop offset=".752" stop-color="#FFFCED" stop-opacity=".247"/><stop offset=".882" stop-color="#FFFEFA" stop-opacity=".118"/><stop offset="1" stop-color="#fff" stop-opacity="0"/></linearGradient><linearGradient id="C" x1="388.133" y1="351.612" x2="388.133" y2="66.921" gradientUnits="userSpaceOnUse"><stop stop-color="#FFD215"/><stop offset=".042" stop-color="#FFD527" stop-opacity=".958"/><stop offset=".188" stop-color="#FFE05F" stop-opacity=".813"/><stop offset=".333" stop-color="#FFEA90" stop-opacity=".667"/><stop offset=".477" stop-color="#FFF1B8" stop-opacity=".523"/><stop offset=".617" stop-color="#FFF7D7" stop-opacity=".383"/><stop offset=".752" stop-color="#FFFCED" stop-opacity=".247"/><stop offset=".882" stop-color="#FFFEFA" stop-opacity=".118"/><stop offset="1" stop-color="#fff" stop-opacity="0"/></linearGradient><linearGradient id="D" x1="463.615" y1="586.148" x2="354.733" y2="496.537" gradientUnits="userSpaceOnUse"><stop stop-color="#430772"/><stop offset=".965" stop-color="#914DF4"/></linearGradient><linearGradient id="E" x1="318.446" y1="507.556" x2="417.796" y2="507.556" gradientUnits="userSpaceOnUse"><stop stop-color="#F91C76"/><stop offset="1" stop-color="#FFD215"/></linearGradient><linearGradient id="F" x1="422.515" y1="602.589" x2="325.517" y2="470.903" gradientUnits="userSpaceOnUse"><stop stop-color="#430772"/><stop offset=".984" stop-color="#914DF4"/></linearGradient><linearGradient id="G" x1="467.842" y1="591.76" x2="313.668" y2="493.754" gradientUnits="userSpaceOnUse"><stop stop-color="#F91C76"/><stop offset="1" stop-color="#FFD215"/></linearGradient><linearGradient id="H" x1="368.795" y1="528.621" x2="368.795" y2="382.616" gradientUnits="userSpaceOnUse"><stop stop-color="#FFD215"/><stop offset=".042" stop-color="#FFD527" stop-opacity=".958"/><stop offset=".188" stop-color="#FFE05F" stop-opacity=".813"/><stop offset=".333" stop-color="#FFEA90" stop-opacity=".667"/><stop offset=".477" stop-color="#FFF1B8" stop-opacity=".523"/><stop offset=".617" stop-color="#FFF7D7" stop-opacity=".383"/><stop offset=".752" stop-color="#FFFCED" stop-opacity=".247"/><stop offset=".882" stop-color="#FFFEFA" stop-opacity=".118"/><stop offset="1" stop-color="#fff" stop-opacity="0"/></linearGradient><linearGradient id="I" x1="205.959" y1="429.041" x2="97.077" y2="339.431" gradientUnits="userSpaceOnUse"><stop stop-color="#430772"/><stop offset=".965" stop-color="#914DF4"/></linearGradient><linearGradient id="J" x1="60.791" y1="350.45" x2="160.14" y2="350.45" gradientUnits="userSpaceOnUse"><stop stop-color="#F91C76"/><stop offset="1" stop-color="#FFD215"/></linearGradient><linearGradient id="K" x1="164.859" y1="445.482" x2="67.862" y2="313.797" gradientUnits="userSpaceOnUse"><stop stop-color="#430772"/><stop offset=".984" stop-color="#914DF4"/></linearGradient><linearGradient id="L" x1="210.187" y1="434.653" x2="56.013" y2="336.647" gradientUnits="userSpaceOnUse"><stop stop-color="#F91C76"/><stop offset="1" stop-color="#FFD215"/></linearGradient><linearGradient id="M" x1="112.067" y1="372.223" x2="112.067" y2="226.218" gradientUnits="userSpaceOnUse"><stop stop-color="#FFD215"/><stop offset=".042" stop-color="#FFD527" stop-opacity=".958"/><stop offset=".188" stop-color="#FFE05F" stop-opacity=".813"/><stop offset=".333" stop-color="#FFEA90" stop-opacity=".667"/><stop offset=".477" stop-color="#FFF1B8" stop-opacity=".523"/><stop offset=".617" stop-color="#FFF7D7" stop-opacity=".383"/><stop offset=".752" stop-color="#FFFCED" stop-opacity=".247"/><stop offset=".882" stop-color="#FFFEFA" stop-opacity=".118"/><stop offset="1" stop-color="#fff" stop-opacity="0"/></linearGradient><linearGradient id="N" x1="216.229" y1="595.412" x2="107.347" y2="505.801" gradientUnits="userSpaceOnUse"><stop stop-color="#430772"/><stop offset=".965" stop-color="#914DF4"/></linearGradient><linearGradient id="O" x1="71.061" y1="516.82" x2="170.411" y2="516.82" gradientUnits="userSpaceOnUse"><stop stop-color="#F91C76"/><stop offset="1" stop-color="#FFD215"/></linearGradient><linearGradient id="P" x1="175.13" y1="611.853" x2="78.133" y2="480.168" gradientUnits="userSpaceOnUse"><stop stop-color="#430772"/><stop offset=".984" stop-color="#914DF4"/></linearGradient><linearGradient id="Q" x1="220.457" y1="601.024" x2="66.283" y2="503.018" gradientUnits="userSpaceOnUse"><stop stop-color="#F91C76"/><stop offset="1" stop-color="#FFD215"/></linearGradient><linearGradient id="R" x1="120.736" y1="537.29" x2="120.736" y2="391.284" gradientUnits="userSpaceOnUse"><stop stop-color="#FFD215"/><stop offset=".042" stop-color="#FFD527" stop-opacity=".958"/><stop offset=".188" stop-color="#FFE05F" stop-opacity=".813"/><stop offset=".333" stop-color="#FFEA90" stop-opacity=".667"/><stop offset=".477" stop-color="#FFF1B8" stop-opacity=".523"/><stop offset=".617" stop-color="#FFF7D7" stop-opacity=".383"/><stop offset=".752" stop-color="#FFFCED" stop-opacity=".247"/><stop offset=".882" stop-color="#FFFEFA" stop-opacity=".118"/><stop offset="1" stop-color="#fff" stop-opacity="0"/></linearGradient></defs></svg>