<svg width="34" height="31" fill="none" xmlns="http://www.w3.org/2000/svg"><path d="M33.126.61A2.506 2.506 0 0 0 30.57.174L1.593 11.562a2.513 2.513 0 0 0 .426 4.803l7.36 1.472v9.196a2.512 2.512 0 0 0 4.288 1.777l4.073-4.074 6.183 5.442a2.49 2.49 0 0 0 2.43.505 2.492 2.492 0 0 0 1.677-1.83l5.906-25.778a2.507 2.507 0 0 0-.81-2.465ZM10.344 15.467 2.512 13.9l21.93-8.619-14.098 10.186Zm1.547 11.564v-7.445l3.96 3.485-3.96 3.96Zm13.69 1.26L12.647 16.903 31.273 3.447 25.582 28.29Z" fill="#0E0E0E" fill-opacity=".5"/></svg>