<svg width="144" height="45" fill="none" xmlns="http://www.w3.org/2000/svg"><path d="M.406.594H12.25V45H.406V.594Zm20.438 0h14.781L48.5 27.219c.438.896.948 2.146 1.531 3.75.584 1.583 1.23 3.531 1.938 5.843a90.316 90.316 0 0 1-.844-6.03 55.923 55.923 0 0 1-.25-5.032V.594h10.688V45h-14.72L33.47 17.406a37.757 37.757 0 0 1-1.719-4.125c-.52-1.5-1-3.125-1.438-4.875.417 2.646.72 5.084.907 7.313.208 2.208.312 4.156.312 5.844V45H20.844V.594Zm49.25 0h29.25V9.03H82v9.47h16.594v8.438H82V45H70.094V.594Zm29.75 0h13.437l8.875 18.75L131 .594h12.75l-16.125 27.781V45h-11.844V28.5L99.844.594Z" fill="#fff" fill-opacity=".2"/></svg>