<svg width="20" height="22" fill="none" xmlns="http://www.w3.org/2000/svg"><path d="M18.75 9.688h-1.86V3.561a3.5 3.5 0 0 0-3.5-3.5H6.61a3.5 3.5 0 0 0-3.5 3.5v6.126H1.25a.874.874 0 0 0-.875.874v10.5c0 .485.391.875.875.875h17.5a.874.874 0 0 0 .875-.875v-10.5a.874.874 0 0 0-.875-.874ZM5.078 3.561c0-.844.686-1.53 1.531-1.53h6.782c.845 0 1.53.686 1.53 1.53v6.126H5.079V3.561ZM17.656 19.97H2.344v-8.313h15.312v8.313Zm-8.422-3.801v1.45c0 .12.099.218.22.218h1.093a.22.22 0 0 0 .219-.219v-1.449a1.313 1.313 0 1 0-1.532 0Z" fill="url(#a)" fill-opacity=".7"/><defs><linearGradient id="a" x1="10" y1=".063" x2="10" y2="21.938" gradientUnits="userSpaceOnUse"><stop stop-color="#441E78"/><stop offset="1" stop-color="#623C8C"/></linearGradient></defs></svg>