<svg width="253" height="62" fill="none" xmlns="http://www.w3.org/2000/svg"><path d="M123.15 20.152c-.937 0-1.705-.275-2.302-.826-.598-.562-.897-1.248-.897-2.056 0-.832.299-1.512.897-2.04.597-.527 1.365-.79 2.302-.79.95 0 1.717.263 2.303.79.598.528.897 1.207.897 2.04 0 .843-.299 1.535-.897 2.074-.586.539-1.353.808-2.303.808ZM125.893 41h-5.555V23h5.555v18Zm23.86 0h-5.537V30.998c0-2.789-.996-4.184-2.988-4.184-.961 0-1.752.37-2.373 1.108-.621.738-.932 1.676-.932 2.812V41h-5.555V23h5.555v2.848h.07c1.325-2.192 3.252-3.287 5.784-3.287 3.984 0 5.976 2.472 5.976 7.418V41Zm17.954-22.395c-.714-.28-1.4-.421-2.056-.421-1.781 0-2.672.966-2.672 2.9V23h4.113v4.096h-4.113V41h-5.537V27.096h-3.024V23h3.024v-2.232c0-2.051.668-3.704 2.004-4.958 1.336-1.253 3.152-1.88 5.449-1.88 1.125 0 2.062.117 2.812.351v4.324Zm6.687 1.547c-.937 0-1.705-.275-2.303-.826-.597-.562-.896-1.248-.896-2.056 0-.832.299-1.512.896-2.04.598-.527 1.366-.79 2.303-.79.949 0 1.717.263 2.303.79.598.528.896 1.207.896 2.04 0 .843-.298 1.535-.896 2.074-.586.539-1.354.808-2.303.808ZM177.136 41h-5.554V23h5.554v18Zm23.861 0h-5.537V30.998c0-2.789-.996-4.184-2.989-4.184-.96 0-1.751.37-2.373 1.108-.621.738-.931 1.676-.931 2.812V41h-5.555V23h5.555v2.848h.07c1.324-2.192 3.252-3.287 5.783-3.287 3.985 0 5.977 2.472 5.977 7.418V41Zm9.024-20.848c-.937 0-1.705-.275-2.302-.826-.598-.562-.897-1.248-.897-2.056 0-.832.299-1.512.897-2.04.597-.527 1.365-.79 2.302-.79.95 0 1.717.263 2.303.79.598.528.897 1.207.897 2.04 0 .843-.299 1.535-.897 2.074-.586.539-1.353.808-2.303.808ZM212.764 41h-5.555V23h5.555v18Zm17.356-.21c-.82.433-2.056.65-3.709.65-3.914 0-5.871-2.034-5.871-6.1v-8.244h-2.918V23h2.918v-3.885l5.537-1.582V23h4.043v4.096h-4.043v7.277c0 1.875.744 2.813 2.233 2.813.586 0 1.189-.17 1.81-.51v4.113ZM252.205 23l-7.312 19.441c-1.758 4.676-4.406 7.014-7.945 7.014-1.348 0-2.455-.152-3.323-.457v-4.43a4.67 4.67 0 0 0 2.409.65c1.429 0 2.425-.673 2.988-2.02l.949-2.233L232.659 23h6.152l3.357 10.951c.211.68.375 1.483.493 2.408h.07c.105-.68.299-1.47.58-2.373L246.704 23h5.501Z" fill="#0E0E0E"/><path d="M40.023 45.817c-18.22 9.718-30.874 1.88-34.923-3.253-1.519-2.242-3.384-8.2 1.301-14.1 4.686-5.9 11.786-4.338 14.75-2.82L40.457 45.6l-.434.217Z" fill="url(#a)"/><path d="M95.553 11.545c-9.545-20.39-41.43-10.412-52.276 4.121l16.485 18.872c15.4 15.835 45.986 6.507 35.79-22.993Z" fill="url(#b)"/><path d="M21.802 27.163C13.015 19.088-.974 31.067 5.1 42.563c-10.065-14.75-2.566-27.434 0-29.933C21.802-3.64 40.457 9.376 54.99 28.465 67.1 44.37 78.995 42.492 82.755 40.828c16.051-7.1 16.025-20.39 12.58-29.717 21.041 36.876-24.294 64.64-46.852 42.95l-26.68-26.898Z" fill="url(#c)"/><defs><linearGradient id="a" x1="3.47" y1="33.622" x2="40.346" y2="45.986" gradientUnits="userSpaceOnUse"><stop stop-color="#FEF7FE"/><stop offset="1" stop-color="#8969C8"/></linearGradient><linearGradient id="b" x1="46.203" y1="18.004" x2="95.442" y2="27.982" gradientUnits="userSpaceOnUse"><stop stop-color="#6F4CA6"/><stop offset="1" stop-color="#FEFDF9"/></linearGradient><linearGradient id="c" x1="0" y1="25.379" x2="100.648" y2="27.331" gradientUnits="userSpaceOnUse"><stop stop-color="#543286"/><stop offset=".056" stop-color="#4A287F"/><stop offset=".134" stop-color="#5A319B"/><stop offset=".268" stop-color="#6D45B8"/><stop offset=".41" stop-color="#8960E2"/><stop offset=".528" stop-color="#6F47BB"/><stop offset=".746" stop-color="#4A2380"/><stop offset="1" stop-color="#411E71"/></linearGradient></defs></svg>