<svg width="51" height="49" fill="none" xmlns="http://www.w3.org/2000/svg"><path d="M2.86 37.472c-.339 0-.616-.1-.832-.299a.981.981 0 0 1-.323-.742c0-.3.107-.546.323-.737.216-.19.493-.285.832-.285.343 0 .62.095.831.285.216.19.324.436.324.737a.963.963 0 0 1-.324.749c-.211.194-.488.292-.831.292ZM3.85 45H1.844v-6.5H3.85V45Zm8.616 0h-2v-3.612c0-1.007-.359-1.51-1.078-1.51a1.07 1.07 0 0 0-.857.4c-.224.266-.337.605-.337 1.015V45H6.19v-6.5h2.005v1.028h.026c.478-.791 1.174-1.187 2.088-1.187 1.439 0 2.158.893 2.158 2.679V45Zm6.484-8.087a2.026 2.026 0 0 0-.743-.152c-.643 0-.965.349-.965 1.047v.692h1.486v1.479h-1.486V45h-2v-5.021h-1.09V38.5h1.09v-.806c0-.74.242-1.337.724-1.79.483-.453 1.139-.68 1.968-.68.406 0 .745.043 1.016.128v1.561Zm2.415.559c-.339 0-.616-.1-.832-.299a.981.981 0 0 1-.324-.742c0-.3.108-.546.324-.737.216-.19.493-.285.832-.285.342 0 .62.095.831.285.216.19.324.436.324.737a.963.963 0 0 1-.324.749c-.212.194-.489.292-.831.292Zm.99 7.528h-2.006v-6.5h2.006V45Zm8.616 0h-2v-3.612c0-1.007-.36-1.51-1.079-1.51a1.07 1.07 0 0 0-.857.4c-.224.266-.336.605-.336 1.015V45h-2.006v-6.5H26.7v1.028h.025c.479-.791 1.175-1.187 2.089-1.187 1.439 0 2.158.893 2.158 2.679V45Zm3.259-7.528c-.339 0-.616-.1-.832-.299a.981.981 0 0 1-.323-.742c0-.3.108-.546.323-.737.216-.19.493-.285.832-.285.343 0 .62.095.832.285.215.19.323.436.323.737a.963.963 0 0 1-.323.749c-.212.194-.49.292-.832.292ZM35.22 45h-2.006v-6.5h2.006V45Zm6.268-.076c-.296.156-.743.235-1.34.235-1.413 0-2.12-.734-2.12-2.203V39.98h-1.053V38.5h1.053v-1.403l2-.571V38.5h1.46v1.479h-1.46v2.628c0 .677.269 1.016.806 1.016.212 0 .43-.062.654-.184v1.485Zm7.975-6.424-2.64 7.02c-.635 1.689-1.592 2.533-2.87 2.533-.486 0-.886-.055-1.2-.165v-1.6c.267.157.557.235.87.235.517 0 .876-.243 1.08-.73l.342-.806-2.64-6.487h2.221l1.213 3.955c.076.245.135.535.177.87h.026a6.06 6.06 0 0 1 .21-.858l1.224-3.967h1.987Z" fill="#0E0E0E"/><path d="M20.112 23.024c-9.156 4.883-15.514.945-17.549-1.635-.763-1.126-1.7-4.12.654-7.085 2.355-2.965 5.922-2.18 7.412-1.417l9.701 10.028-.218.11Z" fill="url(#a)"/><path d="M48.016 5.801C43.219-4.444 27.196.57 21.746 7.872l8.285 9.483c7.739 7.957 23.108 3.27 17.985-11.554Z" fill="url(#b)"/><path d="M10.956 13.65C6.54 9.592-.49 15.612 2.563 21.389c-5.058-7.412-1.29-13.786 0-15.042 8.393-8.175 17.767-1.635 25.07 7.957 6.085 7.992 12.062 7.048 13.952 6.213 8.066-3.568 8.053-10.246 6.322-14.933 10.573 18.53-12.208 32.481-23.544 21.582L10.956 13.65Z" fill="url(#c)"/><defs><linearGradient id="a" x1="1.744" y1="16.896" x2="20.274" y2="23.109" gradientUnits="userSpaceOnUse"><stop stop-color="#FEF7FE"/><stop offset="1" stop-color="#8969C8"/></linearGradient><linearGradient id="b" x1="23.217" y1="9.047" x2="47.96" y2="14.061" gradientUnits="userSpaceOnUse"><stop stop-color="#6F4CA6"/><stop offset="1" stop-color="#FEFDF9"/></linearGradient><linearGradient id="c" x1="0" y1="12.753" x2="50.576" y2="13.734" gradientUnits="userSpaceOnUse"><stop stop-color="#543286"/><stop offset=".056" stop-color="#4A287F"/><stop offset=".134" stop-color="#5A319B"/><stop offset=".268" stop-color="#6D45B8"/><stop offset=".41" stop-color="#8960E2"/><stop offset=".528" stop-color="#6F47BB"/><stop offset=".746" stop-color="#4A2380"/><stop offset="1" stop-color="#411E71"/></linearGradient></defs></svg>