<svg width="21" height="20" fill="none" xmlns="http://www.w3.org/2000/svg"><path d="M10.385 19.07c5.183 0 9.385-4.046 9.385-9.036C19.77 5.044 15.568 1 10.385 1S1 5.045 1 10.034c0 4.99 4.202 9.035 9.385 9.035ZM1 10.034h18.77" stroke="#FDFDFD" stroke-opacity=".8" stroke-width="1.5" stroke-linecap="round" stroke-linejoin="round"/><path d="M10.385 19.07c2.073 0 3.754-4.046 3.754-9.036 0-4.99-1.681-9.034-3.754-9.034S6.63 5.045 6.63 10.034c0 4.99 1.68 9.035 3.754 9.035Z" stroke="#FDFDFD" stroke-opacity=".8" stroke-width="1.5" stroke-linecap="round" stroke-linejoin="round"/><path d="M3.749 3.774a9.387 9.387 0 0 0 3.044 1.961 9.671 9.671 0 0 0 3.592.686v0a9.67 9.67 0 0 0 3.592-.686 9.387 9.387 0 0 0 3.044-1.96m-.001 12.519a9.388 9.388 0 0 0-3.043-1.96 9.672 9.672 0 0 0-3.592-.686 9.672 9.672 0 0 0-3.592.686 9.387 9.387 0 0 0-3.044 1.96" stroke="#FDFDFD" stroke-opacity=".8" stroke-width="1.5" stroke-linecap="round" stroke-linejoin="round"/></svg>