<svg width="514" height="610" viewBox="0 0 514 610" fill="none" xmlns="http://www.w3.org/2000/svg">
<path d="M270.275 525.967C270.275 528.666 269.6 580.292 259.14 601.212C256.44 606.611 253.066 609.985 249.017 609.985C234.508 609.31 201.103 547.562 187.944 512.47C184.907 504.372 182.882 497.961 182.545 493.574C182.208 490.538 182.882 488.851 184.232 488.851C187.269 488.851 190.306 488.851 193.342 489.188C193.68 489.188 194.017 489.188 194.692 489.525C231.134 493.912 266.226 522.93 270.275 525.967Z" fill="url(#paint0_linear_694:4371)"/>
<path d="M270.275 525.967C221.687 530.016 189.631 504.372 182.546 493.575C180.858 490.875 180.858 488.851 182.546 488.851C185.92 488.513 189.631 488.851 193.343 489.188C193.681 489.188 194.018 489.188 194.693 489.526C226.748 494.249 265.889 522.93 270.275 525.967Z" fill="url(#paint1_linear_694:4371)"/>
<path d="M358.005 493.575C357.668 498.298 355.306 506.059 351.594 515.507C337.76 550.936 306.042 609.31 291.533 609.985C288.159 609.985 285.122 607.961 282.76 603.911C270.95 584.678 270.275 526.304 270.275 526.304C270.275 526.304 270.275 526.305 270.613 525.967C274.324 522.93 309.754 493.912 346.195 489.526C346.533 489.526 346.87 489.526 347.208 489.526C350.244 489.188 353.281 489.188 356.318 489.188C357.668 488.851 358.342 490.538 358.005 493.575Z" fill="url(#paint2_linear_694:4371)"/>
<path d="M358.005 493.574C351.257 504.372 318.864 530.353 270.275 525.967C270.275 525.967 270.275 525.967 270.613 525.63C274.662 522.593 313.803 493.912 346.195 489.188C346.533 489.188 346.87 489.188 347.208 489.188C350.919 488.513 354.631 488.513 358.005 488.851C359.692 489.188 359.692 490.875 358.005 493.574Z" fill="url(#paint3_linear_694:4371)"/>
<path opacity="0.3" d="M270.275 525.967C270.275 528.666 269.6 580.292 259.14 601.212C259.14 601.212 256.44 546.55 241.931 534.403C227.422 521.918 188.281 512.47 188.281 512.47C185.244 504.372 183.22 497.961 182.883 493.575C181.195 490.875 181.195 488.851 182.883 488.851C186.257 488.513 189.968 488.851 193.68 489.188C194.017 489.188 194.355 489.188 195.03 489.526C231.134 493.912 266.226 522.93 270.275 525.967Z" fill="url(#paint4_linear_694:4371)"/>
<path opacity="0.3" d="M358.005 493.574C357.668 498.298 355.306 506.059 351.594 515.507C344.846 516.857 308.404 525.292 295.582 547.562C284.785 566.12 283.097 592.102 282.76 603.911C270.95 584.678 270.275 526.304 270.275 526.304C270.275 526.304 270.275 526.304 270.613 525.967C274.324 522.93 309.754 493.912 346.195 489.525C346.533 489.525 346.87 489.525 347.208 489.525C350.919 488.851 354.631 488.851 358.005 489.188C359.692 489.188 359.692 490.875 358.005 493.574Z" fill="url(#paint5_linear_694:4371)"/>
<path d="M201.441 336.674C200.429 347.134 198.404 358.943 195.03 370.416C195.03 370.416 191.656 375.14 185.245 382.563C169.386 400.784 133.957 434.526 78.9571 451.734C77.6075 452.072 76.2578 452.409 74.9081 453.084C66.1351 455.783 49.9389 429.127 58.3744 406.52C59.0493 404.495 60.0615 402.133 61.4112 400.109C64.7854 394.373 71.8713 386.949 80.9817 378.176C104.939 355.569 144.417 325.876 179.171 308.33C187.27 304.281 195.03 300.907 202.116 298.208C202.454 298.208 203.803 314.741 201.441 336.674Z" fill="url(#paint6_linear_694:4371)"/>
<path d="M79.2944 451.397C78.2821 452.409 77.2699 453.421 76.2576 454.434C63.0981 464.219 43.8651 458.483 54.3252 417.655C54.3252 417.655 55.3374 411.581 58.7116 406.182C61.411 401.458 66.1349 397.072 73.2208 396.397C91.1041 394.71 93.1287 435.538 79.2944 451.397Z" fill="url(#paint7_linear_694:4371)"/>
<path opacity="0.3" d="M201.441 336.674L185.244 382.563C169.386 400.784 133.956 434.526 78.9565 451.734C77.9442 452.747 76.932 453.759 75.9197 454.771C62.7603 464.556 43.5272 458.82 53.9873 417.992C53.9873 417.992 54.9995 411.919 58.3738 406.52C59.0486 404.495 60.0609 402.133 61.4106 400.109C64.7848 394.373 71.8706 386.949 80.981 378.176C80.3062 379.526 75.5823 388.637 85.7049 392.348C96.5024 396.06 152.514 382.9 177.484 356.244C202.115 329.925 201.441 304.956 179.508 308.33C187.606 304.281 195.367 300.907 202.453 298.208C202.453 298.208 203.803 314.741 201.441 336.674Z" fill="url(#paint8_linear_694:4371)"/>
<path d="M69.5089 412.594C55.6746 410.232 13.4969 440.6 0 502.348C0 502.348 1.01228 507.409 13.4969 507.747C25.9815 508.084 47.5765 485.139 62.0856 471.643C76.5947 458.146 92.791 416.98 69.5089 412.594Z" fill="url(#paint9_linear_694:4371)"/>
<path d="M13.4971 507.746C13.4971 507.746 35.4295 475.017 39.816 466.918C39.816 466.918 48.2515 426.428 61.0735 418.33C73.8956 410.569 78.282 419.342 81.3188 429.465C84.0182 439.587 62.7606 500.661 13.4971 507.746Z" fill="url(#paint10_linear_694:4371)"/>
<path opacity="0.5" d="M38.8037 473.667C38.8037 473.667 44.2025 485.814 50.6135 487.501C50.6135 487.501 44.8773 448.36 54.9999 427.44C54.9999 427.44 42.1779 446.673 38.8037 473.667Z" fill="url(#paint11_linear_694:4371)"/>
<path d="M60.3986 421.029C60.3986 421.029 73.8955 411.581 81.3187 429.464C81.3187 429.464 78.9568 458.82 62.4231 488.513C62.4231 488.513 53.9876 490.875 50.6134 487.501C43.5275 479.74 45.552 431.489 60.3986 421.029Z" fill="url(#paint12_linear_694:4371)"/>
<path d="M359.691 461.182C353.28 498.973 319.201 524.28 270.612 524.28C228.097 524.28 192.33 508.421 182.882 473.667C173.434 438.912 177.146 374.465 189.631 334.649C191.655 328.575 193.68 322.839 196.379 317.441C198.741 312.379 201.44 307.655 204.477 303.269C219.999 279.987 242.606 264.803 268.25 264.803C294.906 264.803 315.152 275.6 329.323 292.134C335.734 299.557 340.796 308.33 344.507 317.441C348.556 327.901 352.268 339.373 354.967 350.845V351.183C363.403 387.624 365.427 427.44 359.691 461.182Z" fill="url(#paint13_linear_694:4371)"/>
<path opacity="0.3" d="M359.691 461.182C353.28 498.973 319.201 524.28 270.612 524.28C228.097 524.28 192.33 508.421 182.882 473.667C173.434 438.912 177.146 374.465 189.631 334.649C191.655 328.575 193.68 322.839 196.379 317.44C196.379 317.44 170.735 402.471 191.318 456.796C211.9 511.121 307.391 509.771 339.783 473.667C370.489 439.587 356.317 358.943 354.967 351.183C363.403 387.624 365.427 427.44 359.691 461.182Z" fill="url(#paint14_linear_694:4371)"/>
<path opacity="0.5" d="M328.986 291.796C318.526 307.993 261.502 317.441 228.434 314.404C199.754 311.704 204.14 303.944 204.14 302.931C219.661 279.649 242.269 264.465 267.913 264.465C294.907 264.803 315.152 275.6 328.986 291.796Z" fill="url(#paint15_linear_694:4371)"/>
<path d="M308.74 320.14C306.041 321.152 306.041 342.41 308.74 345.784C311.44 349.158 315.826 348.146 317.513 343.085C318.863 338.023 312.789 318.79 308.74 320.14Z" fill="white"/>
<path d="M313.802 351.52C311.44 352.195 311.44 357.256 312.452 359.281C313.464 361.305 317.176 360.63 317.851 358.606C318.526 356.244 315.826 351.183 313.802 351.52Z" fill="white"/>
<path d="M332.36 295.846C332.36 295.846 329.323 291.796 325.274 290.109C325.274 290.109 336.409 345.447 358.342 368.054C358.342 368.054 348.557 315.753 332.36 295.846Z" fill="url(#paint16_linear_694:4371)"/>
<path d="M120.123 234.772C152.515 309.342 394.446 286.06 423.465 224.987C455.182 157.84 382.299 -7.4966 266.564 0.264099C168.374 6.67511 78.6197 138.944 120.123 234.772Z" fill="url(#paint17_linear_694:4371)"/>
<path d="M133.282 224.312C164.325 285.385 375.551 275.263 406.256 219.251C432.575 171.337 370.489 26.2456 264.539 31.3069C158.589 36.3682 103.589 165.601 133.282 224.312Z" fill="url(#paint18_linear_694:4371)"/>
<path d="M300.305 13.761C297.943 16.4604 323.924 27.5953 327.299 25.9082C330.673 24.5585 307.728 4.98808 300.305 13.761Z" fill="white"/>
<path opacity="0.5" d="M330.673 273.913C330.673 273.913 295.918 238.821 284.783 204.066L371.501 261.091C371.501 261.091 342.145 271.213 330.673 273.913Z" fill="url(#paint19_linear_694:4371)"/>
<path d="M172.76 136.582C172.76 136.582 200.766 132.533 228.097 140.631C232.146 141.981 219.661 127.135 200.428 124.435C181.195 121.736 171.41 129.834 172.76 136.582Z" fill="url(#paint20_radial_694:4371)"/>
<path d="M239.906 195.969C244.63 181.459 262.851 182.134 266.563 194.956C270.612 208.791 254.415 224.649 247.33 222.288C239.906 219.926 236.195 206.766 239.906 195.969Z" fill="#BE9DEA"/>
<path d="M287.821 178.086C270.613 130.509 315.827 69.7734 384.998 62.0127C384.998 62.0127 450.458 104.19 435.274 220.938C435.274 220.601 332.023 300.907 287.821 178.086Z" fill="url(#paint21_linear_694:4371)"/>
<path d="M384.999 61.6748C384.999 61.6748 408.281 62.0122 435.95 84.6195C463.281 107.564 476.44 174.711 435.612 220.263C435.275 220.6 453.496 126.797 384.999 61.6748Z" fill="url(#paint22_linear_694:4371)"/>
<path d="M327.636 162.564C329.661 184.159 394.109 182.135 404.569 162.564C413.004 146.705 388.71 95.4173 363.066 99.129C337.084 102.503 324.937 131.859 327.636 162.564Z" fill="url(#paint23_radial_694:4371)"/>
<path d="M375.55 62.6865C320.55 62.6865 275.673 107.226 275.673 162.563C275.673 217.901 320.213 262.44 375.55 262.44C430.887 262.44 475.427 217.901 475.427 162.563C475.427 107.226 430.549 62.6865 375.55 62.6865ZM375.55 245.569C329.66 245.569 292.544 208.453 292.544 162.563C292.544 116.674 329.66 79.5576 375.55 79.5576C421.439 79.5576 458.555 116.674 458.555 162.563C458.555 208.453 421.439 245.569 375.55 245.569Z" fill="url(#paint24_linear_694:4371)"/>
<path d="M375.55 55.6016C320.55 55.6016 275.673 100.141 275.673 155.478C275.673 210.478 320.213 255.355 375.55 255.355C430.887 255.355 475.427 210.816 475.427 155.478C475.427 100.479 430.549 55.6016 375.55 55.6016ZM375.55 238.484C329.66 238.484 292.544 201.368 292.544 155.478C292.544 109.589 329.66 72.4727 375.55 72.4727C421.439 72.4727 458.555 109.589 458.555 155.478C458.555 201.368 421.439 238.484 375.55 238.484Z" fill="url(#paint25_linear_694:4371)"/>
<path d="M486.562 310.355C486.562 310.355 464.967 351.183 437.636 364.68C410.305 378.176 368.465 361.98 354.968 351.183C336.41 336.336 329.661 285.723 337.422 285.723C344.508 285.723 351.256 291.122 373.863 293.821C379.937 294.496 387.023 295.171 395.796 295.508C416.041 296.183 434.937 291.122 447.421 287.073C456.194 284.036 461.93 281.336 461.93 281.336C477.452 281.336 486.562 310.355 486.562 310.355Z" fill="url(#paint26_linear_694:4371)"/>
<path d="M458.556 283.361C458.556 283.361 456.531 313.391 468.004 317.44C479.476 321.49 486.562 310.355 486.562 310.355L492.298 298.207L458.556 283.361Z" fill="url(#paint27_linear_694:4371)"/>
<path d="M423.126 246.919C423.126 246.919 464.291 292.134 492.297 310.355C492.297 310.355 509.843 308.33 513.218 291.122L453.157 221.613L423.126 246.919Z" fill="url(#paint28_linear_694:4371)"/>
<path opacity="0.5" d="M496.685 271.551C496.685 271.551 458.219 242.195 451.133 239.833C451.133 239.833 445.734 246.919 443.035 255.355C440.335 263.79 484.538 304.956 484.538 304.956C484.538 304.956 443.71 271.889 425.151 249.281C425.151 249.281 445.734 234.772 455.182 224.312L496.685 271.551Z" fill="url(#paint29_linear_694:4371)"/>
<path d="M446.747 271.889C446.072 274.251 429.538 278.975 424.814 270.202C424.477 269.189 424.14 268.515 423.802 267.502C421.103 259.742 424.814 253.668 428.189 251.981L428.526 252.318C430.888 254.343 447.084 269.527 446.747 271.889Z" fill="url(#paint30_linear_694:4371)"/>
<path d="M496.685 271.551L488.587 262.103C488.587 262.103 460.918 248.269 455.52 223.974C455.52 223.974 461.931 210.815 475.427 210.478C480.826 210.478 485.887 217.563 489.599 227.011C494.998 241.858 498.035 262.103 496.685 271.551Z" fill="url(#paint31_linear_694:4371)"/>
<path opacity="0.3" d="M486.562 310.355C486.562 310.355 464.967 351.183 437.636 364.68C410.305 378.176 368.465 361.98 354.968 351.183C336.41 336.336 329.661 285.723 337.422 285.723C344.508 285.723 351.256 291.122 373.863 293.821C372.514 293.821 353.281 292.471 349.906 297.87C346.532 303.606 384.998 359.618 423.127 344.097C461.593 328.575 453.495 287.073 447.084 287.073C455.857 284.036 461.593 281.336 461.593 281.336C477.452 281.336 486.562 310.355 486.562 310.355Z" fill="url(#paint32_linear_694:4371)"/>
<path opacity="0.3" d="M446.746 271.888C446.072 274.25 429.538 278.974 424.814 270.201C424.477 269.189 424.139 268.514 423.802 267.502C427.513 272.226 433.25 271.214 434.937 266.152C436.624 261.091 430.213 254.005 428.863 252.318C430.888 254.342 447.084 269.526 446.746 271.888Z" fill="url(#paint33_linear_694:4371)"/>
<path opacity="0.3" d="M496.685 271.551L488.587 262.103C488.587 262.103 460.918 248.269 455.52 223.975C456.194 225.324 469.354 245.907 483.526 247.932C493.986 249.281 489.937 228.698 489.599 227.011C494.998 241.858 498.035 262.103 496.685 271.551Z" fill="url(#paint34_linear_694:4371)"/>
<path d="M55.0003 442.961C55.0003 442.961 50.2764 449.71 51.2887 460.17C50.9513 460.17 56.35 453.421 55.0003 442.961Z" fill="white"/>
<path d="M17.8838 487.164C17.8838 487.164 18.8961 479.403 25.6445 474.004C25.6445 473.667 22.6077 485.139 17.8838 487.164Z" fill="white"/>
<path d="M101.902 369.741C100.89 368.054 121.135 348.483 127.209 347.808C132.945 347.134 125.184 349.833 120.46 357.256C115.736 364.68 103.589 373.115 101.902 369.741Z" fill="white"/>
<path d="M132.269 343.76C130.245 341.398 141.38 337.011 141.38 337.011C141.38 337.011 134.631 346.122 132.269 343.76Z" fill="white"/>
<path d="M375.55 307.993C374.875 312.717 398.495 312.717 398.158 307.993C397.82 303.269 376.225 303.269 375.55 307.993Z" fill="white"/>
<path d="M218.987 549.586C215.95 550.936 221.686 567.132 226.072 566.795C230.459 566.457 222.698 547.899 218.987 549.586Z" fill="white"/>
<path opacity="0.5" d="M374.821 238.484C420.664 238.484 457.827 202.68 457.827 158.515C457.827 114.349 420.664 78.5459 374.821 78.5459C328.978 78.5459 291.815 114.349 291.815 158.515C291.815 202.68 328.978 238.484 374.821 238.484Z" fill="url(#paint35_radial_694:4371)"/>
<path opacity="0.5" d="M301.263 138.944C301.938 153.791 325.895 158.852 372.459 135.908C409.575 117.687 445.005 138.607 448.379 132.871C451.753 127.135 412.612 80.233 370.435 85.2944C328.257 90.6931 300.588 125.785 301.263 138.944Z" fill="url(#paint36_linear_694:4371)"/>
<defs>
<linearGradient id="paint0_linear_694:4371" x1="215.373" y1="605.678" x2="229.428" y2="493.776" gradientUnits="userSpaceOnUse">
<stop stop-color="#CBC1F7"/>
<stop offset="1" stop-color="#E8DCF7"/>
</linearGradient>
<linearGradient id="paint1_linear_694:4371" x1="225.725" y1="526.561" x2="225.725" y2="488.718" gradientUnits="userSpaceOnUse">
<stop stop-color="#BE9DEA"/>
<stop offset="1" stop-color="#9E8CEF"/>
</linearGradient>
<linearGradient id="paint2_linear_694:4371" x1="301.334" y1="611.316" x2="317.318" y2="484.049" gradientUnits="userSpaceOnUse">
<stop stop-color="#CBC1F7"/>
<stop offset="1" stop-color="#E8DCF7"/>
</linearGradient>
<linearGradient id="paint3_linear_694:4371" x1="314.735" y1="526.667" x2="314.735" y2="488.819" gradientUnits="userSpaceOnUse">
<stop stop-color="#BE9DEA"/>
<stop offset="1" stop-color="#9E8CEF"/>
</linearGradient>
<linearGradient id="paint4_linear_694:4371" x1="225.724" y1="601.275" x2="225.724" y2="488.718" gradientUnits="userSpaceOnUse">
<stop stop-color="#9D68C2"/>
<stop offset="1" stop-color="#CCEDFF"/>
</linearGradient>
<linearGradient id="paint5_linear_694:4371" x1="314.735" y1="603.839" x2="314.735" y2="488.819" gradientUnits="userSpaceOnUse">
<stop stop-color="#9D68C2"/>
<stop offset="1" stop-color="#CCEDFF"/>
</linearGradient>
<linearGradient id="paint6_linear_694:4371" x1="118.602" y1="458.494" x2="139.734" y2="290.242" gradientUnits="userSpaceOnUse">
<stop stop-color="#CBC1F7"/>
<stop offset="1" stop-color="#E8DCF7"/>
</linearGradient>
<linearGradient id="paint7_linear_694:4371" x1="69.7366" y1="458.621" x2="69.7366" y2="396.244" gradientUnits="userSpaceOnUse">
<stop stop-color="#BE9DEA"/>
<stop offset="1" stop-color="#9E8CEF"/>
</linearGradient>
<linearGradient id="paint8_linear_694:4371" x1="126.932" y1="458.622" x2="126.932" y2="298.101" gradientUnits="userSpaceOnUse">
<stop stop-color="#9D68C2"/>
<stop offset="1" stop-color="#CCEDFF"/>
</linearGradient>
<linearGradient id="paint9_linear_694:4371" x1="35.1556" y1="510.627" x2="47.7965" y2="409.981" gradientUnits="userSpaceOnUse">
<stop stop-color="#CBC1F7"/>
<stop offset="1" stop-color="#E8DCF7"/>
</linearGradient>
<linearGradient id="paint10_linear_694:4371" x1="47.5061" y1="507.741" x2="47.5061" y2="415.484" gradientUnits="userSpaceOnUse">
<stop stop-color="#BE9DEA"/>
<stop offset="1" stop-color="#9E8CEF"/>
</linearGradient>
<linearGradient id="paint11_linear_694:4371" x1="46.7831" y1="487.516" x2="46.7831" y2="427.433" gradientUnits="userSpaceOnUse">
<stop stop-color="#8DA4E5"/>
<stop offset="1" stop-color="#755CBB"/>
</linearGradient>
<linearGradient id="paint12_linear_694:4371" x1="58.2769" y1="489.776" x2="67.255" y2="418.292" gradientUnits="userSpaceOnUse">
<stop stop-color="#CBC1F7"/>
<stop offset="1" stop-color="#E8DCF7"/>
</linearGradient>
<linearGradient id="paint13_linear_694:4371" x1="257.015" y1="523.967" x2="289.33" y2="266.673" gradientUnits="userSpaceOnUse">
<stop stop-color="#CBC1F7"/>
<stop offset="1" stop-color="#E8DCF7"/>
</linearGradient>
<linearGradient id="paint14_linear_694:4371" x1="270.15" y1="524.407" x2="270.15" y2="317.402" gradientUnits="userSpaceOnUse">
<stop stop-color="#9D68C2"/>
<stop offset="1" stop-color="#CCEDFF"/>
</linearGradient>
<linearGradient id="paint15_linear_694:4371" x1="266.577" y1="315.211" x2="266.577" y2="264.747" gradientUnits="userSpaceOnUse">
<stop stop-color="#8DA4E5"/>
<stop offset="1" stop-color="#755CBB"/>
</linearGradient>
<linearGradient id="paint16_linear_694:4371" x1="325.315" y1="328.992" x2="358.237" y2="328.992" gradientUnits="userSpaceOnUse">
<stop stop-color="#8879EA"/>
<stop offset="1" stop-color="#9E8CEF"/>
</linearGradient>
<linearGradient id="paint17_linear_694:4371" x1="257.394" y1="285.387" x2="293.082" y2="1.23924" gradientUnits="userSpaceOnUse">
<stop stop-color="#CBC1F7"/>
<stop offset="1" stop-color="#E8DCF7"/>
</linearGradient>
<linearGradient id="paint18_linear_694:4371" x1="268.884" y1="265.932" x2="268.884" y2="31.0353" gradientUnits="userSpaceOnUse">
<stop stop-color="#49277F"/>
<stop offset="1" stop-color="#1A1F77"/>
</linearGradient>
<linearGradient id="paint19_linear_694:4371" x1="328.093" y1="273.859" x2="328.093" y2="203.925" gradientUnits="userSpaceOnUse">
<stop stop-color="#8DA4E5"/>
<stop offset="1" stop-color="#755CBB"/>
</linearGradient>
<radialGradient id="paint20_radial_694:4371" cx="0" cy="0" r="1" gradientUnits="userSpaceOnUse" gradientTransform="translate(201.676 138.121) scale(39.8225)">
<stop stop-color="#7B47C5"/>
<stop offset="1" stop-color="#9169DC"/>
</radialGradient>
<linearGradient id="paint21_linear_694:4371" x1="360.84" y1="246.421" x2="360.84" y2="61.7816" gradientUnits="userSpaceOnUse">
<stop stop-color="#1E1F78"/>
<stop offset="1" stop-color="#45277E"/>
</linearGradient>
<linearGradient id="paint22_linear_694:4371" x1="409.586" y1="217.352" x2="428.454" y2="67.1275" gradientUnits="userSpaceOnUse">
<stop stop-color="#CBC1F7"/>
<stop offset="1" stop-color="#E8DCF7"/>
</linearGradient>
<radialGradient id="paint23_radial_694:4371" cx="0" cy="0" r="1" gradientUnits="userSpaceOnUse" gradientTransform="translate(368.052 165.685) scale(58.4674)">
<stop stop-color="#7C48C6"/>
<stop offset="1" stop-color="#926ADC"/>
</radialGradient>
<linearGradient id="paint24_linear_694:4371" x1="352.65" y1="259.625" x2="398.399" y2="65.3015" gradientUnits="userSpaceOnUse">
<stop stop-color="#7A46C4"/>
<stop offset="1" stop-color="#9169DC"/>
</linearGradient>
<linearGradient id="paint25_linear_694:4371" x1="352.65" y1="252.644" x2="398.399" y2="58.3202" gradientUnits="userSpaceOnUse">
<stop stop-color="#262179"/>
<stop offset="1" stop-color="#9067DA"/>
</linearGradient>
<linearGradient id="paint26_linear_694:4371" x1="401.886" y1="369.159" x2="413.658" y2="275.426" gradientUnits="userSpaceOnUse">
<stop stop-color="#CBC1F7"/>
<stop offset="1" stop-color="#E8DCF7"/>
</linearGradient>
<linearGradient id="paint27_linear_694:4371" x1="475.43" y1="318.314" x2="475.43" y2="283.249" gradientUnits="userSpaceOnUse">
<stop stop-color="#BE9DEA"/>
<stop offset="1" stop-color="#9E8CEF"/>
</linearGradient>
<linearGradient id="paint28_linear_694:4371" x1="465.379" y1="308.399" x2="471.451" y2="222.843" gradientUnits="userSpaceOnUse">
<stop stop-color="#7C48C5"/>
<stop offset="1" stop-color="#9067DA"/>
</linearGradient>
<linearGradient id="paint29_linear_694:4371" x1="460.897" y1="304.767" x2="460.897" y2="224.037" gradientUnits="userSpaceOnUse">
<stop stop-color="#8DA4E5"/>
<stop offset="1" stop-color="#755CBB"/>
</linearGradient>
<linearGradient id="paint30_linear_694:4371" x1="433.588" y1="275.168" x2="436.381" y2="252.929" gradientUnits="userSpaceOnUse">
<stop stop-color="#CBC1F7"/>
<stop offset="1" stop-color="#E8DCF7"/>
</linearGradient>
<linearGradient id="paint31_linear_694:4371" x1="473.332" y1="268.787" x2="480.582" y2="211.06" gradientUnits="userSpaceOnUse">
<stop stop-color="#CBC1F7"/>
<stop offset="1" stop-color="#E8DCF7"/>
</linearGradient>
<linearGradient id="paint32_linear_694:4371" x1="410.354" y1="369.904" x2="410.354" y2="281.533" gradientUnits="userSpaceOnUse">
<stop stop-color="#9D68C2"/>
<stop offset="1" stop-color="#CCEDFF"/>
</linearGradient>
<linearGradient id="paint33_linear_694:4371" x1="435.11" y1="275.245" x2="435.11" y2="252.195" gradientUnits="userSpaceOnUse">
<stop stop-color="#9D68C2"/>
<stop offset="1" stop-color="#CCEDFF"/>
</linearGradient>
<linearGradient id="paint34_linear_694:4371" x1="476.171" y1="271.715" x2="476.171" y2="224.037" gradientUnits="userSpaceOnUse">
<stop stop-color="#9D68C2"/>
<stop offset="1" stop-color="#CCEDFF"/>
</linearGradient>
<radialGradient id="paint35_radial_694:4371" cx="0" cy="0" r="1" gradientUnits="userSpaceOnUse" gradientTransform="translate(374.768 158.526) scale(82.9922 80.0532)">
<stop stop-color="#2F1458"/>
<stop offset="0.229" stop-color="#15052F"/>
<stop offset="0.3654" stop-color="#050B0B"/>
<stop offset="0.4774" stop-color="#0B1919"/>
<stop offset="0.5764" stop-color="#132D2D"/>
<stop offset="0.6667" stop-color="#4A287F"/>
<stop offset="0.7506" stop-color="#5B4AA7"/>
<stop offset="0.8298" stop-color="#856BAD"/>
<stop offset="0.905" stop-color="#9A7BCB"/>
<stop offset="0.9747" stop-color="#B188FD"/>
<stop offset="1" stop-color="#DDC7FF"/>
</radialGradient>
<linearGradient id="paint36_linear_694:4371" x1="301.182" y1="118.18" x2="448.408" y2="118.18" gradientUnits="userSpaceOnUse">
<stop stop-color="#9168DB"/>
<stop offset="1"/>
</linearGradient>
</defs>
</svg>
