<svg width="17" height="17" fill="none" xmlns="http://www.w3.org/2000/svg"><path d="M14.584 12.532h-4.23a2.051 2.051 0 0 0-1.245-1.245V9.11h4.79a.684.684 0 1 0 0-1.369h-.684V3.635a2.053 2.053 0 0 0-2.053-2.053H5.687a2.053 2.053 0 0 0-2.053 2.053v4.106H2.95a.684.684 0 1 0 0 1.37h4.79v2.175a2.052 2.052 0 0 0-1.245 1.246h-4.23a.684.684 0 1 0 0 1.369h4.23a2.053 2.053 0 0 0 3.86 0h4.23a.684.684 0 1 0 0-1.369Zm-9.581-4.79V3.634a.684.684 0 0 1 .684-.684h5.475a.684.684 0 0 1 .685.684V7.74H5.003ZM8.425 13.9a.684.684 0 1 1 0-1.369.684.684 0 0 1 0 1.369Z" fill="#FDFDFD"/></svg>