<svg width="20" height="20" fill="none" xmlns="http://www.w3.org/2000/svg"><circle cx="9.977" cy="9.815" r="9.272" fill="#C4C4C4" fill-opacity=".4"/><path d="M6.875 7.458c0-.9.247-1.638.74-2.21.504-.572 1.232-.858 2.185-.858.832 0 1.495.226 1.989.676.502.451.754 1.058.754 1.82 0 .46-.082.858-.247 1.196-.165.33-.42.655-.767.975a10.52 10.52 0 0 1-.338.312 3.541 3.541 0 0 0-.3.286 3.891 3.891 0 0 1-.22.247c-.113.13-.178.234-.195.312a4.07 4.07 0 0 1-.104.325 1.66 1.66 0 0 0-.091.468 9.98 9.98 0 0 0-.013.56H9.202v-.079c0-.39.017-.71.052-.962a2.13 2.13 0 0 1 .273-.728c.147-.242.282-.433.403-.572.13-.138.364-.377.702-.715.277-.277.468-.524.572-.74.112-.226.169-.477.169-.755 0-.502-.143-.9-.43-1.196-.285-.294-.67-.442-1.156-.442-1.135 0-1.742.694-1.82 2.08H6.875Zm3.523 5.044v1.313H9.033v-1.313h1.365Z" fill="#32528E"/></svg>