<svg width="886" height="595" fill="none" xmlns="http://www.w3.org/2000/svg"><rect x="3.978" y=".622" width="870.089" height="552.328" rx="15" fill="#FDFDFD"/><path d="M91.484.622v105.124m0 447.772V442.144m0 0H5.966h345.55m-260.032 0H3.978m87.506 0V330.769M873.57 442.144h-86.015m0 0v111.374-447.772m0 336.398H613.04M787.555 2.327v103.419m0 0h86.512-348.036m-519.07 0h84.523m85.517 0V.622 330.77m0-225.023H91.484m85.517 0h87.506m-87.506 447.772v-222.75m0 0H89.992m784.075 0H700.049m0 0v222.749-335.829m0 113.08H264.507M700.049 2.327v215.362m0 0h174.018H91.484m-85.518 0h85.518m0 0V105.746m0 111.943H4.474m87.01 0v113.08m0-225.023H4.474m87.01 225.023H3.978m86.014 0H5.966h258.541m-174.515 0h174.515m0 222.749V105.746m0-105.124v105.124m0 0h87.009m0 0V.622v441.522m0-336.398h87.009m-87.009 447.772V442.144m0 0h87.009m0 0v111.374-447.772m0 336.398h87.506M438.525.622v105.124m0 0h87.506m0 0V.622v441.522m0 111.374V442.144m0 0h87.009m0 0v111.374V2.327" stroke="#F3F3F3"/><path d="M603.89 209.243c75.734-86.856 213.137-83.443 269.938-72.005.18 129.571.433 391.299 0 401.649-.433 10.351-9.918 13.689-14.606 14.064H34.803c84.209-42.19 264.095-149.747 316.46-204.2 65.456-68.067 157.96-30.939 252.627-139.508Z" fill="url(#a)"/><path d="M19.142 91.91v1.008h-1.344v2.394h-1.12v-2.394h-4.354v-1.12l4.508-6.412h.966v6.525h1.344Zm-2.464 0v-4.773l-3.304 4.773h3.304Zm17.052 3.403h-1.19v-5.698h-.042l-2.142 5.698h-1.092l-2.142-5.698h-.042v5.698h-1.19v-7.225h1.708l2.198 5.853h.028l2.198-5.853h1.708v7.225Zm8.478-7.225v7.225h-1.19v-6.175h-2.576l-.098 3.192c-.028 1.102-.229 1.9-.602 2.395-.373.494-.84.742-1.4.742-.345 0-.63-.052-.854-.154v-.966c.121.065.331.098.63.098.28 0 .518-.15.714-.448.205-.308.317-.822.336-1.54l.126-4.368h4.914Zm3.58 0v1.023c.522-.831 1.334-1.246 2.435-1.246 1.008 0 1.806.34 2.394 1.022.598.68.896 1.605.896 2.772 0 1.166-.294 2.1-.882 2.8-.578.69-1.362 1.035-2.352 1.035-1.036 0-1.843-.396-2.422-1.19v3.794h-1.19v-10.01h1.12Zm2.253.77c-.69 0-1.236.252-1.638.757-.392.494-.588 1.18-.588 2.058 0 .877.2 1.567.602 2.072.41.494.966.742 1.666.742.681 0 1.218-.252 1.61-.756.392-.504.588-1.19.588-2.058 0-.878-.2-1.564-.602-2.058-.392-.504-.938-.756-1.638-.756Zm12.379 8.75h-1.134v-2.296H53.77v2.297h-1.134v-3.346h.784c.224-.43.43-1.093.616-1.989.196-.905.294-1.787.294-2.645v-1.54h5.152v6.174h.938v3.346Zm-2.128-3.346v-5.124h-2.8v.602c0 .85-.089 1.713-.266 2.59-.168.868-.36 1.513-.574 1.933h3.64ZM12.576 199.981c.028-1.027.313-1.82.854-2.38.55-.56 1.316-.84 2.296-.84.877 0 1.582.238 2.114.714.532.476.798 1.101.798 1.876 0 .466-.121.886-.364 1.26a2.098 2.098 0 0 1-.994.812c.56.13 1.003.41 1.33.84.327.429.49.947.49 1.554.01.914-.308 1.656-.952 2.226-.634.56-1.46.84-2.478.84-1.008 0-1.815-.276-2.422-.826-.597-.56-.896-1.312-.896-2.254v-.182h1.176c.028.709.229 1.255.602 1.638.373.382.891.574 1.554.574.635 0 1.148-.178 1.54-.532.401-.364.602-.831.602-1.4 0-.579-.2-1.041-.602-1.386-.392-.346-.924-.518-1.596-.518-.168 0-.383.018-.644.056v-1.008c.13.009.266.014.406.014.616 0 1.101-.145 1.456-.434.364-.299.546-.7.546-1.204 0-.486-.159-.878-.476-1.176-.308-.299-.723-.448-1.246-.448-.597 0-1.064.191-1.4.574-.336.373-.513.91-.532 1.61h-1.162Zm21.154 6.706h-1.19v-5.698h-.042l-2.142 5.698h-1.092l-2.142-5.698h-.042v5.698h-1.19v-7.224h1.708l2.198 5.852h.028l2.198-5.852h1.708v7.224Zm8.478-7.224v7.224h-1.19v-6.174h-2.576l-.098 3.192c-.028 1.101-.229 1.899-.602 2.394-.373.494-.84.742-1.4.742-.345 0-.63-.052-.854-.154v-.966c.121.065.331.098.63.098.28 0 .518-.15.714-.448.205-.308.317-.822.336-1.54l.126-4.368h4.914Zm3.58 0v1.022c.522-.831 1.334-1.246 2.435-1.246 1.008 0 1.806.34 2.394 1.022.598.681.896 1.605.896 2.772 0 1.166-.294 2.1-.882 2.8-.578.69-1.362 1.036-2.352 1.036-1.036 0-1.843-.397-2.422-1.19v3.794h-1.19v-10.01h1.12Zm2.253.77c-.69 0-1.236.252-1.638.756-.392.494-.588 1.18-.588 2.058 0 .877.2 1.568.602 2.072.41.494.966.742 1.666.742.681 0 1.218-.252 1.61-.756.392-.504.588-1.19.588-2.058 0-.878-.2-1.564-.602-2.058-.392-.504-.938-.756-1.638-.756Zm12.379 8.75h-1.134v-2.296H53.77v2.296h-1.134v-3.346h.784c.224-.43.43-1.092.616-1.988.196-.906.294-1.788.294-2.646v-1.54h5.152v6.174h.938v3.346Zm-2.128-3.346v-5.124h-2.8v.602c0 .849-.089 1.712-.266 2.59-.168.868-.36 1.512-.574 1.932h3.64ZM18.75 319.257v1.078h-6.468a5.32 5.32 0 0 1 .252-1.442 3.22 3.22 0 0 1 .644-1.106 6.41 6.41 0 0 1 .868-.826c.28-.215.677-.481 1.19-.798.803-.504 1.33-.882 1.582-1.134.523-.513.784-1.083.784-1.708 0-.551-.177-.999-.532-1.344-.355-.355-.817-.532-1.386-.532-.681 0-1.171.238-1.47.714-.29.467-.443 1.059-.462 1.778h-1.204v-.266c0-.98.29-1.769.868-2.366.588-.597 1.363-.896 2.324-.896.943 0 1.694.261 2.254.784s.84 1.223.84 2.1c0 .373-.065.728-.196 1.064a3.579 3.579 0 0 1-.42.826c-.15.224-.383.462-.7.714-.308.252-.565.448-.77.588-.205.131-.5.313-.882.546-.765.457-1.274.812-1.526 1.064-.354.345-.583.733-.686 1.162h5.096Zm14.98 1.078h-1.19v-5.698h-.042l-2.142 5.698h-1.092l-2.142-5.698h-.042v5.698h-1.19v-7.224h1.708l2.198 5.852h.028l2.198-5.852h1.708v7.224Zm8.478-7.224v7.224h-1.19v-6.174h-2.576l-.098 3.192c-.028 1.101-.229 1.899-.602 2.394-.373.495-.84.742-1.4.742-.345 0-.63-.051-.854-.154v-.966c.121.065.331.098.63.098.28 0 .518-.149.714-.448.205-.308.317-.821.336-1.54l.126-4.368h4.914Zm3.58 0v1.022c.522-.831 1.334-1.246 2.435-1.246 1.008 0 1.806.341 2.394 1.022.598.681.896 1.605.896 2.772 0 1.167-.294 2.1-.882 2.8-.578.691-1.362 1.036-2.352 1.036-1.036 0-1.843-.397-2.422-1.19v3.794h-1.19v-10.01h1.12Zm2.253.77c-.69 0-1.236.252-1.638.756-.392.495-.588 1.181-.588 2.058 0 .877.2 1.568.602 2.072.41.495.966.742 1.666.742.681 0 1.218-.252 1.61-.756.392-.504.588-1.19.588-2.058 0-.877-.2-1.563-.602-2.058-.392-.504-.938-.756-1.638-.756Zm12.379 8.75h-1.134v-2.296H53.77v2.296h-1.134v-3.346h.784c.224-.429.43-1.092.616-1.988.196-.905.294-1.787.294-2.646v-1.54h5.152v6.174h.938v3.346Zm-2.128-3.346v-5.124h-2.8v.602c0 .849-.089 1.713-.266 2.59-.168.868-.36 1.512-.574 1.932h3.64ZM16.944 421.797v9.912h-1.302v-7.182H13.15v-.896c.803 0 1.438-.131 1.904-.392.476-.261.793-.742.952-1.442h.938Zm16.786 9.912h-1.19v-5.698h-.042l-2.142 5.698h-1.092l-2.142-5.698h-.042v5.698h-1.19v-7.224h1.708l2.198 5.852h.028l2.198-5.852h1.708v7.224Zm8.478-7.224v7.224h-1.19v-6.174h-2.576l-.098 3.192c-.028 1.101-.229 1.899-.602 2.394-.373.495-.84.742-1.4.742-.345 0-.63-.051-.854-.154v-.966c.121.065.331.098.63.098.28 0 .518-.149.714-.448.205-.308.317-.821.336-1.54l.126-4.368h4.914Zm3.58 0v1.022c.522-.831 1.334-1.246 2.435-1.246 1.008 0 1.806.341 2.394 1.022.598.681.896 1.605.896 2.772 0 1.167-.294 2.1-.882 2.8-.578.691-1.362 1.036-2.352 1.036-1.036 0-1.843-.397-2.422-1.19v3.794h-1.19v-10.01h1.12Zm2.253.77c-.69 0-1.236.252-1.638.756-.392.495-.588 1.181-.588 2.058 0 .877.2 1.568.602 2.072.41.495.966.742 1.666.742.681 0 1.218-.252 1.61-.756.392-.504.588-1.19.588-2.058 0-.877-.2-1.563-.602-2.058-.392-.504-.938-.756-1.638-.756Zm12.379 8.75h-1.134v-2.296H53.77v2.296h-1.134v-3.346h.784c.224-.429.43-1.092.616-1.988.196-.905.294-1.787.294-2.646v-1.54h5.152v6.174h.938v3.346Zm-2.128-3.346v-5.124h-2.8v.602c0 .849-.089 1.713-.266 2.59-.168.868-.36 1.512-.574 1.932h3.64ZM3.878 575.208c.597 0 1.106.112 1.526.336.43.214.756.48.98.798.224.317.401.732.532 1.246.13.504.21.961.238 1.372.028.401.042.886.042 1.456 0 .522-.023.994-.07 1.414-.037.42-.126.858-.266 1.316a3.45 3.45 0 0 1-.546 1.148c-.233.298-.55.546-.952.742-.401.196-.877.294-1.428.294-.579 0-1.083-.098-1.512-.294-.42-.206-.747-.458-.98-.756-.233-.299-.42-.677-.56-1.134a7.396 7.396 0 0 1-.252-1.316c-.037-.42-.056-.901-.056-1.442 0-.467.01-.873.028-1.218.028-.346.075-.733.14-1.162.075-.439.187-.808.336-1.106.15-.308.34-.598.574-.868.233-.271.537-.476.91-.616.383-.14.821-.21 1.316-.21Zm.77 1.232a1.7 1.7 0 0 0-.77-.168 1.7 1.7 0 0 0-.77.168 1.844 1.844 0 0 0-.546.364c-.14.14-.261.35-.364.63-.103.27-.177.499-.224.686-.037.186-.07.457-.098.812-.028.345-.042.592-.042.742v.714c0 .326.005.597.014.812.01.214.033.494.07.84.037.345.103.634.196.868a5.3 5.3 0 0 0 .35.686c.14.224.331.396.574.518.252.112.541.168.868.168.28 0 .527-.052.742-.154.224-.103.406-.224.546-.364.14-.14.257-.336.35-.588.103-.262.177-.486.224-.672a4.51 4.51 0 0 0 .098-.77c.028-.327.042-.565.042-.714.01-.159.014-.388.014-.686v-.7c0-.14-.014-.383-.042-.728a5.21 5.21 0 0 0-.112-.798 4.453 4.453 0 0 0-.21-.686c-.103-.271-.224-.476-.364-.616a1.844 1.844 0 0 0-.546-.364Zm83.892-1.218v9.912h-1.3v-7.182h-2.492v-.896c.802 0 1.437-.131 1.904-.392.476-.262.793-.742.952-1.442h.938Zm9.348 3.738h-3.766v6.174h-1.19v-7.224h4.956v1.05Zm77.976 5.096v1.078h-6.468a5.312 5.312 0 0 1 .252-1.442c.14-.411.355-.78.644-1.106.299-.336.588-.612.868-.826.28-.215.677-.481 1.19-.798.803-.504 1.33-.882 1.582-1.134.523-.514.784-1.083.784-1.708 0-.551-.177-.999-.532-1.344-.354-.355-.816-.532-1.386-.532-.681 0-1.171.238-1.47.714-.289.466-.443 1.059-.462 1.778h-1.204v-.266c0-.98.29-1.769.868-2.366.588-.598 1.363-.896 2.324-.896.943 0 1.694.261 2.254.784.56.522.84 1.222.84 2.1 0 .373-.065.728-.196 1.064a3.576 3.576 0 0 1-.42.826c-.149.224-.382.462-.7.714-.308.252-.564.448-.77.588-.205.13-.499.312-.882.546-.765.457-1.274.812-1.526 1.064-.354.345-.583.732-.686 1.162h5.096Zm7.542-5.096h-3.766v6.174h-1.19v-7.224h4.956v1.05Zm74.785-.532c.028-1.027.313-1.82.854-2.38.551-.56 1.316-.84 2.296-.84.877 0 1.582.238 2.114.714.532.476.798 1.101.798 1.876 0 .466-.121.886-.364 1.26a2.098 2.098 0 0 1-.994.812c.56.13 1.003.41 1.33.84.327.429.49.947.49 1.554.009.914-.308 1.656-.952 2.226-.635.56-1.461.84-2.478.84-1.008 0-1.815-.276-2.422-.826-.597-.56-.896-1.312-.896-2.254v-.182h1.176c.028.709.229 1.255.602 1.638.373.382.891.574 1.554.574.635 0 1.148-.178 1.54-.532.401-.364.602-.831.602-1.4 0-.579-.201-1.041-.602-1.386-.392-.346-.924-.518-1.596-.518-.168 0-.383.018-.644.056v-1.008c.131.009.266.014.406.014.616 0 1.101-.145 1.456-.434.364-.299.546-.7.546-1.204 0-.486-.159-.878-.476-1.176-.308-.299-.723-.448-1.246-.448-.597 0-1.064.191-1.4.574-.336.373-.513.91-.532 1.61h-1.162Zm13.715.532h-3.766v6.174h-1.19v-7.224h4.956v1.05Zm78.368 2.772v1.008h-1.344v2.394h-1.12v-2.394h-4.354v-1.12l4.508-6.412h.966v6.524h1.344Zm-2.464 0v-4.774l-3.304 4.774h3.304Zm9.613-2.772h-3.766v6.174h-1.19v-7.224h4.956v1.05Zm252.232-3.57v1.022c-2.166 2.473-3.43 5.38-3.794 8.722h-1.316c.112-1.531.513-3.048 1.204-4.55a16.158 16.158 0 0 1 2.688-4.06h-5.194v-1.134h6.412Zm7.303 3.57h-3.766v6.174h-1.19v-7.224h4.956v1.05Zm73.468.868a2.299 2.299 0 0 1-1.022-.812c-.233-.364-.35-.789-.35-1.274 0-.747.276-1.354.826-1.82.551-.476 1.26-.714 2.128-.714.859 0 1.559.233 2.1.7.551.457.826 1.05.826 1.778 0 1.008-.452 1.722-1.358 2.142 1.167.41 1.75 1.218 1.75 2.422 0 .942-.303 1.694-.91 2.254-.606.55-1.423.826-2.45.826-.989 0-1.787-.271-2.394-.812-.597-.551-.896-1.279-.896-2.184 0-.598.15-1.111.448-1.54.308-.439.742-.761 1.302-.966Zm2.828-3.136c-.308-.28-.723-.42-1.246-.42-.522 0-.942.144-1.26.434-.317.28-.476.653-.476 1.12 0 .466.159.844.476 1.134.318.28.738.42 1.26.42.514 0 .924-.14 1.232-.42.318-.29.476-.668.476-1.134 0-.476-.154-.854-.462-1.134Zm-1.288 3.654c-.597 0-1.087.186-1.47.56-.382.364-.574.83-.574 1.4 0 .588.192 1.073.574 1.456.392.373.892.56 1.498.56.616 0 1.116-.187 1.498-.56.392-.374.588-.854.588-1.442s-.196-1.064-.588-1.428c-.392-.364-.9-.546-1.526-.546Zm10.51-1.386h-3.766v6.174h-1.19v-7.224h4.956v1.05Zm74.84 3.78h1.176c.066.485.257.868.574 1.148.327.27.742.406 1.246.406 1.298 0 2.035-1.078 2.212-3.234a6.89 6.89 0 0 0 .028-.658c-.56.905-1.367 1.358-2.422 1.358-.905 0-1.638-.294-2.198-.882-.56-.598-.84-1.377-.84-2.338 0-.99.304-1.792.91-2.408.607-.616 1.396-.924 2.366-.924 2.278 0 3.416 1.614 3.416 4.844 0 .494-.032.97-.098 1.428a7.498 7.498 0 0 1-.322 1.4 4.69 4.69 0 0 1-.616 1.246 2.834 2.834 0 0 1-1.022.868c-.42.224-.905.336-1.456.336-.84 0-1.53-.229-2.072-.686-.532-.458-.826-1.092-.882-1.904Zm2.996-6.468c-.588 0-1.064.205-1.428.616-.354.401-.532.938-.532 1.61 0 .634.168 1.162.504 1.582.346.41.831.616 1.456.616.607 0 1.097-.196 1.47-.588.374-.402.56-.929.56-1.582 0-.682-.186-1.228-.56-1.638-.373-.411-.863-.616-1.47-.616Zm10.664 2.688h-3.766v6.174h-1.19v-7.224h4.956v1.05Zm76.171-3.738v9.912h-1.302v-7.182h-2.492v-.896c.802 0 1.437-.131 1.904-.392.476-.262.793-.742.952-1.442h.938Zm7.345-.014c.597 0 1.106.112 1.526.336.429.214.756.48.98.798.224.317.401.732.532 1.246.131.504.21.961.238 1.372.028.401.042.886.042 1.456 0 .522-.023.994-.07 1.414-.037.42-.126.858-.266 1.316a3.47 3.47 0 0 1-.546 1.148 2.673 2.673 0 0 1-.952.742c-.401.196-.877.294-1.428.294-.579 0-1.083-.098-1.512-.294-.42-.206-.747-.458-.98-.756-.233-.299-.42-.677-.56-1.134a7.337 7.337 0 0 1-.252-1.316c-.037-.42-.056-.901-.056-1.442 0-.467.009-.873.028-1.218.028-.346.075-.733.14-1.162.075-.439.187-.808.336-1.106.149-.308.341-.598.574-.868.233-.271.537-.476.91-.616.383-.14.821-.21 1.316-.21Zm.77 1.232a1.7 1.7 0 0 0-.77-.168 1.7 1.7 0 0 0-.77.168 1.844 1.844 0 0 0-.546.364c-.14.14-.261.35-.364.63-.103.27-.177.499-.224.686-.037.186-.07.457-.098.812-.028.345-.042.592-.042.742v.714c0 .326.005.597.014.812.009.214.033.494.07.84.037.345.103.634.196.868a5.3 5.3 0 0 0 .35.686c.14.224.331.396.574.518.252.112.541.168.868.168.28 0 .527-.052.742-.154.224-.103.406-.224.546-.364.14-.14.257-.336.35-.588.103-.262.177-.486.224-.672.047-.196.079-.453.098-.77.028-.327.042-.565.042-.714.009-.159.014-.388.014-.686v-.7c0-.14-.014-.383-.042-.728a5.17 5.17 0 0 0-.112-.798 4.38 4.38 0 0 0-.21-.686c-.103-.271-.224-.476-.364-.616a1.844 1.844 0 0 0-.546-.364Zm9.711 2.52h-3.766v6.174h-1.19v-7.224h4.956v1.05Zm-449.797-3.57v1.05h-4.018l-.588 2.954c.485-.523 1.152-.784 2.002-.784.933 0 1.689.303 2.268.91.578.597.868 1.376.868 2.338 0 1.008-.318 1.838-.952 2.492-.635.653-1.461.98-2.478.98-.943 0-1.708-.262-2.296-.784-.579-.523-.882-1.218-.91-2.086h1.204c.046.55.256.998.63 1.344.373.345.835.518 1.386.518.616 0 1.129-.224 1.54-.672.41-.448.616-1.004.616-1.666 0-.691-.201-1.251-.602-1.68-.402-.439-.924-.658-1.568-.658-.822 0-1.456.322-1.904.966l-1.022-.07.924-5.152h4.9Zm7.765 3.57h-3.766v6.174h-1.19v-7.224h4.956v1.05Zm81.141-1.176h-1.218c-.066-.476-.243-.85-.532-1.12-.28-.28-.663-.42-1.148-.42-.336 0-.64.06-.91.182a1.61 1.61 0 0 0-.644.532 4.659 4.659 0 0 0-.406.686 3.19 3.19 0 0 0-.252.854c-.056.336-.094.611-.112.826-.019.205-.038.457-.056.756.541-.868 1.362-1.302 2.464-1.302.924 0 1.666.294 2.226.882.569.578.854 1.344.854 2.296 0 .98-.299 1.787-.896 2.422-.588.634-1.377.952-2.366.952-2.306 0-3.458-1.643-3.458-4.928 0-.514.028-.999.084-1.456.065-.458.177-.92.336-1.386a4.28 4.28 0 0 1 .644-1.218 2.822 2.822 0 0 1 1.036-.812c.438-.215.938-.322 1.498-.322.83 0 1.498.228 2.002.686.504.448.788 1.078.854 1.89Zm-3.024 2.03c-.607 0-1.097.205-1.47.616-.374.401-.56.928-.56 1.582 0 .681.186 1.227.56 1.638.382.41.882.616 1.498.616.597 0 1.078-.196 1.442-.588.373-.402.56-.938.56-1.61 0-.691-.182-1.237-.546-1.638-.364-.411-.859-.616-1.484-.616Zm10.383-.854h-3.766v6.174h-1.19v-7.224h4.956v1.05Z" fill="#8F8F8F"/><defs><linearGradient id="a" x1="454.435" y1="131.317" x2="454.435" y2="552.951" gradientUnits="userSpaceOnUse"><stop stop-color="#451F79"/><stop offset="1" stop-color="#76579B"/></linearGradient></defs></svg>