<svg width="16" height="15" fill="none" xmlns="http://www.w3.org/2000/svg"><path d="M8.327 7.7a1.9 1.9 0 0 1 1.899 1.898l-.002.948c.13 2.325-1.66 3.485-4.982 3.485-3.31 0-5.14-1.145-5.14-3.452v-.98a1.9 1.9 0 0 1 1.9-1.9h6.325Zm5.064 0a1.9 1.9 0 0 1 1.9 1.898v.667c.113 2.086-1.47 3.131-4.362 3.131-.392 0-.761-.019-1.107-.056.366-.333.646-.75.817-1.213l.29.003c2.26 0 3.162-.597 3.096-1.83v-.702a.633.633 0 0 0-.633-.633h-2.613A2.531 2.531 0 0 0 10 7.7h3.392-.001ZM8.327 8.964H2a.633.633 0 0 0-.633.633v.981c0 1.45 1.175 2.186 3.874 2.186 2.69 0 3.799-.719 3.718-2.184v-.983a.633.633 0 0 0-.633-.633ZM5.167.103a3.166 3.166 0 1 1 0 6.331 3.166 3.166 0 0 1 0-6.331Zm6.33 1.266a2.532 2.532 0 1 1 0 5.064 2.532 2.532 0 0 1 0-5.064Zm-6.33 0a1.9 1.9 0 1 0 0 3.8 1.9 1.9 0 0 0 0-3.8Zm6.33 1.266a1.266 1.266 0 1 0 0 2.532 1.266 1.266 0 0 0 0-2.532Z" fill="#FDFDFD"/></svg>