<svg width="29" height="23" viewBox="0 0 29 23" fill="none" xmlns="http://www.w3.org/2000/svg">
<path d="M0.746094 2.88013C0.746094 1.77556 1.64152 0.880127 2.74609 0.880127H25.5513C26.6559 0.880127 27.5513 1.77556 27.5513 2.88013V4.60156C27.5513 5.55492 26.8769 6.37724 25.9738 6.68257C23.9927 7.35232 20.85 8.84873 20.85 11.6022C20.85 14.3557 23.9927 15.8521 25.9738 16.5219C26.8769 16.8272 27.5513 17.6495 27.5513 18.6029V20.3243C27.5513 21.4289 26.6559 22.3243 25.5513 22.3243H2.74609C1.64152 22.3243 0.746094 21.4289 0.746094 20.3243V2.88013Z" stroke="inherit" stroke-linejoin="round"/>
<path d="M27.5492 11.6021H26.209" stroke="inherit" stroke-linecap="round" stroke-linejoin="round"/>
</svg>
