<svg width="29" height="32" viewBox="0 0 29 32" fill="none" xmlns="http://www.w3.org/2000/svg">
<path d="M1.90547 26.8297C3.58653 22.3413 7.59792 18.9775 12.4692 18.1496C12.6713 18.1152 12.882 18.1008 13.0995 18.1008H16.4436C16.661 18.1008 16.8717 18.1152 17.0739 18.1496C21.9451 18.9775 25.9565 22.3413 27.6376 26.8297C28.0496 27.9297 27.7684 28.9607 27.0731 29.7383C26.3678 30.527 25.2346 31.0493 23.9883 31.0493H5.55469C4.3084 31.0493 3.17521 30.527 2.46994 29.7383C1.77463 28.9607 1.49347 27.9297 1.90547 26.8297Z" stroke="inherit"/>
<path d="M19.6385 13.6282L19.6385 13.6283C18.224 15.0488 16.5058 15.7632 14.5076 15.7632C12.5101 15.7632 10.792 15.0486 9.37721 13.6284C7.96245 12.2081 7.25 10.482 7.25 8.47361C7.25 6.4657 7.96245 4.73962 9.37702 3.31924C10.7915 1.89895 12.5093 1.18457 14.5076 1.18457C16.5055 1.18457 18.2235 1.89892 19.6382 3.31896C21.0531 4.73984 21.7653 6.46593 21.7653 8.47361C21.7653 10.4821 21.053 12.2079 19.6385 13.6282Z" stroke="inherit"/>
</svg>
