<svg width="39" height="27" viewBox="0 0 39 27" fill="none" xmlns="http://www.w3.org/2000/svg">
<path d="M8.90894 22.2175C10.4631 18.7107 13.7204 16.1137 17.6326 15.4324C17.833 15.3975 18.0427 15.3833 18.2606 15.3833H21.0341C21.252 15.3833 21.4618 15.3975 21.6622 15.4324C25.5743 16.1137 28.8316 18.7107 30.3858 22.2175C30.8573 23.2813 30.6097 24.2908 29.9342 25.0605C29.2465 25.8443 28.1131 26.3723 26.867 26.3723H12.4277C11.1816 26.3723 10.0482 25.8443 9.3605 25.0605C8.68503 24.2908 8.43747 23.2813 8.90894 22.2175Z" stroke="inherit"/>
<path d="M23.782 11.419L23.7821 11.419C24.9847 10.2114 25.5896 8.74584 25.5896 7.03809C25.5896 5.33104 24.9848 3.86529 23.7819 2.65722C22.579 1.44981 21.1202 0.843262 19.4217 0.843262C17.7228 0.843262 16.2643 1.44981 15.0616 2.65737C13.8589 3.86503 13.2539 5.3308 13.2539 7.03809C13.2539 8.7458 13.8589 10.2115 15.0618 11.4192L23.782 11.419ZM23.782 11.419C22.5794 12.6268 21.1205 13.2333 19.4217 13.2333M23.782 11.419L19.4217 13.2333M19.4217 13.2333C17.7235 13.2333 16.2647 12.6266 15.0618 11.4192L19.4217 13.2333Z" stroke="inherit"/>
<path d="M2.64553 18.478C3.76033 16.7431 5.56893 15.4882 7.67871 15.0891C7.87306 15.0523 8.07909 15.0388 8.29878 15.0388H10.0664C10.1776 15.0388 10.2883 15.0469 10.3877 15.0638C10.7538 15.1261 11.0023 15.2809 11.1702 15.4772C11.3423 15.6784 11.454 15.9522 11.4904 16.283C11.5644 16.9549 11.3161 17.7867 10.7801 18.4301C10.4819 18.7881 10.192 19.1706 9.92349 19.5734C8.99882 20.9603 7.63738 22.0317 6.13709 22.0317H5.52485C4.39962 22.0317 3.37902 21.5381 2.80145 20.8453C2.24299 20.1755 2.09634 19.3326 2.64553 18.478Z" stroke="inherit"/>
<path d="M11.74 12.1117L11.7401 12.1116C12.5107 11.3378 12.8965 10.4031 12.8965 9.30855C12.8965 8.21451 12.5108 7.27963 11.74 6.50551L11.74 12.1117ZM11.74 12.1117C10.9695 12.8855 10.0393 13.2722 8.9512 13.2722M11.74 12.1117L8.9512 13.2722M8.9512 13.2722C7.86349 13.2722 6.93334 12.8854 6.16256 12.1117C5.3918 11.3379 5.00586 10.403 5.00586 9.30855C5.00586 8.21434 5.3918 7.27944 6.16248 6.5056C6.93306 5.73185 7.86301 5.34521 8.9512 5.34521C10.0391 5.34521 10.9692 5.73182 11.7399 6.50543L8.9512 13.2722Z" stroke="inherit"/>
<path d="M36.3761 18.478C35.2613 16.7432 33.4527 15.4882 31.343 15.0891C31.1486 15.0523 30.9426 15.0388 30.7229 15.0388H28.9553C28.8441 15.0388 28.7335 15.0469 28.6341 15.0638C28.2679 15.1261 28.0195 15.2809 27.8516 15.4772C27.6795 15.6784 27.5677 15.9522 27.5313 16.283C27.4574 16.9549 27.7057 17.7866 28.2416 18.4301C28.5398 18.7881 28.8298 19.1706 29.0982 19.5733C30.0229 20.9603 31.3844 22.0317 32.8847 22.0317H33.4968C34.622 22.0317 35.6425 21.5381 36.2201 20.8454C36.7785 20.1756 36.9252 19.3327 36.3761 18.478Z" stroke="inherit"/>
<path d="M27.2817 12.1117L27.2817 12.1116C26.511 11.3378 26.1252 10.4031 26.1252 9.30854C26.1252 8.2145 26.511 7.27962 27.2817 6.50551L27.2817 12.1117ZM27.2817 12.1117C28.0522 12.8855 28.9824 13.2722 30.0704 13.2722M27.2817 12.1117L30.0704 13.2722M30.0704 13.2722C31.1581 13.2722 32.0882 12.8854 32.859 12.1117C33.6297 11.3379 34.0156 10.403 34.0156 9.30854C34.0156 8.21433 33.6297 7.27943 32.859 6.50559C32.0885 5.73185 31.1586 5.34521 30.0704 5.34521C28.9826 5.34521 28.0525 5.73182 27.2818 6.50542L30.0704 13.2722Z" stroke="inherit"/>
</svg>
