<svg width="28" height="27" viewBox="0 0 28 27" fill="none" xmlns="http://www.w3.org/2000/svg">
<path d="M9.85554 7.20854L12.3394 2.33521C13.0813 0.879483 15.1612 0.87948 15.9032 2.33521L18.3854 7.2054C18.6763 7.77616 19.2231 8.17303 19.8559 8.27279L25.5103 9.16429C27.1339 9.42026 27.7727 11.4166 26.5995 12.5676L22.6309 16.4607C22.1575 16.9252 21.9451 17.5941 22.0639 18.2466L23.0343 23.5781C23.3321 25.2137 21.6202 26.4774 20.1449 25.7111L15.0523 23.0663C14.4693 22.7635 13.7748 22.7663 13.1943 23.0739L8.30881 25.6619C6.83307 26.4436 5.10584 25.1794 5.40492 23.5364L6.36781 18.2466C6.48658 17.5941 6.27417 16.9252 5.80073 16.4607L1.82234 12.5579C0.650892 11.4087 1.28566 9.4156 2.90594 9.1555L8.39064 8.27505C9.02121 8.17383 9.56553 7.77754 9.85554 7.20854Z" stroke="inherit"/>
</svg>
