<svg width="30" height="30" viewBox="0 0 30 30" fill="none" xmlns="http://www.w3.org/2000/svg">
<path d="M8.20898 17.4127C8.20898 17.3114 8.21659 17.218 8.22811 17.1194H21.4694C21.4811 17.2174 21.489 17.3099 21.489 17.4127C21.489 19.1737 20.7894 20.8626 19.5442 22.1079C18.2989 23.3531 16.61 24.0527 14.849 24.0527C13.0879 24.0527 11.399 23.3531 10.1538 22.1079C8.90855 20.8626 8.20898 19.1737 8.20898 17.4127ZM11.1756 8.68603V11.8594C11.1756 12.1476 11.0612 12.424 10.8574 12.6278C10.6536 12.8315 10.3772 12.946 10.089 12.946C9.80078 12.946 9.52438 12.8315 9.32059 12.6278C9.1168 12.424 9.00232 12.1476 9.00232 11.8594V8.68603C9.00232 8.39783 9.1168 8.12143 9.32059 7.91764C9.52438 7.71385 9.80078 7.59937 10.089 7.59937C10.3772 7.59937 10.6536 7.71385 10.8574 7.91764C11.0612 8.12143 11.1756 8.39783 11.1756 8.68603ZM20.6956 8.68603V11.8594C20.6956 12.1476 20.5812 12.424 20.3774 12.6278C20.1736 12.8315 19.8972 12.946 19.609 12.946C19.3208 12.946 19.0444 12.8315 18.8406 12.6278C18.6368 12.424 18.5223 12.1476 18.5223 11.8594V8.68603C18.5223 8.39783 18.6368 8.12143 18.8406 7.91764L18.487 7.56409L18.8406 7.91764C19.0444 7.71385 19.3208 7.59937 19.609 7.59937C19.8972 7.59937 20.1736 7.71385 20.3774 7.91764C20.5812 8.12143 20.6956 8.39783 20.6956 8.68603Z" stroke="inherit"/>
<circle cx="14.8219" cy="15.0502" r="14.1461" stroke="inherit"/>
</svg>
