<svg width="37" height="23" viewBox="0 0 37 23" fill="none" xmlns="http://www.w3.org/2000/svg">
<path d="M2.7714 15.8258C0.661815 11.8326 5.52055 7.67187 8.57278 10.4765L14.9839 16.9397M2.7714 15.8258C-0.724493 10.7025 1.88002 6.29675 2.7714 5.42853C7.10329 1.20915 11.8133 2.66088 16.023 6.42738M2.7714 15.8258C4.13052 17.5795 8.47578 20.2575 14.9839 16.9397M34.1139 4.90113C41.4221 17.7094 25.6755 27.3532 17.8399 19.8189L14.9839 16.9397M34.1139 4.90113C35.3103 8.14086 35.3194 12.757 29.744 15.2231C28.4381 15.8007 24.3064 16.4531 20.1002 10.9285C18.8215 9.24912 17.4511 7.70507 16.023 6.42738M34.1139 4.90113C30.1915 -2.24129 19.6629 1.7329 16.023 6.42738" stroke="inherit"/>
</svg>
