<svg width="618" height="544" viewBox="0 0 618 544" fill="none" xmlns="http://www.w3.org/2000/svg">
  <path
    d="M251.684 470.546C251.684 470.546 322.133 501.118 335.093 488.823C349.05 475.531 301.863 413.389 286.576 413.389C263.98 413.057 249.026 461.241 251.684 470.546Z"
    fill="url(#paint0_linear_757:8346)" />
  <path opacity="0.3"
    d="M297.877 420.699C297.877 420.699 276.277 437.979 278.936 453.598C281.594 468.884 318.148 491.148 318.148 491.148C318.148 491.148 286.246 484.834 257.668 473.536L294.222 419.37L297.877 420.699Z"
    fill="url(#paint1_linear_757:8346)" />
  <path
    d="M270.958 210.682C270.958 210.682 326.453 186.091 371.647 139.236C371.647 139.236 386.268 154.855 374.638 190.079C374.638 190.079 288.902 281.796 240.386 287.777C191.869 293.759 210.146 226.633 210.146 226.633C210.146 226.633 251.02 224.639 270.958 210.682Z"
    fill="url(#paint2_linear_757:8346)" />
  <path
    d="M56.9542 281.464C122.751 312.701 291.895 218.326 303.858 174.794C308.51 157.514 307.181 139.237 301.199 121.625C274.947 46.1911 162.627 -19.6056 71.5755 23.9265C9.76659 53.5018 -8.51025 131.261 3.45278 194.732C10.4312 234.276 29.3728 268.504 56.9542 281.464Z"
    fill="url(#paint3_linear_757:8346)" />
  <path
    d="M104.805 286.448C130.725 282.792 166.282 272.159 188.546 261.857C229.752 243.248 257.334 224.971 270.95F8 210.682C279.93 201.377 282.921 193.734 279.598 188.75C277.604 185.759 268.3 186.424 254.343 190.079C213.801 200.38 135.377 233.279 96.4974 258.866C93.1743 261.192 90.1835 263.186 87.5251 265.18C86.8604 265.512 86.5281 266.177 85.8635 266.509C85.8635 266.509 85.5313 266.509 85.5313 266.842C79.2175 271.826 74.8975 276.479 73.9006 280.134C73.5683 281.131 73.5684 281.795 73.5684 282.792C74.5653 288.442 87.1928 289.106 104.805 286.448Z"
    fill="url(#paint4_linear_757:8346)" />
  <path opacity="0.3"
    d="M56.9545 281.463C122.751 312.7 291.895 218.325 303.858 174.793C308.51 157.513 307.181 139.236 301.2 121.624C301.2 121.624 299.87 149.87 266.307 170.473C232.744 191.076 126.074 232.947 97.8281 226.965C69.5821 220.984 45.3238 145.882 45.3238 145.882L3.45313 194.731C10.4316 234.276 29.3731 268.503 56.9545 281.463Z"
    fill="url(#paint5_linear_757:8346)" />
  <path opacity="0.5"
    d="M104.805 286.448C119.094 270.497 161.962 226.965 207.82 217.328C263.98 205.697 270.958 210.682 270.958 210.682C279.93 201.377 282.921 193.734 279.598 188.75C277.604 185.759 268.3 186.424 254.343 190.079C213.801 200.38 135.377 233.279 96.4974 258.866C92.5097 261.525 88.8543 264.183 85.8635 266.509C85.8635 266.509 85.5313 266.509 85.5313 266.842C79.2175 271.826 74.8975 276.479 73.9006 280.134C73.5683 281.131 73.5684 281.795 73.5684 282.792C74.5653 288.442 87.1928 289.106 104.805 286.448Z"
    fill="url(#paint6_linear_757:8346)" />
  <path
    d="M87.5254 264.848C101.482 269.833 151.993 256.54 178.577 244.577C226.429 222.977 252.017 202.042 254.676 190.079C210.479 201.045 121.753 239.26 87.5254 264.848Z"
    fill="url(#paint7_linear_757:8346)" />
  <path
    d="M302.86 124.948C305.186 150.203 157.31 226.966 101.15 206.363C44.9904 185.76 24.0552 42.5357 109.458 17.6127C190.873 -6.31334 298.54 79.0893 302.86 124.948Z"
    fill="#DFE3FB" />
  <path
    d="M300.868 121.624C303.194 146.879 155.318 223.642 99.158 203.039C42.9983 182.436 22.063 39.2119 107.466 14.2889C188.881 -9.3048 296.548 76.0979 300.868 121.624Z"
    fill="url(#paint8_linear_757:8346)" />
  <path opacity="0.5"
    d="M297.543 115.975C297.543 115.975 290.565 85.0709 248.362 54.1664C248.362 54.1664 240.054 49.8464 238.393 53.1695C236.731 56.4925 274.614 76.4309 297.543 115.975Z"
    fill="url(#paint9_linear_757:8346)" />
  <path
    d="M227.094 103.347C227.094 103.347 188.547 124.614 164.953 127.273C164.953 127.273 188.879 159.506 213.47 149.87C238.393 140.565 227.094 103.347 227.094 103.347Z"
    fill="#BE9DEA" />
  <path
    d="M129.73 397.77C136.709 451.936 164.955 477.524 219.453 481.511C272.954 485.499 310.837 430.669 299.539 361.217C292.56 317.02 282.923 277.143 262.32 251.223C250.69 236.602 235.404 226.3 214.801 221.98C198.518 218.657 184.228 226.3 172.265 240.257C141.029 276.478 124.413 355.9 129.73 397.77Z"
    fill="url(#paint10_linear_757:8346)" />
  <path opacity="0.3"
    d="M210.481 280.467C210.481 280.467 177.583 335.629 177.251 363.543C176.586 457.918 219.453 481.512 219.453 481.512C219.453 481.512 181.238 478.521 165.288 464.564C148.008 449.278 125.411 421.364 129.399 363.211C132.389 317.352 154.986 267.839 154.986 267.839L210.481 280.467Z"
    fill="url(#paint11_linear_757:8346)" />
  <path opacity="0.5"
    d="M172.93 239.593C172.93 239.593 227.096 265.845 249.028 265.181C270.295 264.848 263.317 251.556 262.985 250.559C251.354 235.938 236.068 225.636 215.465 221.316C199.514 217.993 185.225 225.636 172.93 239.593Z"
    fill="url(#paint12_linear_757:8346)" />
  <path
    d="M206.16 275.814C209.483 276.147 212.141 308.38 209.483 309.377C206.824 310.042 203.833 303.063 202.172 292.43C200.843 281.796 203.169 275.482 206.16 275.814Z"
    fill="white" />
  <path
    d="M183.896 291.765C180.24 309.377 170.603 328.983 162.296 337.291C159.305 340.282 156.647 341.611 154.321 341.279C145.348 339.949 140.031 315.026 151.994 284.454C161.964 259.199 175.588 249.562 180.573 251.224C182.899 251.888 185.225 255.544 186.222 263.187C186.887 269.5 186.554 278.805 183.896 291.765Z"
    fill="url(#paint13_linear_757:8346)" />
  <path
    d="M183.896 291.765C180.24 309.377 170.603 328.983 162.296 337.291C162.296 337.291 150.665 278.805 186.222 263.187C186.886 269.5 186.554 278.805 183.896 291.765Z"
    fill="#6340A2" />
  <path opacity="0.5"
    d="M168.941 330.977C168.941 330.977 213.138 349.918 251.353 341.278C289.569 332.639 288.572 306.719 288.572 306.719L285.913 297.414L168.941 330.977Z"
    fill="url(#paint14_linear_757:8346)" />
  <path
    d="M192.867 439.974C192.867 439.974 181.236 536.01 156.646 543.321C155.981 543.653 155.316 543.653 154.652 543.653C135.046 545.979 112.781 449.943 115.772 416.38C116.436 407.74 120.092 402.091 125.076 398.768C142.689 386.805 179.575 404.417 192.867 439.974Z"
    fill="url(#paint15_linear_757:8346)" />
  <path
    d="M364.669 245.242C264.645 329.315 168.94 330.977 168.94 330.977C157.974 310.041 162.959 260.86 173.925 253.882C174.59 253.549 174.922 253.217 175.587 253.217C237.728 238.928 299.205 219.986 332.103 209.02H332.435C344.398 205.033 352.373 202.374 355.032 201.377L356.029 201.045C356.029 201.045 356.029 201.045 356.361 201.377C358.023 202.042 359.352 202.706 360.349 204.036C369.653 214.005 365.001 243.248 364.669 245.242Z"
    fill="url(#paint16_linear_757:8346)" />
  <path
    d="M355.697 201.045C355.697 201.045 335.094 217.328 333.765 237.266C332.436 257.205 356.029 253.217 364.337 245.242C364.669 245.242 377.297 207.691 355.697 201.045Z"
    fill="url(#paint17_linear_757:8346)" />
  <path
    d="M617.554 156.516C617.554 156.516 616.225 159.175 614.231 163.162C600.939 187.421 575.019 212.344 574.022 213.673C491.61 248.233 400.891 265.18 400.891 265.18C358.355 188.085 338.417 93.0457 337.42 88.0611V87.7288C452.73 22.5968 559.733 0.664612 563.056 0C563.056 0 563.056 0.332326 563.388 0.332326C568.04 7.64306 572.36 16.6153 576.68 26.2522V26.5845C588.643 54.1659 599.277 88.0611 606.92 114.313C613.234 136.91 616.889 153.525 617.554 156.516C617.554 156.184 617.554 156.516 617.554 156.516Z"
    fill="url(#paint18_linear_757:8346)" />
  <path
    d="M617.554 156.517C617.554 156.517 616.225 159.175 614.231 163.163C607.917 175.458 592.964 201.71 574.022 213.673C574.022 213.673 548.767 105.674 521.186 34.5603L563.056 0.665039C563.056 0.665039 563.056 0.99734 563.388 0.99734C564.718 3.32348 569.702 12.2958 576.681 26.9172V27.2495C585.985 46.5233 597.948 75.4339 607.253 108.332C611.573 123.286 615.228 139.569 617.554 156.517C617.554 156.184 617.554 156.517 617.554 156.517Z"
    fill="url(#paint19_linear_757:8346)" />
  <path
    d="M337.42 88.0608C337.42 88.0608 446.416 45.858 521.185 34.5595L563.056 0.332031C563.056 0.332031 408.201 29.9073 337.42 88.0608Z"
    fill="url(#paint20_linear_757:8346)" />
  <path
    d="M218.786 80.0857C213.137 79.7534 210.811 52.8365 220.78 47.852C230.75 42.8674 251.685 56.1596 252.349 65.7965C252.682 70.1165 241.383 69.1196 236.399 71.778C230.085 74.7688 224.103 80.0857 218.786 80.0857Z"
    fill="url(#paint21_linear_757:8346)" />
  <path opacity="0.5"
    d="M530.49 201.045L537.8 204.7L565.05 177.119L589.64 164.491L577.013 157.513L494.268 103.347L469.678 123.617L530.49 201.045Z"
    fill="url(#paint22_linear_757:8346)" />
  <path
    d="M146.344 105.674C151.329 97.0339 102.147 78.7571 84.2027 94.3755C66.2582 109.994 75.2305 131.926 83.2059 136.911C87.8581 139.901 99.4888 125.945 115.772 119.298C130.726 112.985 143.686 110.658 146.344 105.674Z"
    fill="url(#paint23_linear_757:8346)" />
  <path
    d="M490.945 242.916C490.945 242.916 428.804 159.175 415.18 61.1443C415.18 61.1443 439.438 44.529 480.976 21.2675L488.619 18.9414L432.46 55.8274C432.46 55.8274 444.09 141.562 498.256 241.919L490.945 242.916Z"
    fill="url(#paint24_radial_757:8346)" />
  <path opacity="0.3"
    d="M192.866 439.974C192.866 439.974 181.236 536.01 156.645 543.321C177.58 524.712 190.54 450.275 156.645 407.74C147.008 395.777 131.39 397.771 125.408 398.768C142.688 386.805 179.574 404.417 192.866 439.974Z"
    fill="url(#paint25_linear_757:8346)" />
  <path opacity="0.5"
    d="M574.022 213.673C491.61 248.233 400.891 265.181 400.891 265.181C358.355 188.086 338.417 93.0461 337.42 88.0615C338.749 92.3815 358.023 159.84 378.294 168.812C399.229 178.117 439.77 173.132 439.77 173.132C439.77 173.132 471.672 197.058 513.542 206.695C555.745 215.999 574.022 213.673 574.022 213.673Z"
    fill="url(#paint26_linear_757:8346)" />
  <path opacity="0.3"
    d="M364.669 245.242C264.645 329.315 168.94 330.977 168.94 330.977C157.974 310.041 162.959 260.86 173.925 253.882L175.587 253.217C174.59 254.546 153.654 287.445 173.593 307.383C193.863 327.986 299.869 281.463 318.146 248.897C336.423 216.331 330.109 209.685 330.109 209.685L331.77 209.02H332.103L354.7 201.377L355.696 201.045C355.696 201.045 355.697 201.045 356.029 201.377C356.694 201.71 358.355 202.706 360.016 204.036C366.663 209.02 376.299 221.648 364.669 245.242Z"
    fill="url(#paint27_linear_757:8346)" />
  <path
    d="M343.401 227.962C340.743 248.565 374.638 256.208 398.564 242.583C422.49 228.959 432.459 211.347 438.108 198.387C443.425 185.427 436.115 165.488 431.13 162.498C426.146 159.507 377.629 178.116 369.321 182.104C343.401 195.064 345.063 215.999 343.401 227.962Z"
    fill="url(#paint28_linear_757:8346)" />
  <path
    d="M346.061 210.35C346.061 210.35 407.869 195.729 432.46 163.827C432.46 163.827 431.463 159.507 420.829 162.498L366.996 182.104C366.663 182.104 346.725 196.726 346.061 210.35Z"
    fill="url(#paint29_linear_757:8346)" />
  <path
    d="M348.387 206.362C348.387 206.362 349.051 191.076 354.036 180.775C366.331 155.852 386.27 147.544 386.27 147.544C386.27 147.544 392.251 153.193 393.58 160.504C394.91 167.815 378.627 195.396 378.627 195.396C378.627 195.396 363.34 206.694 348.387 206.362Z"
    fill="url(#paint30_linear_757:8346)" />
  <path opacity="0.5"
    d="M389.261 174.793L412.19 182.104C412.19 182.104 395.575 192.405 378.627 195.396L389.261 174.793Z"
    fill="url(#paint31_linear_757:8346)" />
  <path
    d="M513.211 89.7227L489.284 95.3719L468.017 116.972L461.703 142.227L526.17 205.365L581.001 153.858L513.211 89.7227ZM496.595 126.609C492.94 130.596 486.626 130.596 482.971 126.941C478.983 123.286 478.983 116.972 482.971 113.316C486.626 109.661 492.94 109.329 496.595 113.316C500.251 116.639 500.251 122.953 496.595 126.609Z"
    fill="url(#paint32_linear_757:8346)" />
  <path
    d="M432.46 55.828C432.46 55.828 462.699 100.025 480.644 116.972L485.961 110.991C485.961 110.991 459.376 96.037 435.118 55.1634L450.404 44.1973C450.404 44.1973 432.127 54.1664 432.46 55.828Z"
    fill="url(#paint33_radial_757:8346)" />
  <path
    d="M154.984 449.61C151.329 448.945 150.332 481.179 154.984 484.17C159.304 486.828 160.301 450.607 154.984 449.61Z"
    fill="white" />
  <path
    d="M190.872 266.177C191.537 270.164 217.457 265.512 217.457 260.195C217.457 254.878 190.54 261.857 190.872 266.177Z"
    fill="white" />
  <path
    d="M222.109 258.202C221.444 256.541 231.746 253.55 233.407 254.879C235.069 256.208 231.081 258.534 228.423 259.531C226.097 260.528 222.774 259.531 222.109 258.202Z"
    fill="white" />
  <path
    d="M361.346 178.78C356.361 179.445 365.333 164.491 368.324 164.491C371.315 164.491 364.669 178.448 361.346 178.78Z"
    fill="white" />
  <path
    d="M306.183 438.312C303.857 439.309 310.171 450.607 313.826 448.281C317.149 445.955 311.833 435.986 306.183 438.312Z"
    fill="white" />
  <path opacity="0.3"
    d="M617.555 156.516C617.555 156.516 616.226 159.175 614.232 163.163C607.919 175.458 592.965 201.71 574.023 213.673C575.02 212.012 603.599 160.172 606.589 114.978C606.922 112.652 606.922 110.326 606.922 108.332C611.574 123.286 615.229 139.569 617.555 156.516C617.555 156.184 617.555 156.516 617.555 156.516Z"
    fill="url(#paint34_linear_757:8346)" />
  <path opacity="0.72"
    d="M337.42 88.3932C337.42 88.3932 462.699 39.8765 503.573 27.2488C544.447 14.6212 563.056 0.332031 563.056 0.332031L521.185 34.5595C521.185 34.5595 406.54 56.4918 337.42 88.3932Z"
    fill="url(#paint35_linear_757:8346)" />
  <path
    d="M237.168 415.362C214.005 425.095 198.565 415.867 193.741 410.036C191.946 407.503 189.882 400.879 195.989 394.648C202.096 388.418 210.885 390.487 214.517 392.301L237.719 415.146L237.168 415.362Z"
    fill="url(#paint36_linear_757:8346)" />
  <path
    d="M262.294 403.995L242.562 382.481C254.534 369.49 285.085 360.816 300.923 372.185C301.563 378.965 302.15 396.025 299.383 410.025C298.749 410.37 298.095 410.688 297.423 410.979C286.808 415.578 271.869 413.372 262.294 403.995Z"
    fill="url(#paint37_linear_757:8346)" />
  <path
    d="M215.26 393.998C204.654 384.706 186.671 397.13 193.74 410.036C181.836 393.363 191.753 379.838 195.065 377.228C216.624 360.239 239.322 375.444 256.609 397.098C271.014 415.141 285.938 413.682 290.702 412.048C294.154 410.865 297.036 409.463 299.423 407.9C298.728 412.442 296.674 423.024 294.02 429.024C279.478 436.52 260.071 436.474 247.357 424.823L215.26 393.998Z"
    fill="url(#paint38_linear_757:8346)" />
  <defs>
    <linearGradient id="paint0_linear_757:8346" x1="291.251" y1="485.102" x2="309.018" y2="418.977"
      gradientUnits="userSpaceOnUse">
      <stop stop-color="#CBC1F7" />
      <stop offset="1" stop-color="#E8DCF7" />
    </linearGradient>
    <linearGradient id="paint1_linear_757:8346" x1="287.854" y1="491.081" x2="287.854" y2="419.151"
      gradientUnits="userSpaceOnUse">
      <stop stop-color="#9D68C2" />
      <stop offset="1" stop-color="#CCEDFF" />
    </linearGradient>
    <linearGradient id="paint2_linear_757:8346" x1="290.186" y1="290.178" x2="295.809" y2="136.522"
      gradientUnits="userSpaceOnUse">
      <stop stop-color="#BE9DEA" />
      <stop offset="1" stop-color="#9E8CEF" />
    </linearGradient>
    <linearGradient id="paint3_linear_757:8346" x1="221.817" y1="253.217" x2="47.5316" y2="39.4054"
      gradientUnits="userSpaceOnUse">
      <stop stop-color="#CBC1F7" />
      <stop offset="1" stop-color="#E8DCF7" />
    </linearGradient>
    <linearGradient id="paint4_linear_757:8346" x1="274.371" y1="180.279" x2="83.8958" y2="299.421"
      gradientUnits="userSpaceOnUse">
      <stop stop-color="#8879EA" />
      <stop offset="1" stop-color="#9E8CEF" />
    </linearGradient>
    <linearGradient id="paint5_linear_757:8346" x1="206.143" y1="255.857" x2="111.376" y2="104.352"
      gradientUnits="userSpaceOnUse">
      <stop stop-color="#9D68C2" />
      <stop offset="1" stop-color="#CCEDFF" />
    </linearGradient>
    <linearGradient id="paint6_linear_757:8346" x1="191.896" y1="260.255" x2="164.339" y2="216.198"
      gradientUnits="userSpaceOnUse">
      <stop stop-color="#8DA4E5" />
      <stop offset="1" stop-color="#755CBB" />
    </linearGradient>
    <linearGradient id="paint7_linear_757:8346" x1="182.312" y1="245.916" x2="164.458" y2="216.845"
      gradientUnits="userSpaceOnUse">
      <stop stop-color="#5E36CC" />
      <stop offset="1" stop-color="#6C4A96" />
    </linearGradient>
    <linearGradient id="paint8_linear_757:8346" x1="213.249" y1="189.244" x2="103.369" y2="13.5764"
      gradientUnits="userSpaceOnUse">
      <stop stop-color="#48277F" />
      <stop offset="1" stop-color="#1A1F77" />
    </linearGradient>
    <linearGradient id="paint9_linear_757:8346" x1="291.439" y1="119.898" x2="246.345" y2="47.8055"
      gradientUnits="userSpaceOnUse">
      <stop />
      <stop offset="1" stop-color="#6A9BFF" />
    </linearGradient>
    <linearGradient id="paint10_linear_757:8346" x1="218.834" y1="481.95" x2="209.376" y2="220.988"
      gradientUnits="userSpaceOnUse">
      <stop stop-color="#CBC1F7" />
      <stop offset="1" stop-color="#E8DCF7" />
    </linearGradient>
    <linearGradient id="paint11_linear_757:8346" x1="169.566" y1="477.026" x2="187.922" y2="270.653"
      gradientUnits="userSpaceOnUse">
      <stop stop-color="#9D68C2" />
      <stop offset="1" stop-color="#CCEDFF" />
    </linearGradient>
    <linearGradient id="paint12_linear_757:8346" x1="217.483" y1="262.67" x2="221.128" y2="221.691"
      gradientUnits="userSpaceOnUse">
      <stop stop-color="#8DA4E5" />
      <stop offset="1" stop-color="#755CBB" />
    </linearGradient>
    <linearGradient id="paint13_linear_757:8346" x1="184.39" y1="297.671" x2="146.938" y2="294.341"
      gradientUnits="userSpaceOnUse">
      <stop stop-color="#8879EA" />
      <stop offset="1" stop-color="#9E8CEF" />
    </linearGradient>
    <linearGradient id="paint14_linear_757:8346" x1="228.728" y1="343.577" x2="228.728" y2="297.38"
      gradientUnits="userSpaceOnUse">
      <stop stop-color="#8DA4E5" />
      <stop offset="1" stop-color="#755CBB" />
    </linearGradient>
    <linearGradient id="paint15_linear_757:8346" x1="127.273" y1="536.751" x2="163.856" y2="400.604"
      gradientUnits="userSpaceOnUse">
      <stop stop-color="#CBC1F7" />
      <stop offset="1" stop-color="#E8DCF7" />
    </linearGradient>
    <linearGradient id="paint16_linear_757:8346" x1="240.414" y1="350.11" x2="285.519" y2="182.247"
      gradientUnits="userSpaceOnUse">
      <stop stop-color="#CBC1F7" />
      <stop offset="1" stop-color="#E8DCF7" />
    </linearGradient>
    <linearGradient id="paint17_linear_757:8346" x1="368.147" y1="228.007" x2="335.048" y2="225.064"
      gradientUnits="userSpaceOnUse">
      <stop stop-color="#8879EA" />
      <stop offset="1" stop-color="#9E8CEF" />
    </linearGradient>
    <linearGradient id="paint18_linear_757:8346" x1="447.249" y1="274.521" x2="504.133" y2="-11.3429"
      gradientUnits="userSpaceOnUse">
      <stop stop-color="#7B48C6" />
      <stop offset="1" stop-color="#8E64D8" />
    </linearGradient>
    <linearGradient id="paint19_linear_757:8346" x1="592.437" y1="210.052" x2="551.192" y2="2.77683"
      gradientUnits="userSpaceOnUse">
      <stop stop-color="#7A47C5" />
      <stop offset="1" stop-color="#1D1F78" />
    </linearGradient>
    <linearGradient id="paint20_linear_757:8346" x1="454.364" y1="64.7459" x2="446.193" y2="23.6808"
      gradientUnits="userSpaceOnUse">
      <stop stop-color="#7C4AC7" />
      <stop offset="1" stop-color="#1F2078" />
    </linearGradient>
    <linearGradient id="paint21_linear_757:8346" x1="235.011" y1="76.9075" x2="228.74" y2="45.8997"
      gradientUnits="userSpaceOnUse">
      <stop stop-color="#916BDB" />
      <stop offset="1" stop-color="#765CBD" />
    </linearGradient>
    <linearGradient id="paint22_linear_757:8346" x1="529.569" y1="204.717" x2="529.569" y2="103.356"
      gradientUnits="userSpaceOnUse">
      <stop stop-color="#9D68C2" />
      <stop offset="1" stop-color="#CCEDFF" />
    </linearGradient>
    <linearGradient id="paint23_linear_757:8346" x1="114.12" y1="131.394" x2="105.189" y2="87.2355"
      gradientUnits="userSpaceOnUse">
      <stop stop-color="#926ADC" />
      <stop offset="1" stop-color="#7A46C4" />
    </linearGradient>
    <radialGradient id="paint24_radial_757:8346" cx="0" cy="0" r="1" gradientUnits="userSpaceOnUse"
      gradientTransform="translate(456.629 130.956) scale(84.5194)">
      <stop stop-color="#6D45B8" />
      <stop offset="1" stop-color="#BE9DEA" />
    </radialGradient>
    <linearGradient id="paint25_linear_757:8346" x1="159.122" y1="543.321" x2="159.122" y2="395.046"
      gradientUnits="userSpaceOnUse">
      <stop stop-color="#9D68C2" />
      <stop offset="1" stop-color="#CCEDFF" />
    </linearGradient>
    <linearGradient id="paint26_linear_757:8346" x1="431.798" y1="271.447" x2="463.275" y2="113.261"
      gradientUnits="userSpaceOnUse">
      <stop stop-color="#8E55B6" />
      <stop offset="1" stop-color="#CCEDFF" />
    </linearGradient>
    <linearGradient id="paint27_linear_757:8346" x1="266.465" y1="330.91" x2="266.465" y2="201.145"
      gradientUnits="userSpaceOnUse">
      <stop stop-color="#9D68C2" />
      <stop offset="1" stop-color="#CCEDFF" />
    </linearGradient>
    <linearGradient id="paint28_linear_757:8346" x1="378.986" y1="252.976" x2="405.16" y2="155.569"
      gradientUnits="userSpaceOnUse">
      <stop stop-color="#CBC1F7" />
      <stop offset="1" stop-color="#E8DCF7" />
    </linearGradient>
    <linearGradient id="paint29_linear_757:8346" x1="426.091" y1="155.145" x2="347.759" y2="212.689"
      gradientUnits="userSpaceOnUse">
      <stop stop-color="#BE9DEA" />
      <stop offset="1" stop-color="#9E8CEF" />
    </linearGradient>
    <linearGradient id="paint30_linear_757:8346" x1="362.864" y1="210.273" x2="380.13" y2="146.018"
      gradientUnits="userSpaceOnUse">
      <stop stop-color="#CBC1F7" />
      <stop offset="1" stop-color="#E8DCF7" />
    </linearGradient>
    <linearGradient id="paint31_linear_757:8346" x1="406.34" y1="174.126" x2="378.177" y2="194.816"
      gradientUnits="userSpaceOnUse">
      <stop stop-color="#8DA4E5" />
      <stop offset="1" stop-color="#755CBB" />
    </linearGradient>
    <linearGradient id="paint32_linear_757:8346" x1="554.426" y1="180.774" x2="478.418" y2="106.519"
      gradientUnits="userSpaceOnUse">
      <stop stop-color="#CBC1F7" />
      <stop offset="1" stop-color="#E8DCF7" />
    </linearGradient>
    <radialGradient id="paint33_radial_757:8346" cx="0" cy="0" r="1" gradientUnits="userSpaceOnUse"
      gradientTransform="translate(459.042 80.6519) scale(31.9389)">
      <stop stop-color="#BE9DEA" />
      <stop offset="1" stop-color="#6F4CA6" />
    </radialGradient>
    <linearGradient id="paint34_linear_757:8346" x1="589.597" y1="216.755" x2="611.063" y2="108.88"
      gradientUnits="userSpaceOnUse">
      <stop stop-color="#9D68C2" />
      <stop offset="1" stop-color="#CCEDFF" />
    </linearGradient>
    <linearGradient id="paint35_linear_757:8346" x1="337.471" y1="44.3194" x2="563.149" y2="44.3194"
      gradientUnits="userSpaceOnUse">
      <stop />
      <stop offset="1" stop-color="#9295BB" />
    </linearGradient>
    <linearGradient id="paint36_linear_757:8346" x1="192.104" y1="400.153" x2="236.087" y2="419.008"
      gradientUnits="userSpaceOnUse">
      <stop stop-color="#FEF7FE" />
      <stop offset="1" stop-color="#8969C8" />
    </linearGradient>
    <linearGradient id="paint37_linear_757:8346" x1="246.109" y1="385.19" x2="306.268" y2="401.651"
      gradientUnits="userSpaceOnUse">
      <stop stop-color="#6F4CA6" />
      <stop offset="1" stop-color="#FEFDF9" />
    </linearGradient>
    <linearGradient id="paint38_linear_757:8346" x1="188.138" y1="390.944" x2="313.584" y2="398.789"
      gradientUnits="userSpaceOnUse">
      <stop stop-color="#543286" />
      <stop offset="0.0561007" stop-color="#4A287F" />
      <stop offset="0.134476" stop-color="#5A319B" />
      <stop offset="0.268046" stop-color="#6D45B8" />
      <stop offset="0.410379" stop-color="#8960E2" />
      <stop offset="0.5283" stop-color="#6F47BB" />
      <stop offset="0.746182" stop-color="#4A2380" />
      <stop offset="1" stop-color="#411E71" />
    </linearGradient>
  </defs>
</svg>